# Obj file Generated by Strata 3D CX(TM): http://www.strata.com
mtllib chilimane.mtl
v -94.171661 44.381493 4.054899
v -93.691154 41.002377 4.054899
v -87.597137 42.872841 4.054899
v -87.314690 36.223129 4.054899
v -96.278831 44.093903 4.054899
v -78.055481 30.872372 4.054899
v -78.154083 41.693336 4.054899
v -66.993507 41.403347 4.054899
v -66.819588 28.511021 4.054899
v -55.266365 42.563263 4.054899
v -54.513058 26.952904 4.054899
v -44.123676 45.733444 4.054900
v -42.041943 26.584854 4.054899
v -30.271381 28.409504 4.054899
v -34.716396 51.474251 4.054899
v -19.569672 30.930523 4.054899
v -28.195518 60.346100 4.054899
v -10.097591 35.274830 4.054899
v -23.533260 69.790581 4.054899
v -13.949465 82.822418 4.054899
v 9.333117 46.068436 4.054899
v -8.728058 87.223663 4.054899
v 4.514582 43.279198 4.054899
v -18.834553 77.147041 4.054899
v -2.015916 40.179432 4.054899
v 12.278917 48.295425 4.054899
v 15.573141 51.156128 4.054899
v -3.020395 90.757668 4.054899
v 3.323454 93.831413 4.054899
v 20.960829 55.583405 4.054899
v 10.453432 96.851776 4.054899
v 24.432035 98.465416 4.054899
v 17.750875 98.734398 4.054899
v 34.516857 66.552513 4.054899
v 27.567049 60.930969 4.054899
v 30.399187 96.557686 4.054899
v 40.935310 71.801735 4.054899
v 35.554626 93.524040 4.054899
v 45.947479 76.032318 4.054899
v 39.800644 89.877296 4.054899
v 49.628075 78.223274 4.054899
v 47.979103 81.909035 4.054899
v 45.173546 85.453087 4.054899
v 17.975565 109.346458 -1.007680
v 9.729452 107.219109 -1.007680
v 1.672579 103.806084 -1.007680
v 42.891800 99.337944 -1.007680
v 38.093803 103.458748 -1.007680
v -36.289589 25.323437 -1.007680
v -49.590317 23.261581 -1.007680
v 49.837723 75.606323 -1.007680
v 44.173973 70.825760 -1.007680
v 32.268158 106.886772 -1.007680
v -64.533920 47.152000 -1.007680
v -77.785591 47.012146 -1.007680
v 8.463499 41.747131 -1.007680
v 11.792253 44.263641 -1.007680
v 29.067839 58.541801 -1.007680
v 21.602812 52.499054 -1.007680
v -5.495973 100.332764 -1.007680
v 36.921120 64.894150 -1.007680
v -101.067680 49.195045 -1.007680
v -108.496902 48.702240 -1.007680
v -24.196655 28.172180 -1.007680
v 25.525274 109.042503 -1.007680
v -90.397041 47.339836 -1.007680
v 53.996803 80.067062 -1.007680
v -13.493204 31.523373 -1.007680
v -17.845819 91.365929 -1.007680
v -11.945629 96.339325 -1.007680
v -4.360912 35.092564 -1.007680
v -90.285622 32.662373 -1.007680
v -100.748528 38.708729 -1.007680
v -28.675508 76.639946 -1.007680
v -23.365971 84.952751 -1.007680
v 52.133461 86.082382 -1.007680
v 48.963181 91.335861 -1.007680
v -110.878006 47.602699 -1.007680
v -107.953926 44.109283 -1.007680
v -33.943859 65.967682 -1.007680
v -63.682678 23.677483 -1.007680
v -77.589066 27.231525 -1.007680
v -41.312450 55.942497 -1.007680
v 3.018551 38.595291 -1.007680
v 15.514719 47.496223 -1.007680
v -51.942677 49.455383 -1.007679
v -93.691154 41.002377 -6.070259
v -87.597137 42.872841 -6.070259
v -87.314690 36.223129 -6.070259
v -94.171661 44.381493 -6.070259
v -96.278831 44.093903 -6.070259
v -78.055481 30.872372 -6.070259
v -78.154083 41.693336 -6.070259
v -66.993507 41.403347 -6.070259
v -66.819588 28.511024 -6.070259
v -55.266365 42.563263 -6.070259
v -54.513058 26.952904 -6.070259
v -42.041943 26.584854 -6.070259
v -44.123676 45.733444 -6.070260
v -30.271381 28.409504 -6.070259
v -34.716396 51.474251 -6.070259
v -19.569672 30.930523 -6.070259
v -28.195518 60.346100 -6.070259
v -10.097591 35.274830 -6.070259
v -23.533260 69.790581 -6.070259
v 4.514582 43.279198 -6.070259
v -13.949465 82.822418 -6.070259
v 9.333117 46.068436 -6.070259
v -8.728058 87.223663 -6.070259
v -18.834553 77.147041 -6.070259
v -2.015916 40.179432 -6.070259
v 3.323454 93.831413 -6.070259
v 15.573141 51.156128 -6.070259
v -3.020395 90.757668 -6.070259
v 12.278917 48.295425 -6.070259
v 20.960829 55.583405 -6.070259
v 10.453432 96.851776 -6.070259
v 27.567049 60.930969 -6.070259
v 17.750875 98.734398 -6.070259
v 34.516857 66.552513 -6.070259
v 24.432035 98.465416 -6.070259
v 30.399187 96.557686 -6.070259
v 40.935310 71.801735 -6.070259
v 35.554626 93.524040 -6.070259
v 45.947479 76.032318 -6.070259
v 39.800644 89.877296 -6.070259
v 49.628075 78.223274 -6.070259
v 45.173546 82.795822 -6.070259
v 47.979103 81.909035 -6.070259

vt 0.129232 0.368179
vt 0.132143 0.348747
vt 0.169067 0.359504
vt 0.170779 0.321264
vt 0.116464 0.366526
vt 0.226882 0.290493
vt 0.226284 0.352720
vt 0.293907 0.351053
vt 0.294962 0.276914
vt 0.364964 0.357723
vt 0.369529 0.267953
vt 0.432479 0.375953
vt 0.445093 0.265837
vt 0.516412 0.276331
vt 0.489480 0.408967
vt 0.581255 0.290828
vt 0.528991 0.459986
vt 0.638648 0.315812
vt 0.557240 0.514298
vt 0.615311 0.589241
vt 0.756381 0.377883
vt 0.646947 0.614550
vt 0.727186 0.361842
vt 0.585711 0.556603
vt 0.687616 0.344017
vt 0.774231 0.390689
vt 0.794191 0.407139
vt 0.681532 0.634872
vt 0.719969 0.652550
vt 0.826836 0.432601
vt 0.763171 0.669919
vt 0.847869 0.679199
vt 0.807388 0.680746
vt 0.908974 0.495680
vt 0.866864 0.463352
vt 0.884025 0.668228
vt 0.947864 0.525866
vt 0.915262 0.650783
vt 0.978234 0.550194
vt 0.940990 0.629812
vt 1.000535 0.562794
vt 0.990544 0.583989
vt 0.973545 0.604369
vt 0.808748 0.741773
vt 0.758784 0.729539
vt 0.709967 0.709912
vt 0.959719 0.684217
vt 0.930648 0.707914
vt 0.479948 0.258582
vt 0.399357 0.246725
vt 1.001805 0.547744
vt 0.967489 0.520253
vt 0.895349 0.727628
vt 0.308811 0.384112
vt 0.228518 0.383307
vt 0.751113 0.353030
vt 0.771282 0.367502
vt 0.875958 0.449611
vt 0.830727 0.414861
vt 0.666531 0.689938
vt 0.923542 0.486141
vt 0.087448 0.395860
vt 0.042433 0.393027
vt 0.553221 0.274965
vt 0.854493 0.740025
vt 0.152103 0.385192
vt 1.027006 0.573396
vt 0.618074 0.294236
vt 0.591702 0.638372
vt 0.627451 0.666973
vt 0.673408 0.314762
vt 0.152778 0.300786
vt 0.089382 0.335557
vt 0.526083 0.553688
vt 0.558254 0.601492
vt 1.015716 0.607988
vt 0.996507 0.638200
vt 0.028006 0.386704
vt 0.045723 0.366614
vt 0.494161 0.492316
vt 0.313969 0.249117
vt 0.229709 0.269555
vt 0.449514 0.434664
vt 0.718122 0.334905
vt 0.793838 0.386091
vt 0.385104 0.397358
vt 0.973545 0.589089

vn 0.012856 0.470367 0.882378
vn -0.201561 -0.235895 0.950645
vn 0.078903 0.444982 0.892057
vn -0.203765 -0.325080 0.923473
vn -0.229544 0.094134 0.968735
vn -0.163994 -0.418104 0.893473
vn 0.023976 0.389730 0.920617
vn -0.010002 0.362614 0.931886
vn -0.085579 -0.431720 0.897939
vn -0.055215 0.295160 0.953851
vn -0.031861 -0.531228 0.846629
vn -0.136969 0.284368 0.948880
vn 0.050702 -0.518412 0.853626
vn 0.000000 -0.000000 1.000000
vn 0.192910 -0.922890 0.333256
vn -0.152559 0.168407 0.973840
vn -0.000000 0.000000 1.000000
vn 0.300114 -0.903744 0.305252
vn -0.236343 0.152943 0.959558
vn 0.229069 -0.477912 0.848014
vn -0.250440 0.134977 0.958677
vn -0.187985 0.179508 0.965629
vn 0.280457 -0.403509 0.870933
vn -0.151196 0.197726 0.968527
vn 0.224600 -0.413067 0.882571
vn -0.222977 0.157309 0.962048
vn 0.215296 -0.415361 0.883811
vn -0.000000 0.000000 1.000000
vn 0.559262 -0.673838 0.482876
vn 0.000000 0.000000 1.000000
vn 0.563164 -0.672747 0.479852
vn -0.120113 0.209549 0.970393
vn -0.099896 0.215267 0.971432
vn -0.000000 0.000000 1.000000
vn 0.552350 -0.678940 0.483684
vn -0.080240 0.218225 0.972594
vn 0.051358 0.288944 0.955967
vn -0.034994 0.220771 0.974698
vn 0.000000 0.000000 1.000000
vn 0.551420 -0.679211 0.484365
vn -0.000000 0.000000 1.000000
vn 0.550392 -0.680188 0.484162
vn 0.102289 0.206442 0.973097
vn -0.000000 0.000000 1.000000
vn 0.556755 -0.673641 0.486036
vn 0.147946 0.193585 0.969864
vn 0.000000 0.000000 1.000000
vn 0.531363 -0.706303 0.467750
vn 0.192395 0.197738 0.961189
vn 0.366640 -0.226047 0.902484
vn 0.489812 0.241691 0.837657
vn 0.301703 0.250943 0.919784
vn -0.025463 0.430872 0.902054
vn -0.025463 0.430872 -0.902054
vn -0.133534 0.427323 0.894183
vn -0.133534 0.427323 -0.894183
vn -0.186357 0.419958 0.888204
vn -0.186357 0.419958 -0.888204
vn 0.349846 0.350571 0.868739
vn 0.349846 0.350571 -0.868739
vn 0.259560 0.384985 0.885672
vn 0.259560 0.384985 -0.885672
vn 0.179229 -0.983808 0.000000
vn 0.036423 -0.999337 0.000000
vn 0.634479 -0.772940 0.000000
vn 0.641043 -0.767505 0.000000
vn 0.166270 0.409561 0.897003
vn 0.166270 0.409561 -0.897003
vn -0.062687 0.654613 0.753361
vn -0.062687 0.654613 -0.753361
vn 0.009601 0.680122 0.733036
vn 0.009601 0.680122 -0.733036
vn 0.536675 -0.843789 0.000000
vn 0.621108 -0.783725 0.000000
vn 0.629035 -0.777377 0.000000
vn 0.632985 -0.774164 0.000000
vn -0.217503 0.411683 0.884991
vn -0.217503 0.411683 -0.884991
vn 0.631684 -0.775226 -0.000000
vn 0.094064 0.773738 0.626483
vn 0.094064 0.773738 -0.626483
vn -0.111694 0.589891 0.799720
vn -0.111694 0.589891 -0.799720
vn 0.252908 -0.967490 0.000000
vn 0.075391 0.424152 0.902447
vn 0.075391 0.424152 -0.902447
vn 0.083530 0.749049 0.657228
vn 0.083530 0.749049 -0.657228
vn 0.997848 -0.065571 0.000000
vn 0.359484 -0.933151 -0.000000
vn -0.339121 0.360288 0.869016
vn -0.339121 0.360288 -0.869016
vn -0.270907 0.392517 0.878942
vn -0.270907 0.392517 -0.878942
vn 0.436662 -0.899626 0.000000
vn -0.360380 -0.691443 0.626126
vn -0.360380 -0.691443 -0.626126
vn -0.381082 -0.557644 0.737434
vn -0.381082 -0.557644 -0.737434
vn -0.465158 0.273149 0.842032
vn -0.465158 0.273149 -0.842032
vn -0.408185 0.318030 0.855711
vn -0.408185 0.318030 -0.855711
vn 0.575588 0.314122 0.755001
vn 0.467867 0.400690 -0.787748
vn 0.445666 0.367330 0.816364
vn 0.437077 0.307172 -0.845345
vn -0.313255 0.063748 0.947527
vn -0.313255 0.063748 -0.947527
vn -0.382008 -0.383774 0.840707
vn -0.382008 -0.383774 -0.840707
vn -0.474743 0.269179 0.837951
vn -0.474743 0.269179 -0.837951
vn -0.105368 -0.780932 0.615664
vn -0.105368 -0.780932 -0.615664
vn -0.233841 -0.787299 0.570508
vn -0.233841 -0.787299 -0.570508
vn -0.367504 0.405680 0.836878
vn -0.367504 0.405680 -0.836878
vn 0.373284 -0.733358 0.568195
vn 0.373284 -0.733358 -0.568195
vn 0.648824 -0.760938 -0.000000
vn -0.198987 0.586435 0.785174
vn -0.198987 0.586435 -0.785174
vn -0.201562 -0.235895 -0.950645
vn 0.078903 0.444982 -0.892057
vn -0.203765 -0.325080 -0.923473
vn 0.012856 0.470367 -0.882378
vn -0.229544 0.094134 -0.968735
vn -0.163994 -0.418105 -0.893473
vn 0.023976 0.389730 -0.920617
vn -0.010002 0.362614 -0.931886
vn -0.085579 -0.431720 -0.897939
vn -0.055215 0.295160 -0.953851
vn -0.031861 -0.531228 -0.846629
vn 0.050702 -0.518412 -0.853626
vn -0.136969 0.284368 -0.948880
vn -0.000000 -0.000000 -1.000000
vn 0.192910 -0.922890 -0.333256
vn -0.152559 0.168407 -0.973840
vn 0.000000 0.000000 -1.000000
vn 0.300114 -0.903744 -0.305252
vn -0.236343 0.152943 -0.959558
vn 0.229069 -0.477912 -0.848014
vn -0.250440 0.134977 -0.958677
vn 0.224600 -0.413067 -0.882571
vn -0.187985 0.179508 -0.965629
vn 0.280457 -0.403509 -0.870933
vn -0.151196 0.197726 -0.968527
vn -0.222977 0.157309 -0.962048
vn 0.215296 -0.415361 -0.883811
vn -0.099896 0.215267 -0.971432
vn -0.000000 0.000000 -1.000000
vn 0.563164 -0.672747 -0.479852
vn -0.120113 0.209549 -0.970393
vn -0.000000 0.000000 -1.000000
vn 0.559262 -0.673838 -0.482876
vn 0.000000 0.000000 -1.000000
vn 0.552350 -0.678940 -0.483684
vn -0.080240 0.218225 -0.972594
vn -0.000000 0.000000 -1.000000
vn 0.550392 -0.680188 -0.484162
vn -0.034994 0.220771 -0.974698
vn -0.000000 0.000000 -1.000000
vn 0.551420 -0.679211 -0.484365
vn 0.051358 0.288944 -0.955967
vn 0.102289 0.206442 -0.973097
vn 0.000000 0.000000 -1.000000
vn 0.556755 -0.673641 -0.486036
vn 0.147946 0.193585 -0.969864
vn -0.000000 0.000000 -1.000000
vn 0.531363 -0.706303 -0.467750
vn 0.238927 0.207707 -0.948563
vn 0.000002 0.000000 1.000000
vn -0.000000 0.000000 -1.000000
vn 0.000002 0.000000 1.000000
vn 0.556810 -0.343294 -0.756381
vn 0.000002 0.000000 1.000000
vn 0.290176 0.333689 -0.896911
vn 0.420175 0.318133 -0.849850

usemtl Image Texture-1
f 1/1/1 2/2/2 3/3/3
f 4/4/4 3/3/3 2/2/2
f 5/5/5 2/2/2 1/1/1
f 6/6/6 7/7/7 4/4/4
f 3/3/3 4/4/4 7/7/7
f 7/7/7 6/6/6 8/8/8
f 6/6/6 9/9/9 8/8/8
f 8/8/8 9/9/9 10/10/10
f 9/9/9 11/11/11 10/10/10
f 12/12/12 10/10/10 13/13/13
f 10/10/10 11/11/11 13/13/13
f 12/12/12 14/14/14 15/15/16
f 13/13/13 14/14/14 12/12/12
f 15/15/16 16/16/17 17/17/19
f 14/14/14 16/16/17 15/15/16
f 17/17/19 18/18/20 19/19/21
f 16/16/17 18/18/20 17/17/19
f 20/20/22 21/21/23 22/22/24
f 23/23/25 21/21/23 20/20/22
f 24/24/26 19/19/21 25/25/27
f 18/18/20 25/25/27 19/19/21
f 20/20/22 24/24/26 23/23/25
f 25/25/27 23/23/25 24/24/26
f 26/26/28 27/27/30 28/28/32
f 27/27/30 29/29/33 28/28/32
f 28/28/32 22/22/24 26/26/28
f 21/21/23 26/26/28 22/22/24
f 29/29/33 30/30/34 31/31/36
f 27/27/30 30/30/34 29/29/33
f 32/32/37 33/33/38 34/34/39
f 33/33/38 35/35/41 34/34/39
f 33/33/38 31/31/36 35/35/41
f 30/30/34 35/35/41 31/31/36
f 32/32/37 34/34/39 36/36/43
f 34/34/39 37/37/44 36/36/43
f 36/36/43 37/37/44 38/38/46
f 37/37/44 39/39/47 38/38/46
f 38/38/46 39/39/47 40/40/49
f 39/39/47 41/41/50 40/40/49
f 42/42/51 43/43/52 41/41/50
f 43/43/52 40/40/49 41/41/50
f 44/44/53 45/45/55 33/33/38
f 45/45/55 31/31/36 33/33/38
f 45/45/55 46/46/57 31/31/36
f 46/46/57 29/29/33 31/31/36
f 40/40/49 47/47/59 38/38/46
f 47/47/59 48/48/61 38/38/46
f 14/14/15 13/13/13 49/49/63
f 50/50/64 49/49/63 13/13/13
f 51/51/65 39/39/48 52/52/66
f 39/39/48 37/37/45 52/52/66
f 38/38/46 48/48/61 36/36/43
f 48/48/61 53/53/67 36/36/43
f 54/54/69 8/8/8 10/10/10
f 55/55/71 8/8/8 54/54/69
f 56/56/73 57/57/74 21/21/23
f 57/57/74 26/26/29 21/21/23
f 35/35/42 30/30/35 58/58/75
f 59/59/76 58/58/75 30/30/35
f 28/28/32 29/29/33 60/60/77
f 29/29/33 46/46/57 60/60/77
f 35/35/42 58/58/75 34/34/40
f 61/61/79 34/34/40 58/58/75
f 3/3/3 62/62/80 1/1/1
f 63/63/82 1/1/1 62/62/80
f 16/16/18 14/14/15 64/64/84
f 49/49/63 64/64/84 14/14/15
f 65/65/85 44/44/53 32/32/37
f 33/33/38 32/32/37 44/44/53
f 66/66/87 3/3/3 7/7/7
f 62/62/80 3/3/3 66/66/87
f 67/67/89 41/41/50 51/51/65
f 41/41/50 39/39/48 51/51/65
f 64/64/84 68/68/90 16/16/18
f 68/68/90 18/18/20 16/16/18
f 52/52/66 37/37/45 61/61/79
f 37/37/45 34/34/40 61/61/79
f 20/20/22 22/22/24 69/69/91
f 22/22/24 70/70/93 69/69/91
f 25/25/27 18/18/20 71/71/95
f 68/68/90 71/71/95 18/18/20
f 6/6/6 4/4/4 72/72/96
f 73/73/98 72/72/96 4/4/4
f 74/74/100 24/24/26 75/75/102
f 19/19/21 24/24/26 74/74/100
f 76/76/104 42/42/51 67/67/89
f 41/41/50 67/67/89 42/42/51
f 77/77/106 43/43/52 76/76/104
f 42/42/51 76/76/104 43/43/52
f 47/47/59 40/40/49 77/77/106
f 43/43/52 77/77/106 40/40/49
f 78/78/108 5/5/5 63/63/82
f 5/5/5 1/1/1 63/63/82
f 78/78/108 79/79/110 5/5/5
f 2/2/2 5/5/5 79/79/110
f 74/74/100 80/80/112 19/19/21
f 17/17/19 19/19/21 80/80/112
f 36/36/43 53/53/67 32/32/37
f 53/53/67 65/65/85 32/32/37
f 11/11/11 9/9/9 81/81/114
f 82/82/116 81/81/114 9/9/9
f 80/80/112 83/83/118 17/17/19
f 15/15/16 17/17/19 83/83/118
f 13/13/13 11/11/11 50/50/64
f 81/81/114 50/50/64 11/11/11
f 23/23/25 56/56/73 21/21/23
f 84/84/120 56/56/73 23/23/25
f 26/26/29 85/85/122 27/27/31
f 57/57/74 85/85/122 26/26/29
f 71/71/95 84/84/120 25/25/27
f 84/84/120 23/23/25 25/25/27
f 83/83/118 12/12/12 15/15/16
f 86/86/123 12/12/12 83/83/118
f 60/60/77 70/70/93 28/28/32
f 70/70/93 22/22/24 28/28/32
f 86/86/123 10/10/10 12/12/12
f 54/54/69 10/10/10 86/86/123
f 55/55/71 7/7/7 8/8/8
f 66/66/87 7/7/7 55/55/71
f 2/2/2 73/73/98 4/4/4
f 79/79/110 73/73/98 2/2/2
f 75/75/102 20/20/22 69/69/91
f 24/24/26 20/20/22 75/75/102
f 9/9/9 6/6/6 82/82/116
f 72/72/96 82/82/116 6/6/6
f 85/85/122 59/59/76 27/27/31
f 59/59/76 30/30/35 27/27/31
f 87/2/125 88/3/126 89/4/127
f 90/1/128 88/3/126 87/2/125
f 91/5/129 90/1/128 87/2/125
f 92/6/130 89/4/127 93/7/131
f 88/3/126 93/7/131 89/4/127
f 92/6/130 94/8/132 95/9/133
f 93/7/131 94/8/132 92/6/130
f 95/9/133 96/10/134 97/11/135
f 94/8/132 96/10/134 95/9/133
f 97/11/135 96/10/134 98/13/136
f 96/10/134 99/12/137 98/13/136
f 98/13/136 99/12/137 100/14/138
f 99/12/137 101/15/140 100/14/138
f 100/14/138 101/15/140 102/16/141
f 101/15/140 103/17/143 102/16/141
f 102/16/141 103/17/143 104/18/144
f 103/17/143 105/19/145 104/18/144
f 106/23/146 107/20/147 108/21/148
f 107/20/147 109/22/149 108/21/148
f 110/24/150 111/25/151 105/19/145
f 111/25/151 104/18/144 105/19/145
f 107/20/147 106/23/146 110/24/150
f 106/23/146 111/25/151 110/24/150
f 112/29/152 113/27/153 114/28/155
f 113/27/153 115/26/156 114/28/155
f 114/28/155 115/26/156 109/22/149
f 115/26/156 108/21/148 109/22/149
f 113/27/153 112/29/152 116/30/158
f 112/29/152 117/31/160 116/30/158
f 118/35/161 119/33/163 120/34/164
f 119/33/163 121/32/166 120/34/164
f 119/33/163 118/35/161 117/31/160
f 118/35/161 116/30/158 117/31/160
f 120/34/164 122/36/167 123/37/168
f 121/32/166 122/36/167 120/34/164
f 123/37/168 124/38/170 125/39/171
f 122/36/167 124/38/170 123/37/168
f 125/39/171 126/40/173 127/41/175
f 124/38/170 126/40/173 125/39/171
f 126/40/174 128/87/178 127/41/176
f 128/87/179 129/42/180 127/41/177
f 44/44/54 119/33/163 45/45/56
f 119/33/163 117/31/160 45/45/56
f 45/45/56 117/31/160 46/46/58
f 117/31/160 112/29/152 46/46/58
f 126/40/173 124/38/170 47/47/60
f 124/38/170 48/48/62 47/47/60
f 100/14/139 49/49/63 98/13/136
f 50/50/64 98/13/136 49/49/63
f 123/37/169 125/39/172 52/52/66
f 125/39/172 51/51/65 52/52/66
f 124/38/170 122/36/167 48/48/62
f 122/36/167 53/53/68 48/48/62
f 96/10/134 94/8/132 54/54/70
f 55/55/72 54/54/70 94/8/132
f 56/56/73 108/21/148 57/57/74
f 108/21/148 115/26/157 57/57/74
f 59/59/76 116/30/159 58/58/75
f 116/30/159 118/35/162 58/58/75
f 46/46/58 112/29/152 60/60/78
f 112/29/152 114/28/155 60/60/78
f 118/35/162 120/34/165 58/58/75
f 120/34/165 61/61/79 58/58/75
f 88/3/126 90/1/128 62/62/81
f 63/63/83 62/62/81 90/1/128
f 102/16/142 64/64/84 100/14/139
f 49/49/63 100/14/139 64/64/84
f 121/32/166 44/44/54 65/65/86
f 119/33/163 44/44/54 121/32/166
f 93/7/131 88/3/126 66/66/88
f 62/62/81 66/66/88 88/3/126
f 125/39/172 127/41/177 51/51/65
f 127/41/177 67/67/89 51/51/65
f 102/16/142 68/68/90 64/64/84
f 104/18/144 68/68/90 102/16/142
f 120/34/165 123/37/169 61/61/79
f 123/37/169 52/52/66 61/61/79
f 70/70/94 109/22/149 69/69/92
f 109/22/149 107/20/147 69/69/92
f 111/25/151 71/71/95 104/18/144
f 68/68/90 104/18/144 71/71/95
f 92/6/130 72/72/97 89/4/127
f 73/73/99 89/4/127 72/72/97
f 110/24/150 74/74/101 75/75/103
f 105/19/145 74/74/101 110/24/150
f 127/41/177 129/42/180 67/67/89
f 129/42/180 76/76/105 67/67/89
f 129/42/180 128/87/179 76/76/105
f 128/87/179 77/77/107 76/76/105
f 128/87/179 126/40/173 77/77/107
f 126/40/173 47/47/60 77/77/107
f 90/1/128 91/5/129 63/63/83
f 78/78/109 63/63/83 91/5/129
f 91/5/129 79/79/111 78/78/109
f 87/2/125 79/79/111 91/5/129
f 105/19/145 80/80/113 74/74/101
f 103/17/143 80/80/113 105/19/145
f 122/36/167 121/32/166 53/53/68
f 121/32/166 65/65/86 53/53/68
f 97/11/135 81/81/115 95/9/133
f 82/82/117 95/9/133 81/81/115
f 103/17/143 83/83/119 80/80/113
f 101/15/140 83/83/119 103/17/143
f 98/13/136 50/50/64 97/11/135
f 81/81/115 97/11/135 50/50/64
f 108/21/148 56/56/73 106/23/146
f 84/84/121 106/23/146 56/56/73
f 57/57/74 115/26/157 85/85/122
f 115/26/157 113/27/154 85/85/122
f 106/23/146 84/84/121 111/25/151
f 71/71/95 111/25/151 84/84/121
f 101/15/140 99/12/137 83/83/119
f 86/86/124 83/83/119 99/12/137
f 60/60/78 114/28/155 70/70/94
f 114/28/155 109/22/149 70/70/94
f 99/12/137 96/10/134 86/86/124
f 54/54/70 86/86/124 96/10/134
f 94/8/132 93/7/131 55/55/72
f 66/66/88 55/55/72 93/7/131
f 89/4/127 73/73/99 87/2/125
f 79/79/111 87/2/125 73/73/99
f 107/20/147 75/75/103 69/69/92
f 110/24/150 75/75/103 107/20/147
f 95/9/133 82/82/117 92/6/130
f 72/72/97 92/6/130 82/82/117
f 85/85/122 113/27/154 59/59/76
f 113/27/154 116/30/159 59/59/76

# End of File
