# Obj file Generated by Strata 3D CX(TM): http://www.strata.com
mtllib 1.mtl
v 180.414169 -23.250168 99.379196
v 26.096779 -23.250168 99.379196
v 180.414169 -23.250168 33.034382
v 26.096779 -23.250168 -54.938179
v 180.414169 -5.109619 99.379196
v 180.414169 -5.109619 33.034382
v 26.096779 24.114357 99.379196
v 26.096779 24.114357 -54.938179

vt 0.999496 0.999498
vt 0.000509 0.999498
vt 0.999496 0.570010
vt 0.000504 0.000507
vt 0.000504 0.570010
vt 0.999496 0.000507
vt 0.999491 0.616883
vt 0.999496 0.383112
vt 0.383114 0.570010
vt 0.383114 0.999498

vn 0.000000 -1.000000 0.000000
vn 0.000000 0.000000 1.000000
vn 1.000000 0.000000 0.000000
vn 0.000000 -1.000000 0.000000
vn 0.000000 0.000000 1.000000
vn -1.000000 0.000000 0.000000
vn 0.000000 -1.000000 0.000000
vn 0.495253 0.000000 -0.868749
vn 1.000000 0.000000 0.000000
vn 0.000000 -1.000000 0.000000
vn 0.495253 0.000000 -0.868749
vn -1.000000 0.000000 0.000000
vn 0.186069 0.982537 0.000000
vn 0.000000 0.000000 1.000000
vn 1.000000 0.000000 0.000000
vn 0.186069 0.982537 0.000000
vn 0.495253 0.000000 -0.868749
vn 1.000000 0.000000 0.000000
vn 0.186069 0.982537 0.000000
vn 0.000000 0.000000 1.000000
vn -1.000000 0.000000 0.000000
vn 0.186069 0.982537 0.000000
vn 0.495253 0.000000 -0.868749
vn -1.000000 0.000000 0.000000

usemtl Image Texture-1
f 1/1/1 2/2/4 3/3/7
f 4/4/10 3/3/7 2/2/4
f 5/2/13 6/5/16 7/1/19
f 8/6/22 7/1/19 6/5/16
f 6/7/17 4/2/11 8/4/23
f 3/1/8 4/2/11 6/7/17
f 1/6/2 5/8/14 2/4/5
f 5/8/14 7/2/20 2/4/5
f 1/2/3 6/9/18 5/10/15
f 3/5/9 6/9/18 1/2/3
f 4/6/12 2/1/6 8/4/24
f 2/1/6 7/2/21 8/4/24
v -180.414154 -23.250168 99.379196
v -180.414154 -23.250168 33.034382
v -26.096783 -23.250168 99.379196
v -26.096783 -23.250168 -54.938179
v -180.414154 -5.109619 99.379196
v -26.096783 24.114357 99.379196
v -180.414154 -5.109619 33.034382
v -26.096783 24.114357 -54.938179

vt 0.000504 0.999498
vt 0.000504 0.570010
vt 0.999490 0.999498
vt 0.999496 0.000507
vt 0.999496 0.570010
vt 0.000504 0.000507
vt 0.000504 0.616888
vt 0.000509 0.383117
vt 0.616886 0.999496
vt 0.616886 0.570008

vn 0.000000 -1.000000 0.000000
vn 0.000000 0.000000 1.000000
vn -1.000000 0.000000 0.000000
vn 0.000000 -1.000000 0.000000
vn -0.495253 0.000000 -0.868749
vn -1.000000 0.000000 0.000000
vn 0.000000 -1.000000 0.000000
vn -0.000000 0.000000 1.000000
vn 1.000000 0.000000 0.000000
vn 0.000000 -1.000000 0.000000
vn -0.495253 0.000000 -0.868749
vn 1.000000 0.000000 0.000000
vn -0.186069 0.982537 0.000000
vn -0.000000 0.000000 1.000000
vn -1.000000 0.000000 0.000000
vn -0.186069 0.982537 0.000000
vn -0.000000 0.000000 1.000000
vn 1.000000 0.000000 0.000000
vn -0.186069 0.982537 0.000000
vn -0.495253 0.000000 -0.868749
vn -1.000000 0.000000 0.000000
vn -0.186069 0.982537 0.000000
vn -0.495253 0.000000 -0.868749
vn 1.000000 0.000000 0.000000

usemtl Image Texture-1
f 9/11/25 10/12/28 11/13/31
f 12/14/34 11/13/31 10/12/28
f 13/13/37 14/11/40 15/15/43
f 16/16/46 15/15/43 14/11/40
f 10/11/29 15/17/44 12/13/35
f 15/17/44 16/14/47 12/13/35
f 14/13/41 13/18/38 11/14/32
f 13/18/38 9/16/26 11/14/32
f 10/15/30 13/19/39 15/20/45
f 9/13/27 13/19/39 10/15/30
f 11/11/33 16/14/48 14/13/42
f 12/16/36 16/14/48 11/11/33

# End of File
