# Obj file Generated by Strata 3D CX(TM): http://www.strata.com
mtllib 3.mtl
v -0.000000 -0.000000 -61.471935
v 24.339615 10.081800 -56.231590
v 26.345011 -0.000000 -56.231590
v 18.628735 18.628735 -56.231590
v 10.081800 24.339615 -56.231590
v 0.000000 26.345011 -56.231590
v -10.081800 24.339615 -56.231590
v -18.628735 18.628735 -56.231590
v -24.339615 10.081800 -56.231590
v -26.345011 -0.000000 -56.231590
v -24.339615 -10.081800 -56.231590
v -18.628735 -18.628735 -56.231590
v -10.081800 -24.339615 -56.231590
v -0.000000 -26.345011 -56.231590
v 10.081800 -24.339615 -56.231590
v 18.628735 -18.628735 -56.231590
v 24.339615 -10.081800 -56.231590
v -0.000000 -0.000000 76.213722
v 26.345011 -0.000000 70.973373
v 24.339615 10.081800 70.973373
v 18.628735 18.628735 70.973373
v 10.081800 24.339615 70.973373
v 0.000000 26.345011 70.973373
v -10.081800 24.339615 70.973373
v -18.628735 18.628735 70.973373
v -24.339615 10.081800 70.973373
v -26.345011 -0.000000 70.973373
v -24.339615 -10.081800 70.973373
v -18.628735 -18.628735 70.973373
v -10.081800 -24.339615 70.973373
v -0.000000 -26.345011 70.973373
v 10.081800 -24.339615 70.973373
v 18.628735 -18.628735 70.973373
v 24.339615 -10.081800 70.973373
v 44.973743 18.628735 -41.308334
v 48.679230 -0.000000 -41.308334
v 34.421413 34.421413 -41.308334
v 18.628735 44.973743 -41.308334
v 0.000000 48.679230 -41.308334
v -18.628735 44.973743 -41.308334
v -34.421413 34.421413 -41.308334
v -44.973743 18.628735 -41.308334
v -48.679230 -0.000000 -41.308334
v -44.973743 -18.628735 -41.308334
v -34.421413 -34.421413 -41.308334
v -18.628735 -44.973743 -41.308334
v -0.000000 -48.679230 -41.308334
v 18.628735 -44.973743 -41.308334
v 34.421413 -34.421413 -41.308334
v 44.973743 -18.628735 -41.308334
v 58.761032 24.339615 -18.974115
v 63.602478 -0.000000 -18.974115
v 44.973743 44.973743 -18.974115
v 24.339615 58.761032 -18.974115
v 0.000000 63.602478 -18.974115
v -24.339615 58.761032 -18.974115
v -44.973743 44.973743 -18.974115
v -58.761032 24.339615 -18.974115
v -63.602478 0.000000 -18.974115
v -58.761032 -24.339615 -18.974115
v -44.973743 -44.973743 -18.974115
v -24.339615 -58.761032 -18.974115
v -0.000000 -63.602478 -18.974115
v 24.339615 -58.761032 -18.974115
v 44.973743 -44.973743 -18.974115
v 58.761032 -24.339615 -18.974115
v 63.602478 26.345011 7.370894
v 68.842827 -0.000000 7.370894
v 48.679230 48.679230 7.370894
v 26.345011 63.602478 7.370894
v 0.000000 68.842827 7.370894
v -26.345011 63.602478 7.370894
v -48.679230 48.679230 7.370894
v -63.602478 26.345011 7.370894
v -68.842827 0.000000 7.370894
v -63.602478 -26.345011 7.370894
v -48.679230 -48.679230 7.370894
v -26.345011 -63.602478 7.370894
v -0.000000 -68.842827 7.370894
v 26.345011 -63.602478 7.370894
v 48.679230 -48.679230 7.370894
v 63.602478 -26.345011 7.370894
v 58.761032 24.339615 33.715904
v 63.602478 -0.000000 33.715904
v 44.973743 44.973743 33.715904
v 24.339615 58.761032 33.715904
v 0.000000 63.602478 33.715904
v -24.339615 58.761032 33.715904
v -44.973743 44.973743 33.715904
v -58.761032 24.339615 33.715904
v -63.602478 0.000000 33.715904
v -58.761032 -24.339615 33.715904
v -44.973743 -44.973743 33.715904
v -24.339615 -58.761032 33.715904
v -0.000000 -63.602478 33.715904
v 24.339615 -58.761032 33.715904
v 44.973743 -44.973743 33.715904
v 58.761032 -24.339615 33.715904
v 44.973743 18.628735 56.050125
v 48.679230 -0.000000 56.050125
v 34.421413 34.421413 56.050125
v 18.628735 44.973743 56.050125
v 0.000000 48.679230 56.050125
v -18.628735 44.973743 56.050125
v -34.421413 34.421413 56.050125
v -44.973743 18.628735 56.050125
v -48.679230 0.000000 56.050125
v -44.973743 -18.628735 56.050125
v -34.421413 -34.421413 56.050125
v -18.628735 -44.973743 56.050125
v -0.000000 -48.679230 56.050125
v 18.628735 -44.973743 56.050125
v 34.421413 -34.421413 56.050125
v 44.973743 -18.628735 56.050125

vt 0.240605 0.000000
vt 0.562500 0.125000
vt 0.500000 0.125000
vt 0.625000 0.125000
vt 0.687500 0.125000
vt 0.750000 0.125000
vt 0.812500 0.125000
vt 0.875000 0.125000
vt 0.937500 0.125000
vt 0.000000 0.125000
vt 0.062500 0.125000
vt 0.125000 0.125000
vt 0.187500 0.125000
vt 0.250000 0.125000
vt 0.312500 0.125000
vt 0.375000 0.125000
vt 0.437500 0.125000
vt 0.243364 1.000000
vt 0.500000 0.875000
vt 0.562500 0.875000
vt 0.625000 0.875000
vt 0.687500 0.875000
vt 0.750000 0.875000
vt 0.812500 0.875000
vt 0.875000 0.875000
vt 0.937500 0.875000
vt 0.000000 0.875000
vt 0.062500 0.875000
vt 0.125000 0.875000
vt 0.187500 0.875000
vt 0.250000 0.875000
vt 0.312500 0.875000
vt 0.375000 0.875000
vt 0.437500 0.875000
vt 0.562500 0.250000
vt 0.500000 0.250000
vt 0.625000 0.250000
vt 0.687500 0.250000
vt 0.750000 0.250000
vt 0.812500 0.250000
vt 0.875000 0.250000
vt 0.937500 0.250000
vt 0.000000 0.250000
vt 0.062500 0.250000
vt 0.125000 0.250000
vt 0.187500 0.250000
vt 0.250000 0.250000
vt 0.312500 0.250000
vt 0.375000 0.250000
vt 0.437500 0.250000
vt 0.562500 0.375000
vt 0.500000 0.375000
vt 0.625000 0.375000
vt 0.687500 0.375000
vt 0.750000 0.375000
vt 0.812500 0.375000
vt 0.875000 0.375000
vt 0.937500 0.375000
vt 1.000000 0.375000
vt 0.062500 0.375000
vt 0.125000 0.375000
vt 0.187500 0.375000
vt 0.250000 0.375000
vt 0.312500 0.375000
vt 0.375000 0.375000
vt 0.437500 0.375000
vt 0.562500 0.500000
vt 0.500000 0.500000
vt 0.625000 0.500000
vt 0.687500 0.500000
vt 0.750000 0.500000
vt 0.812500 0.500000
vt 0.875000 0.500000
vt 0.937500 0.500000
vt 1.000000 0.500000
vt 0.062500 0.500000
vt 0.125000 0.500000
vt 0.187500 0.500000
vt 0.250000 0.500000
vt 0.312500 0.500000
vt 0.375000 0.500000
vt 0.437500 0.500000
vt 0.562500 0.625000
vt 0.500000 0.625000
vt 0.625000 0.625000
vt 0.687500 0.625000
vt 0.750000 0.625000
vt 0.812500 0.625000
vt 0.875000 0.625000
vt 0.937500 0.625000
vt 1.000000 0.625000
vt 0.062500 0.625000
vt 0.125000 0.625000
vt 0.187500 0.625000
vt 0.250000 0.625000
vt 0.312500 0.625000
vt 0.375000 0.625000
vt 0.437500 0.625000
vt 0.562500 0.750000
vt 0.500000 0.750000
vt 0.625000 0.750000
vt 0.687500 0.750000
vt 0.750000 0.750000
vt 0.812500 0.750000
vt 0.875000 0.750000
vt 0.937500 0.750000
vt 1.000000 0.750000
vt 0.062500 0.750000
vt 0.125000 0.750000
vt 0.187500 0.750000
vt 0.250000 0.750000
vt 0.312500 0.750000
vt 0.375000 0.750000
vt 0.437500 0.750000

vn -0.000000 0.000000 -1.000000
vn 0.353102 0.146260 -0.924082
vn 0.418540 0.022464 -0.907920
vn 0.312929 0.312929 -0.896745
vn 0.139414 0.395277 -0.907920
vn 0.000000 0.382195 -0.924082
vn -0.139414 0.395277 -0.907920
vn -0.312929 0.312929 -0.896745
vn -0.395277 0.139414 -0.907920
vn -0.382195 0.000000 -0.924082
vn -0.395277 -0.139414 -0.907920
vn -0.312929 -0.312929 -0.896745
vn -0.139414 -0.395277 -0.907920
vn 0.022464 -0.418540 -0.907920
vn 0.146260 -0.353102 -0.924082
vn 0.312929 -0.312929 -0.896745
vn 0.395277 -0.139414 -0.907920
vn 0.000000 0.000000 1.000000
vn 0.382195 0.000000 0.924082
vn 0.395277 0.139414 0.907921
vn 0.312929 0.312929 0.896745
vn 0.139414 0.395277 0.907920
vn 0.000000 0.382195 0.924082
vn -0.139414 0.395277 0.907920
vn -0.312929 0.312929 0.896745
vn -0.395277 0.139414 0.907921
vn -0.382195 0.000000 0.924082
vn -0.395277 -0.139414 0.907921
vn -0.312929 -0.312929 0.896745
vn -0.139414 -0.395277 0.907920
vn 0.022464 -0.418540 0.907921
vn 0.146260 -0.353102 0.924082
vn 0.312929 -0.312929 0.896745
vn 0.395277 -0.139414 0.907921
vn 0.642968 0.240380 -0.727193
vn 0.677747 -0.022578 -0.734948
vn 0.531679 0.531679 -0.659268
vn 0.261932 0.656274 -0.707599
vn 0.000000 0.658285 -0.752769
vn -0.261932 0.656274 -0.707599
vn -0.531679 0.531679 -0.659268
vn -0.656274 0.261932 -0.707599
vn -0.658285 -0.000000 -0.752769
vn -0.656274 -0.261932 -0.707599
vn -0.531679 -0.531679 -0.659268
vn -0.261932 -0.656274 -0.707599
vn 0.009151 -0.706555 -0.707599
vn 0.251915 -0.608176 -0.752769
vn 0.531679 -0.531679 -0.659268
vn 0.656274 -0.261932 -0.707599
vn 0.825240 0.378356 -0.419316
vn 0.912065 0.028309 -0.409068
vn 0.669649 0.669649 -0.321155
vn 0.378356 0.825240 -0.419315
vn 0.028309 0.912065 -0.409068
vn -0.379704 0.853594 -0.356654
vn -0.690908 0.634851 -0.345848
vn -0.855232 0.348958 -0.383155
vn -0.896335 0.000000 -0.443377
vn -0.853594 -0.379704 -0.356654
vn -0.634851 -0.690908 -0.345848
vn -0.348957 -0.855232 -0.383155
vn 0.004888 -0.923671 -0.383155
vn 0.375186 -0.831805 -0.409068
vn 0.653142 -0.653142 -0.383160
vn 0.853594 -0.379704 -0.356654
vn 0.923880 0.382684 0.000000
vn 0.997809 -0.066159 0.000000
vn 0.677904 0.734076 0.039720
vn 0.356143 0.934000 -0.028393
vn -0.066159 0.997809 0.000000
vn -0.418775 0.907221 0.039720
vn -0.677904 0.734076 -0.039720
vn -0.912269 0.408607 0.028393
vn -0.999194 -0.028393 -0.028393
vn -0.907221 -0.418775 0.039720
vn -0.734076 -0.677904 -0.039720
vn -0.408607 -0.912269 0.028393
vn -0.039720 -0.998421 -0.039720
vn 0.356143 -0.934000 0.028393
vn 0.726614 -0.686460 -0.028393
vn 0.923880 -0.382683 0.000000
vn 0.825240 0.378356 0.419315
vn 0.912065 0.028309 0.409068
vn 0.690908 0.634851 0.345848
vn 0.409293 0.828382 0.382443
vn 0.028309 0.912065 0.409068
vn -0.348957 0.855232 0.383155
vn -0.669649 0.669649 0.321155
vn -0.825240 0.378356 0.419315
vn -0.912065 0.028309 0.409068
vn -0.855232 -0.348958 0.383155
vn -0.669649 -0.669649 0.321155
vn -0.378356 -0.825240 0.419316
vn -0.024145 -0.933924 0.356654
vn 0.343013 -0.828106 0.443377
vn 0.634851 -0.690908 0.345848
vn 0.853594 -0.379704 0.356654
vn 0.656274 0.261932 0.707599
vn 0.658285 0.000000 0.752769
vn 0.531679 0.531679 0.659268
vn 0.261932 0.656274 0.707599
vn 0.000000 0.658285 0.752769
vn -0.261932 0.656274 0.707599
vn -0.531679 0.531679 0.659268
vn -0.656274 0.261932 0.707599
vn -0.658285 0.000000 0.752769
vn -0.656274 -0.261932 0.707599
vn -0.531679 -0.531679 0.659268
vn -0.261932 -0.656274 0.707599
vn 0.009151 -0.706555 0.707599
vn 0.251915 -0.608176 0.752769
vn 0.531679 -0.531679 0.659268
vn 0.656274 -0.261932 0.707599

usemtl Image Texture-8
f 1/1/1 2/2/2 3/3/3
f 1/1/1 4/4/4 2/2/2
f 1/1/1 5/5/5 4/4/4
f 1/1/1 6/6/6 5/5/5
f 1/1/1 7/7/7 6/6/6
f 1/1/1 8/8/8 7/7/7
f 1/1/1 9/9/9 8/8/8
f 1/1/1 10/10/10 9/9/9
f 1/1/1 11/11/11 10/10/10
f 1/1/1 12/12/12 11/11/11
f 1/1/1 13/13/13 12/12/12
f 1/1/1 14/14/14 13/13/13
f 1/1/1 15/15/15 14/14/14
f 1/1/1 16/16/16 15/15/15
f 1/1/1 17/17/17 16/16/16
f 1/1/1 3/3/3 17/17/17
f 18/18/18 19/19/19 20/20/20
f 18/18/18 20/20/20 21/21/21
f 18/18/18 21/21/21 22/22/22
f 18/18/18 22/22/22 23/23/23
f 18/18/18 23/23/23 24/24/24
f 18/18/18 24/24/24 25/25/25
f 18/18/18 25/25/25 26/26/26
f 18/18/18 26/26/26 27/27/27
f 18/18/18 27/27/27 28/28/28
f 18/18/18 28/28/28 29/29/29
f 18/18/18 29/29/29 30/30/30
f 18/18/18 30/30/30 31/31/31
f 18/18/18 31/31/31 32/32/32
f 18/18/18 32/32/32 33/33/33
f 18/18/18 33/33/33 34/34/34
f 18/18/18 34/34/34 19/19/19
f 35/35/35 3/3/3 2/2/2
f 36/36/36 3/3/3 35/35/35
f 37/37/37 35/35/35 4/4/4
f 2/2/2 4/4/4 35/35/35
f 37/37/37 4/4/4 38/38/38
f 5/5/5 38/38/38 4/4/4
f 38/38/38 5/5/5 39/39/39
f 6/6/6 39/39/39 5/5/5
f 40/40/40 39/39/39 7/7/7
f 39/39/39 6/6/6 7/7/7
f 41/41/41 40/40/40 8/8/8
f 40/40/40 7/7/7 8/8/8
f 41/41/41 8/8/8 42/42/42
f 9/9/9 42/42/42 8/8/8
f 42/42/42 9/9/9 43/43/43
f 10/10/10 43/43/43 9/9/9
f 44/44/44 43/43/43 11/11/11
f 43/43/43 10/10/10 11/11/11
f 45/45/45 44/44/44 12/12/12
f 44/44/44 11/11/11 12/12/12
f 46/46/46 12/12/12 13/13/13
f 45/45/45 12/12/12 46/46/46
f 47/47/47 13/13/13 14/14/14
f 46/46/46 13/13/13 47/47/47
f 48/48/48 14/14/14 15/15/15
f 47/47/47 14/14/14 48/48/48
f 49/49/49 48/48/48 16/16/16
f 15/15/15 16/16/16 48/48/48
f 50/50/50 16/16/16 17/17/17
f 49/49/49 16/16/16 50/50/50
f 36/36/36 17/17/17 3/3/3
f 50/50/50 17/17/17 36/36/36
f 51/51/51 52/52/52 35/35/35
f 36/36/36 35/35/35 52/52/52
f 53/53/53 51/51/51 37/37/37
f 35/35/35 37/37/37 51/51/51
f 53/53/53 37/37/37 54/54/54
f 38/38/38 54/54/54 37/37/37
f 54/54/54 38/38/38 55/55/55
f 39/39/39 55/55/55 38/38/38
f 56/56/56 55/55/55 40/40/40
f 55/55/55 39/39/39 40/40/40
f 57/57/57 56/56/56 41/41/41
f 56/56/56 40/40/40 41/41/41
f 57/57/57 41/41/41 58/58/58
f 42/42/42 58/58/58 41/41/41
f 58/58/58 42/42/42 59/59/59
f 43/43/43 59/59/59 42/42/42
f 60/60/60 59/59/59 44/44/44
f 59/59/59 43/43/43 44/44/44
f 61/61/61 60/60/60 45/45/45
f 60/60/60 44/44/44 45/45/45
f 62/62/62 45/45/45 46/46/46
f 61/61/61 45/45/45 62/62/62
f 63/63/63 46/46/46 47/47/47
f 62/62/62 46/46/46 63/63/63
f 64/64/64 47/47/47 48/48/48
f 63/63/63 47/47/47 64/64/64
f 65/65/65 64/64/64 49/49/49
f 48/48/48 49/49/49 64/64/64
f 66/66/66 49/49/49 50/50/50
f 65/65/65 49/49/49 66/66/66
f 52/52/52 50/50/50 36/36/36
f 66/66/66 50/50/50 52/52/52
f 67/67/67 52/52/52 51/51/51
f 68/68/68 52/52/52 67/67/67
f 69/69/69 67/67/67 53/53/53
f 51/51/51 53/53/53 67/67/67
f 69/69/69 53/53/53 70/70/70
f 54/54/54 70/70/70 53/53/53
f 71/71/71 70/70/70 55/55/55
f 70/70/70 54/54/54 55/55/55
f 72/72/72 71/71/71 56/56/56
f 71/71/71 55/55/55 56/56/56
f 72/72/72 56/56/56 73/73/73
f 57/57/57 73/73/73 56/56/56
f 73/73/73 57/57/57 74/74/74
f 58/58/58 74/74/74 57/57/57
f 74/74/74 58/58/58 75/75/75
f 59/59/59 75/75/75 58/58/58
f 76/76/76 75/75/75 60/60/60
f 75/75/75 59/59/59 60/60/60
f 76/76/76 60/60/60 77/77/77
f 61/61/61 77/77/77 60/60/60
f 77/77/77 61/61/61 78/78/78
f 62/62/62 78/78/78 61/61/61
f 78/78/78 62/62/62 79/79/79
f 63/63/63 79/79/79 62/62/62
f 79/79/79 63/63/63 80/80/80
f 64/64/64 80/80/80 63/63/63
f 80/80/80 64/64/64 81/81/81
f 65/65/65 81/81/81 64/64/64
f 82/82/82 81/81/81 66/66/66
f 65/65/65 66/66/66 81/81/81
f 68/68/68 66/66/66 52/52/52
f 82/82/82 66/66/66 68/68/68
f 83/83/83 84/84/84 67/67/67
f 68/68/68 67/67/67 84/84/84
f 83/83/83 67/67/67 85/85/85
f 69/69/69 85/85/85 67/67/67
f 85/85/85 69/69/69 86/86/86
f 70/70/70 86/86/86 69/69/69
f 86/86/86 70/70/70 87/87/87
f 71/71/71 87/87/87 70/70/70
f 87/87/87 71/71/71 88/88/88
f 72/72/72 88/88/88 71/71/71
f 88/88/88 72/72/72 89/89/89
f 73/73/73 89/89/89 72/72/72
f 90/90/90 89/89/89 74/74/74
f 73/73/73 74/74/74 89/89/89
f 90/90/90 74/74/74 91/91/91
f 75/75/75 91/91/91 74/74/74
f 91/91/91 75/75/75 92/92/92
f 76/76/76 92/92/92 75/75/75
f 92/92/92 76/76/76 93/93/93
f 77/77/77 93/93/93 76/76/76
f 94/94/94 93/93/93 78/78/78
f 77/77/77 78/78/78 93/93/93
f 94/94/94 78/78/78 95/95/95
f 79/79/79 95/95/95 78/78/78
f 96/96/96 95/95/95 80/80/80
f 79/79/79 80/80/80 95/95/95
f 96/96/96 80/80/80 97/97/97
f 81/81/81 97/97/97 80/80/80
f 97/97/97 81/81/81 98/98/98
f 82/82/82 98/98/98 81/81/81
f 84/84/84 98/98/98 68/68/68
f 82/82/82 68/68/68 98/98/98
f 99/99/99 84/84/84 83/83/83
f 100/100/100 84/84/84 99/99/99
f 101/101/101 83/83/83 85/85/85
f 99/99/99 83/83/83 101/101/101
f 102/102/102 101/101/101 86/86/86
f 101/101/101 85/85/85 86/86/86
f 103/103/103 102/102/102 87/87/87
f 102/102/102 86/86/86 87/87/87
f 103/103/103 87/87/87 104/104/104
f 88/88/88 104/104/104 87/87/87
f 104/104/104 88/88/88 105/105/105
f 89/89/89 105/105/105 88/88/88
f 106/106/106 105/105/105 90/90/90
f 105/105/105 89/89/89 90/90/90
f 107/107/107 106/106/106 91/91/91
f 106/106/106 90/90/90 91/91/91
f 107/107/107 91/91/91 108/108/108
f 92/92/92 108/108/108 91/91/91
f 108/108/108 92/92/92 109/109/109
f 93/93/93 109/109/109 92/92/92
f 110/110/110 109/109/109 94/94/94
f 93/93/93 94/94/94 109/109/109
f 111/111/111 110/110/110 95/95/95
f 94/94/94 95/95/95 110/110/110
f 112/112/112 111/111/111 96/96/96
f 95/95/95 96/96/96 111/111/111
f 113/113/113 96/96/96 97/97/97
f 112/112/112 96/96/96 113/113/113
f 114/114/114 113/113/113 98/98/98
f 97/97/97 98/98/98 113/113/113
f 100/100/100 114/114/114 84/84/84
f 98/98/98 84/84/84 114/114/114
f 20/20/20 100/100/100 99/99/99
f 19/19/19 100/100/100 20/20/20
f 21/21/21 99/99/99 101/101/101
f 20/20/20 99/99/99 21/21/21
f 22/22/22 21/21/21 102/102/102
f 21/21/21 101/101/101 102/102/102
f 23/23/23 22/22/22 103/103/103
f 22/22/22 102/102/102 103/103/103
f 23/23/23 103/103/103 24/24/24
f 104/104/104 24/24/24 103/103/103
f 24/24/24 104/104/104 25/25/25
f 105/105/105 25/25/25 104/104/104
f 26/26/26 25/25/25 106/106/106
f 25/25/25 105/105/105 106/106/106
f 27/27/27 26/26/26 107/107/107
f 26/26/26 106/106/106 107/107/107
f 27/27/27 107/107/107 28/28/28
f 108/108/108 28/28/28 107/107/107
f 28/28/28 108/108/108 29/29/29
f 109/109/109 29/29/29 108/108/108
f 30/30/30 29/29/29 110/110/110
f 109/109/109 110/110/110 29/29/29
f 31/31/31 30/30/30 111/111/111
f 110/110/110 111/111/111 30/30/30
f 32/32/32 31/31/31 112/112/112
f 111/111/111 112/112/112 31/31/31
f 33/33/33 112/112/112 113/113/113
f 32/32/32 112/112/112 33/33/33
f 34/34/34 33/33/33 114/114/114
f 113/113/113 114/114/114 33/33/33
f 19/19/19 34/34/34 100/100/100
f 114/114/114 100/100/100 34/34/34

# End of File
