# Obj file Generated by Strata 3D CX(TM): http://www.strata.com
mtllib 2.mtl
v 63.188168 8.318880 -29.830643
v 55.194756 31.866707 -29.830643
v 71.898560 9.465625 15.990414
v 62.803272 36.259483 15.990414
v 0.000000 0.000000 99.969788
v 43.067173 24.864843 79.371071
v 30.273516 39.453213 79.371071
v 12.870991 48.035191 79.371071
v -6.491027 49.304245 79.371071
v -24.864843 43.067173 79.371071
v -39.453213 30.273516 79.371071
v -48.035191 12.870991 79.371071
v -49.304245 -6.491027 79.371071
v -43.067173 -24.864843 79.371071
v -30.273516 -39.453213 79.371071
v -12.870991 -48.035191 79.371071
v 6.491027 -49.304245 79.371071
v 24.864843 -43.067173 79.371071
v 39.453213 -30.273516 79.371071
v 48.035191 -12.870991 79.371071
v 49.304245 6.491027 79.371071
v 23.408199 30.506161 -80.075203
v 33.300560 19.226088 -80.075203
v -0.000000 0.000000 -138.622314
v 38.798447 50.563118 -29.830643
v 16.495420 61.561752 -29.830643
v 9.952155 37.141949 -80.075203
v -5.019016 38.123211 -80.075203
v -8.318880 63.188168 -29.830643
v -19.226088 33.300560 -80.075203
v -31.866707 55.194756 -29.830643
v -30.506161 23.408199 -80.075203
v -50.563118 38.798447 -29.830643
v -61.561752 16.495420 -29.830643
v -37.141949 9.952155 -80.075203
v -38.123211 -5.019016 -80.075203
v -63.188168 -8.318880 -29.830643
v -33.300560 -19.226088 -80.075203
v -55.194756 -31.866707 -29.830643
v -23.408199 -30.506161 -80.075203
v -38.798447 -50.563118 -29.830643
v -16.495420 -61.561752 -29.830643
v -9.952155 -37.141949 -80.075203
v 8.318880 -63.188168 -29.830643
v 5.019016 -38.123211 -80.075203
v 19.226088 -33.300560 -80.075203
v 31.866707 -55.194756 -29.830643
v 50.563118 -38.798447 -29.830643
v 30.506161 -23.408199 -80.075203
v 61.561752 -16.495420 -29.830643
v 37.141949 -9.952155 -80.075203
v 38.123211 5.019016 -80.075203
v 58.848919 33.976440 54.506226
v 41.367092 53.910641 54.506226
v 44.146751 57.533169 15.990414
v 17.587500 65.637436 54.506226
v 18.769289 70.047951 15.990414
v -8.869630 67.371536 54.506226
v -9.465625 71.898560 15.990414
v -33.976440 58.848919 54.506226
v -36.259483 62.803272 15.990414
v -53.910641 41.367092 54.506226
v -57.533169 44.146751 15.990414
v -65.637436 17.587500 54.506226
v -70.047951 18.769289 15.990414
v -67.371536 -8.869630 54.506226
v -71.898560 -9.465625 15.990414
v -58.848919 -33.976440 54.506226
v -62.803272 -36.259483 15.990414
v -41.367092 -53.910641 54.506226
v -44.146751 -57.533169 15.990414
v -17.587500 -65.637436 54.506226
v -18.769289 -70.047951 15.990414
v 8.869630 -67.371536 54.506226
v 9.465625 -71.898560 15.990414
v 33.976440 -58.848919 54.506226
v 36.259483 -62.803272 15.990414
v 53.910641 -41.367092 54.506226
v 57.533169 -44.146751 15.990414
v 65.637436 -17.587500 54.506226
v 70.047951 -18.769289 15.990414
v 67.371536 8.869630 54.506226

vt 0.520833 0.331987
vt 0.583333 0.331987
vt 0.520833 0.537851
vt 0.583333 0.537851
vt 0.744052 1.000000
vt 0.583333 0.807691
vt 0.645833 0.807691
vt 0.708333 0.807691
vt 0.770833 0.807690
vt 0.833333 0.807691
vt 0.895833 0.807691
vt 0.958333 0.807691
vt 0.020833 0.807690
vt 0.083333 0.807691
vt 0.145833 0.807691
vt 0.208333 0.807691
vt 0.270833 0.807690
vt 0.333333 0.807691
vt 0.395833 0.807691
vt 0.458333 0.807691
vt 0.520833 0.807690
vt 0.645833 0.131928
vt 0.583333 0.131928
vt 0.804849 0.000110
vt 0.645833 0.331987
vt 0.708333 0.331987
vt 0.708333 0.131928
vt 0.770833 0.131928
vt 0.770833 0.331987
vt 0.833333 0.131928
vt 0.833333 0.331987
vt 0.895833 0.131928
vt 0.895833 0.331987
vt 0.958333 0.331987
vt 0.958333 0.131928
vt 0.020833 0.131928
vt 0.020833 0.331987
vt 0.083333 0.131928
vt 0.083333 0.331987
vt 0.145833 0.131928
vt 0.145833 0.331987
vt 0.208333 0.331987
vt 0.208333 0.131928
vt 0.270833 0.331987
vt 0.270833 0.131928
vt 0.333333 0.131928
vt 0.333333 0.331987
vt 0.395833 0.331987
vt 0.395833 0.131928
vt 0.458333 0.331987
vt 0.458333 0.131928
vt 0.520833 0.131928
vt 0.583333 0.693181
vt 0.645833 0.693181
vt 0.645833 0.537851
vt 0.708333 0.693181
vt 0.708333 0.537851
vt 0.770833 0.693181
vt 0.770833 0.537851
vt 0.833333 0.693181
vt 0.833333 0.537851
vt 0.895833 0.693181
vt 0.895833 0.537851
vt 0.958333 0.693181
vt 0.958333 0.537851
vt 0.020833 0.693181
vt 0.020833 0.537851
vt 0.083333 0.693181
vt 0.083333 0.537851
vt 0.145833 0.693181
vt 0.145833 0.537851
vt 0.208333 0.693181
vt 0.208333 0.537851
vt 0.270833 0.693181
vt 0.270833 0.537851
vt 0.333333 0.693181
vt 0.333333 0.537851
vt 0.395833 0.693181
vt 0.395833 0.537851
vt 0.458333 0.693181
vt 0.458333 0.537851
vt 0.520833 0.693181

vn 0.922769 0.121485 -0.365704
vn 0.831910 0.480304 -0.277909
vn 0.990811 0.130443 -0.035743
vn 0.845365 0.534167 -0.004767
vn -0.000000 -0.000000 1.000000
vn 0.587358 0.300866 0.751326
vn 0.418196 0.545004 0.726693
vn 0.159532 0.595383 0.787445
vn -0.053192 0.657784 0.751326
vn -0.300866 0.587358 0.751326
vn -0.545004 0.418196 0.726693
vn -0.595383 0.159532 0.787445
vn -0.657784 -0.053192 0.751326
vn -0.587358 -0.300866 0.751326
vn -0.418196 -0.545004 0.726693
vn -0.138595 -0.645214 0.751326
vn 0.080454 -0.611112 0.787445
vn 0.300866 -0.587358 0.751326
vn 0.545004 -0.418196 0.726693
vn 0.645214 -0.138595 0.751326
vn 0.611112 0.080454 0.787445
vn 0.502105 0.712744 -0.489782
vn 0.758124 0.437703 -0.483388
vn 0.000000 0.000000 -1.000000
vn 0.598725 0.721320 -0.348175
vn 0.270367 0.900419 -0.340804
vn 0.224130 0.836466 -0.500091
vn -0.078464 0.868307 -0.489782
vn -0.120718 0.938952 -0.322175
vn -0.404778 0.772184 -0.489782
vn -0.498518 0.812134 -0.303179
vn -0.694506 0.532914 -0.483388
vn -0.751051 0.576302 -0.322177
vn -0.900419 0.270367 -0.340804
vn -0.836466 0.224130 -0.500091
vn -0.868307 -0.078464 -0.489782
vn -0.941089 -0.149780 -0.303179
vn -0.772184 -0.404778 -0.489782
vn -0.793298 -0.499452 -0.348175
vn -0.532914 -0.694506 -0.483388
vn -0.612310 -0.733335 -0.295458
vn -0.271336 -0.913487 -0.303179
vn -0.191129 -0.850637 -0.489782
vn 0.150526 -0.928006 -0.340804
vn 0.113032 -0.858564 -0.500091
vn 0.437703 -0.758124 -0.483388
vn 0.473340 -0.819849 -0.322177
vn 0.740117 -0.600258 -0.303179
vn 0.712744 -0.502105 -0.489782
vn 0.915162 -0.242243 -0.322175
vn 0.850637 -0.191129 -0.489782
vn 0.858564 0.113032 -0.500091
vn 0.808583 0.459684 0.367267
vn 0.608966 0.726835 0.317603
vn 0.584860 0.809070 -0.057825
vn 0.264942 0.876583 0.401757
vn 0.194224 0.980309 -0.035664
vn -0.146645 0.931820 0.331975
vn -0.169290 0.983312 -0.066626
vn -0.517481 0.773197 0.366577
vn -0.465024 0.885285 -0.004767
vn -0.776335 0.544456 0.317603
vn -0.774335 0.630129 -0.057825
vn -0.864041 0.231519 0.447026
vn -0.972758 0.231425 -0.013613
vn -0.922946 -0.115261 0.367267
vn -0.985433 -0.169999 -0.004767
vn -0.804770 -0.492074 0.331975
vn -0.862724 -0.498094 -0.087237
vn -0.544456 -0.776335 0.317603
vn -0.608653 -0.792631 -0.035743
vn -0.234744 -0.900006 0.367267
vn -0.297169 -0.954813 -0.004767
vn 0.116758 -0.886868 0.447026
vn 0.102474 -0.994642 -0.013613
vn 0.492074 -0.804770 0.331975
vn 0.498094 -0.862724 -0.087237
vn 0.776335 -0.544456 0.317603
vn 0.768411 -0.639940 -0.004767
vn 0.900006 -0.234744 0.367267
vn 0.946084 -0.321952 -0.035664
vn 0.886868 0.116758 0.447026

usemtl Image Texture-5
f 1/1/1 2/2/2 3/3/3
f 2/2/2 4/4/4 3/3/3
f 5/5/5 6/6/6 7/7/7
f 5/5/5 7/7/7 8/8/8
f 5/5/5 8/8/8 9/9/9
f 5/5/5 9/9/9 10/10/10
f 5/5/5 10/10/10 11/11/11
f 5/5/5 11/11/11 12/12/12
f 5/5/5 12/12/12 13/13/13
f 5/5/5 13/13/13 14/14/14
f 5/5/5 14/14/14 15/15/15
f 5/5/5 15/15/15 16/16/16
f 5/5/5 16/16/16 17/17/17
f 5/5/5 17/17/17 18/18/18
f 5/5/5 18/18/18 19/19/19
f 5/5/5 19/19/19 20/20/20
f 5/5/5 20/20/20 21/21/21
f 5/5/5 21/21/21 6/6/6
f 22/22/22 23/23/23 24/24/24
f 25/25/25 22/22/22 26/26/26
f 27/27/27 26/26/26 22/22/22
f 27/27/27 28/28/28 26/26/26
f 29/29/29 26/26/26 28/28/28
f 28/28/28 30/30/30 29/29/29
f 31/31/31 29/29/29 30/30/30
f 31/31/31 32/32/32 33/33/33
f 30/30/30 32/32/32 31/31/31
f 33/33/33 32/32/32 34/34/34
f 35/35/35 34/34/34 32/32/32
f 35/35/35 36/36/36 34/34/34
f 37/37/37 34/34/34 36/36/36
f 36/36/36 38/38/38 37/37/37
f 39/39/39 37/37/37 38/38/38
f 39/39/39 40/40/40 41/41/41
f 38/38/38 40/40/40 39/39/39
f 41/41/41 40/40/40 42/42/42
f 40/40/40 43/43/43 42/42/42
f 42/42/42 43/43/43 44/44/44
f 43/43/43 45/45/45 44/44/44
f 44/44/44 46/46/46 47/47/47
f 45/45/45 46/46/46 44/44/44
f 47/47/47 46/46/46 48/48/48
f 49/49/49 48/48/48 46/46/46
f 48/48/48 49/49/49 50/50/50
f 49/49/49 51/51/51 50/50/50
f 52/52/52 1/1/1 51/51/51
f 50/50/50 51/51/51 1/1/1
f 53/53/53 4/4/4 54/54/54
f 55/55/55 54/54/54 4/4/4
f 54/54/54 55/55/55 56/56/56
f 57/57/57 56/56/56 55/55/55
f 56/56/56 57/57/57 58/58/58
f 59/59/59 58/58/58 57/57/57
f 60/60/60 58/58/58 61/61/61
f 59/59/59 61/61/61 58/58/58
f 62/62/62 60/60/60 63/63/63
f 61/61/61 63/63/63 60/60/60
f 64/64/64 62/62/62 65/65/65
f 63/63/63 65/65/65 62/62/62
f 64/64/64 65/65/65 66/66/66
f 67/67/67 66/66/66 65/65/65
f 66/66/66 67/67/67 68/68/68
f 69/69/69 68/68/68 67/67/67
f 70/70/70 68/68/68 71/71/71
f 69/69/69 71/71/71 68/68/68
f 72/72/72 70/70/70 73/73/73
f 71/71/71 73/73/73 70/70/70
f 74/74/74 72/72/72 75/75/75
f 73/73/73 75/75/75 72/72/72
f 74/74/74 75/75/75 76/76/76
f 77/77/77 76/76/76 75/75/75
f 78/78/78 76/76/76 79/79/79
f 77/77/77 79/79/79 76/76/76
f 80/80/80 78/78/78 81/81/81
f 79/79/79 81/81/81 78/78/78
f 82/82/82 80/80/80 3/3/3
f 81/81/81 3/3/3 80/80/80
f 82/82/82 3/3/3 53/53/53
f 4/4/4 53/53/53 3/3/3
f 54/54/54 7/7/7 53/53/53
f 6/6/6 53/53/53 7/7/7
f 54/54/54 56/56/56 7/7/7
f 8/8/8 7/7/7 56/56/56
f 56/56/56 9/9/9 8/8/8
f 58/58/58 9/9/9 56/56/56
f 58/58/58 10/10/10 9/9/9
f 60/60/60 10/10/10 58/58/58
f 60/60/60 11/11/11 10/10/10
f 62/62/62 11/11/11 60/60/60
f 62/62/62 64/64/64 11/11/11
f 12/12/12 11/11/11 64/64/64
f 64/64/64 13/13/13 12/12/12
f 66/66/66 13/13/13 64/64/64
f 66/66/66 14/14/14 13/13/13
f 68/68/68 14/14/14 66/66/66
f 68/68/68 15/15/15 14/14/14
f 70/70/70 15/15/15 68/68/68
f 70/70/70 72/72/72 15/15/15
f 72/72/72 16/16/16 15/15/15
f 72/72/72 74/74/74 16/16/16
f 74/74/74 17/17/17 16/16/16
f 76/76/76 18/18/18 74/74/74
f 17/17/17 74/74/74 18/18/18
f 78/78/78 19/19/19 76/76/76
f 18/18/18 76/76/76 19/19/19
f 78/78/78 80/80/80 19/19/19
f 80/80/80 20/20/20 19/19/19
f 80/80/80 82/82/82 20/20/20
f 82/82/82 21/21/21 20/20/20
f 53/53/53 6/6/6 82/82/82
f 21/21/21 82/82/82 6/6/6
f 52/52/52 23/23/23 1/1/1
f 23/23/23 2/2/2 1/1/1
f 4/4/4 2/2/2 55/55/55
f 25/25/25 55/55/55 2/2/2
f 57/57/57 55/55/55 26/26/26
f 25/25/25 26/26/26 55/55/55
f 29/29/29 57/57/57 26/26/26
f 59/59/59 57/57/57 29/29/29
f 61/61/61 59/59/59 31/31/31
f 29/29/29 31/31/31 59/59/59
f 33/33/33 63/63/63 31/31/31
f 63/63/63 61/61/61 31/31/31
f 65/65/65 63/63/63 34/34/34
f 33/33/33 34/34/34 63/63/63
f 37/37/37 65/65/65 34/34/34
f 67/67/67 65/65/65 37/37/37
f 39/39/39 69/69/69 37/37/37
f 69/69/69 67/67/67 37/37/37
f 71/71/71 69/69/69 41/41/41
f 39/39/39 41/41/41 69/69/69
f 73/73/73 71/71/71 42/42/42
f 41/41/41 42/42/42 71/71/71
f 44/44/44 75/75/75 42/42/42
f 73/73/73 42/42/42 75/75/75
f 47/47/47 77/77/77 44/44/44
f 77/77/77 75/75/75 44/44/44
f 79/79/79 77/77/77 48/48/48
f 47/47/47 48/48/48 77/77/77
f 50/50/50 81/81/81 48/48/48
f 81/81/81 79/79/79 48/48/48
f 1/1/1 3/3/3 50/50/50
f 81/81/81 50/50/50 3/3/3
f 2/2/2 23/23/23 25/25/25
f 22/22/22 25/25/25 23/23/23
f 27/27/27 22/22/22 24/24/24
f 28/28/28 27/27/27 24/24/24
f 30/30/30 28/28/28 24/24/24
f 32/32/32 30/30/30 24/24/24
f 35/35/35 32/32/32 24/24/24
f 36/36/36 35/35/35 24/24/24
f 38/38/38 36/36/36 24/24/24
f 40/40/40 38/38/38 24/24/24
f 43/43/43 40/40/40 24/24/24
f 45/45/45 43/43/43 24/24/24
f 46/46/46 45/45/45 24/24/24
f 49/49/49 46/46/46 24/24/24
f 51/51/51 49/49/49 24/24/24
f 51/51/51 24/24/24 52/52/52
f 52/52/52 24/24/24 23/23/23

# End of File
