# Obj file Generated by Strata 3D CX(TM): http://www.strata.com
mtllib 3.mtl
v -97.886536 32.118896 0.000000
v -97.886536 25.507332 -11.638973
v -109.525513 25.507332 0.000000
v -86.247566 25.507332 0.000000
v -97.886536 25.507332 11.638973
v -97.886536 9.545605 -16.459993
v -114.346527 9.545605 0.000000
v -81.426544 9.545605 0.000000
v -97.886536 9.545605 16.459993

vt 0.750000 0.500000
vt 0.750000 0.159178
vt 0.920411 0.500000
vt 0.579589 0.500000
vt 0.750000 0.840822
vt 0.250000 0.168100
vt 0.084050 0.500000
vt 0.415950 0.500000
vt 0.250000 0.831900

vn -0.000000 1.000000 0.000000
vn -0.000000 0.548364 -0.836240
vn -0.753930 0.656955 0.000000
vn 0.790626 0.583781 0.184690
vn -0.184690 0.583780 0.790626
vn -0.691512 0.208861 -0.691512
vn 0.691512 0.208861 -0.691512
vn 0.000000 -1.000000 0.000000
vn -0.691512 0.208862 -0.691512
vn -0.691512 0.208862 0.691512
vn 0.000000 -1.000000 0.000000
vn 0.691512 0.208862 -0.691512
vn 0.691512 0.208861 0.691512
vn 0.000000 -1.000000 0.000000
vn 0.691512 0.208862 0.691512
vn -0.691512 0.208861 0.691512
vn 0.000000 -1.000000 0.000000

f 1/1/1 2/2/2 3/3/3
f 1/1/1 4/4/4 2/2/2
f 1/1/1 5/5/5 4/4/4
f 1/1/1 3/3/3 5/5/5
f 6/6/6 7/7/9 2/2/2
f 7/7/9 3/3/3 2/2/2
f 8/8/12 2/2/2 4/4/4
f 6/6/7 2/2/2 8/8/12
f 9/9/15 4/4/4 5/5/5
f 8/8/13 4/4/4 9/9/15
f 7/7/10 5/5/5 3/3/3
f 9/9/16 5/5/5 7/7/10
f 8/8/14 9/9/17 6/6/8
f 7/7/11 6/6/8 9/9/17
v 0.000000 32.118896 97.886536
v -11.638973 25.507332 97.886536
v 0.000000 25.507332 109.525513
v 0.000000 25.507332 86.247566
v 11.638973 25.507332 97.886536
v -16.459993 9.545605 97.886536
v 0.000000 9.545605 114.346527
v 0.000000 9.545605 81.426544
v 16.459993 9.545605 97.886536

vt 0.750000 0.500000
vt 0.920411 0.500000
vt 0.750000 0.840822
vt 0.750000 0.159178
vt 0.579589 0.500000
vt 0.084050 0.500000
vt 0.250000 0.831900
vt 0.250000 0.168100
vt 0.415950 0.500000

vn 0.000000 1.000000 -0.000000
vn -0.836240 0.548364 0.000000
vn 0.000000 0.656955 0.753930
vn 0.184690 0.583780 -0.790626
vn 0.790627 0.583780 0.184690
vn -0.691511 0.208862 0.691512
vn -0.691512 0.208862 -0.691512
vn 0.000000 -1.000000 -0.000000
vn -0.691512 0.208861 0.691512
vn 0.691512 0.208861 0.691512
vn 0.000000 -1.000000 0.000000
vn -0.691512 0.208862 -0.691511
vn 0.691512 0.208862 -0.691512
vn 0.000000 -1.000000 0.000000
vn 0.691512 0.208862 -0.691511
vn 0.691511 0.208862 0.691512
vn 0.000000 -1.000000 0.000000

f 10/10/18 11/11/19 12/12/20
f 10/10/18 13/13/21 11/11/19
f 10/10/18 14/14/22 13/13/21
f 10/10/18 12/12/20 14/14/22
f 15/15/23 16/16/26 11/11/19
f 16/16/26 12/12/20 11/11/19
f 17/17/29 11/11/19 13/13/21
f 15/15/24 11/11/19 17/17/29
f 18/18/32 13/13/21 14/14/22
f 17/17/30 13/13/21 18/18/32
f 16/16/27 14/14/22 12/12/20
f 18/18/33 14/14/22 16/16/27
f 18/18/34 16/16/28 17/17/31
f 15/15/25 17/17/31 16/16/28
v -0.000000 32.118896 -97.886536
v 11.638973 25.507332 -97.886536
v -0.000000 25.507332 -109.525513
v -0.000000 25.507332 -86.247566
v -11.638973 25.507332 -97.886536
v 16.459993 9.545605 -97.886536
v -0.000000 9.545605 -114.346527
v -0.000000 9.545605 -81.426544
v -16.459993 9.545605 -97.886536

vt 0.750000 0.500000
vt 0.579589 0.500000
vt 0.750000 0.159178
vt 0.750000 0.840822
vt 0.920411 0.500000
vt 0.415950 0.500000
vt 0.250000 0.168100
vt 0.250000 0.831900
vt 0.084050 0.500000

vn 0.000000 1.000000 0.000000
vn 0.790626 0.583780 0.184690
vn 0.184690 0.583780 -0.790626
vn 0.000000 0.656955 0.753930
vn -0.836240 0.548364 -0.000000
vn 0.691512 0.208862 -0.691512
vn 0.691512 0.208862 0.691512
vn 0.000000 -1.000000 0.000000
vn 0.691512 0.208861 -0.691512
vn -0.691512 0.208861 -0.691512
vn 0.000000 -1.000000 0.000000
vn 0.691512 0.208862 0.691511
vn -0.691512 0.208862 0.691511
vn 0.000000 -1.000000 0.000000
vn -0.691512 0.208862 0.691512
vn -0.691511 0.208862 -0.691512
vn 0.000000 -1.000000 -0.000000

f 19/19/35 20/20/36 21/21/37
f 19/19/35 22/22/38 20/20/36
f 19/19/35 23/23/39 22/22/38
f 19/19/35 21/21/37 23/23/39
f 24/24/40 21/21/37 20/20/36
f 25/25/43 21/21/37 24/24/40
f 26/26/46 20/20/36 22/22/38
f 24/24/41 20/20/36 26/26/46
f 27/27/49 26/26/47 23/23/39
f 26/26/47 22/22/38 23/23/39
f 25/25/44 23/23/39 21/21/37
f 27/27/50 23/23/39 25/25/44
f 26/26/48 25/25/45 24/24/42
f 27/27/51 25/25/45 26/26/48
v 97.886536 32.118896 -0.000000
v 97.886536 25.507332 11.638973
v 109.525513 25.507332 -0.000000
v 86.247566 25.507332 -0.000000
v 97.886536 25.507332 -11.638973
v 97.886536 9.545605 16.459993
v 114.346527 9.545605 -0.000000
v 81.426544 9.545605 0.000000
v 97.886536 9.545605 -16.459993

vt 0.750000 0.500000
vt 0.750000 0.840822
vt 0.579589 0.500000
vt 0.920411 0.500000
vt 0.750000 0.159178
vt 0.250000 0.831900
vt 0.415950 0.500000
vt 0.084050 0.500000
vt 0.250000 0.168100

vn 0.000000 1.000000 0.000000
vn -0.184690 0.583780 0.790626
vn 0.790626 0.583780 0.184690
vn -0.790626 0.583781 -0.184690
vn 0.184690 0.583780 -0.790626
vn 0.691512 0.208862 0.691512
vn -0.691512 0.208861 0.691512
vn 0.000000 -1.000000 0.000000
vn 0.691512 0.208861 0.691512
vn 0.691512 0.208862 -0.691512
vn 0.000000 -1.000000 0.000000
vn -0.691512 0.208862 0.691512
vn -0.691512 0.208861 -0.691512
vn 0.000000 -1.000000 0.000000
vn -0.691512 0.208862 -0.691512
vn 0.691512 0.208861 -0.691512
vn 0.000000 -1.000000 0.000000

f 28/28/52 29/29/53 30/30/54
f 28/28/52 31/31/55 29/29/53
f 28/28/52 32/32/56 31/31/55
f 28/28/52 30/30/54 32/32/56
f 33/33/57 30/30/54 29/29/53
f 34/34/60 30/30/54 33/33/57
f 35/35/63 29/29/53 31/31/55
f 33/33/58 29/29/53 35/35/63
f 36/36/66 31/31/55 32/32/56
f 35/35/64 31/31/55 36/36/66
f 34/34/61 32/32/56 30/30/54
f 36/36/67 32/32/56 34/34/61
f 35/35/65 36/36/68 33/33/59
f 36/36/68 34/34/62 33/33/59

# End of File
