# Obj file Generated by Strata 3D CX(TM): http://www.strata.com
mtllib 2.mtl
v 200.008530 -20.633118 14.170834
v 160.852859 -20.633118 14.170834
v 201.621597 -12.523712 14.170834
v 159.239792 -12.523712 14.170834
v 195.414917 -27.507940 14.170834
v 165.446457 -27.507940 14.170834
v 188.540085 -32.101547 14.170834
v 172.321274 -32.101547 14.170834
v 180.430679 -33.714611 14.170834
v 180.430679 8.667187 14.170834
v 188.540085 7.054126 14.170834
v 172.321274 7.054126 14.170834
v 165.446457 2.460516 14.170834
v 195.414917 2.460516 14.170834
v 160.852859 -4.414306 14.170834
v 200.008530 -4.414306 14.170834
v 180.430679 8.667187 109.885353
v 172.321274 7.054126 109.885353
v 188.540085 7.054126 109.885353
v 195.414917 2.460516 109.885353
v 165.446457 2.460516 109.885353
v 200.008530 -4.414306 109.885353
v 160.852859 -4.414306 109.885353
v 159.239792 -12.523712 109.885353
v 201.621597 -12.523712 109.885353
v 160.852859 -20.633118 109.885353
v 200.008530 -20.633118 109.885353
v 165.446457 -27.507940 109.885353
v 195.414917 -27.507940 109.885353
v 172.321274 -32.101547 109.885353
v 188.540085 -32.101547 109.885353
v 180.430679 -33.714611 109.885353

vt 0.961474 0.691150
vt 0.038531 0.691150
vt 0.999496 0.500002
vt 0.000504 0.500001
vt 0.853197 0.853199
vt 0.146807 0.853199
vt 0.691149 0.961478
vt 0.308854 0.961478
vt 0.500000 0.999500
vt 0.500000 0.000500
vt 0.691147 0.038522
vt 0.308852 0.038522
vt 0.146803 0.146799
vt 0.853196 0.146799
vt 0.038526 0.308848
vt 0.961473 0.308849
vt 0.308850 0.999496
vt 0.308850 0.000509
vt 0.853201 0.999496
vt 0.146801 0.000509
vt 0.691151 0.999496
vt 0.691151 0.000509
vt 0.146802 0.999496

vn 0.000000 0.000000 -1.000000
vn 0.947173 -0.320723 0.000000
vn 0.000000 0.000000 -1.000000
vn -0.896538 -0.442967 0.000000
vn 0.000000 0.000000 -1.000000
vn 0.997809 0.066159 0.000000
vn 0.000000 0.000000 -1.000000
vn -0.997809 -0.066159 0.000000
vn 0.000000 0.000000 -1.000000
vn 0.752339 -0.658776 0.000000
vn 0.000000 0.000000 -1.000000
vn -0.658777 -0.752338 0.000000
vn 0.000000 0.000000 -1.000000
vn 0.442968 -0.896538 0.000000
vn 0.000000 0.000000 -1.000000
vn -0.320722 -0.947173 0.000000
vn 0.000000 0.000000 -1.000000
vn 0.066159 -0.997809 0.000000
vn 0.000000 0.000000 -1.000000
vn -0.066159 0.997809 0.000000
vn 0.000000 0.000000 -1.000000
vn 0.382684 0.923880 0.000000
vn 0.000000 0.000000 -1.000000
vn -0.442968 0.896537 0.000000
vn 0.000000 0.000000 -1.000000
vn -0.752340 0.658775 0.000000
vn 0.000000 0.000000 -1.000000
vn 0.707107 0.707107 0.000000
vn 0.000000 0.000000 -1.000000
vn -0.947173 0.320723 0.000000
vn 0.000000 0.000000 -1.000000
vn 0.896537 0.442969 0.000000
vn 0.000000 0.000000 1.000000
vn 0.066159 0.997809 0.000000
vn 0.000000 0.000000 1.000000
vn -0.320722 0.947173 0.000000
vn 0.000000 0.000000 1.000000
vn 0.382683 0.923880 0.000000
vn 0.000000 0.000000 1.000000
vn 0.707107 0.707107 0.000000
vn 0.000000 0.000000 1.000000
vn -0.658777 0.752338 0.000000
vn 0.000000 0.000000 1.000000
vn 0.947173 0.320723 0.000000
vn 0.000000 0.000000 1.000000
vn -0.896538 0.442967 0.000000
vn 0.000000 0.000000 1.000000
vn -0.997809 0.066159 0.000000
vn 0.000000 0.000000 1.000000
vn 0.997809 -0.066159 0.000000
vn 0.000000 0.000000 1.000000
vn -0.947173 -0.320723 0.000000
vn 0.000000 0.000000 1.000000
vn 0.896537 -0.442969 0.000000
vn 0.000000 0.000000 1.000000
vn -0.752340 -0.658775 0.000000
vn 0.000000 0.000000 1.000000
vn 0.658776 -0.752339 0.000000
vn 0.000000 0.000000 1.000000
vn -0.442968 -0.896537 0.000000
vn 0.000000 0.000000 1.000000
vn 0.320722 -0.947173 0.000000
vn 0.000000 0.000000 1.000000
vn -0.066159 -0.997809 0.000000

usemtl Image Texture-2
f 1/1/1 2/2/3 3/3/5
f 2/2/3 4/4/7 3/3/5
f 5/5/9 6/6/11 1/1/1
f 6/6/11 2/2/3 1/1/1
f 7/7/13 8/8/15 5/5/9
f 8/8/15 6/6/11 5/5/9
f 9/9/17 8/8/15 7/7/13
f 10/10/19 11/11/21 12/12/23
f 13/13/25 12/12/23 11/11/21
f 14/14/27 13/13/25 11/11/21
f 15/15/29 13/13/25 14/14/27
f 16/16/31 15/15/29 14/14/27
f 3/3/5 4/4/7 16/16/31
f 4/4/7 15/15/29 16/16/31
f 17/9/33 18/8/35 19/7/37
f 20/5/39 19/7/37 18/8/35
f 21/6/41 20/5/39 18/8/35
f 22/1/43 20/5/39 21/6/41
f 23/2/45 22/1/43 21/6/41
f 24/4/47 25/3/49 23/2/45
f 25/3/49 22/1/43 23/2/45
f 26/15/51 27/16/53 24/4/47
f 27/16/53 25/3/49 24/4/47
f 28/13/55 29/14/57 26/15/51
f 29/14/57 27/16/53 26/15/51
f 30/12/59 31/11/61 28/13/55
f 31/11/61 29/14/57 28/13/55
f 32/10/63 31/11/61 30/12/59
f 27/17/54 1/18/2 25/9/50
f 3/10/6 25/9/50 1/18/2
f 29/19/58 5/20/10 27/17/54
f 1/18/2 27/17/54 5/20/10
f 31/21/62 7/22/14 29/19/58
f 5/20/10 29/19/58 7/22/14
f 32/9/64 9/10/18 31/21/62
f 7/22/14 31/21/62 9/10/18
f 30/17/60 8/18/16 32/9/64
f 9/10/18 32/9/64 8/18/16
f 28/19/56 6/20/12 30/17/60
f 8/18/16 30/17/60 6/20/12
f 26/21/52 2/22/4 28/19/56
f 6/20/12 28/19/56 2/22/4
f 24/9/48 4/10/8 26/21/52
f 2/22/4 26/21/52 4/10/8
f 23/17/46 15/18/30 24/9/48
f 4/10/8 24/9/48 15/18/30
f 21/19/42 13/20/26 23/17/46
f 15/18/30 23/17/46 13/20/26
f 18/21/36 12/22/24 21/19/42
f 13/20/26 21/19/42 12/22/24
f 17/9/34 10/10/20 18/21/36
f 12/22/24 18/21/36 10/10/20
f 19/17/38 11/18/22 17/9/34
f 10/10/20 17/9/34 11/18/22
f 19/17/38 20/23/40 11/18/22
f 14/20/28 11/18/22 20/23/40
f 22/21/44 16/22/32 20/23/40
f 14/20/28 20/23/40 16/22/32
f 25/9/50 3/10/6 22/21/44
f 16/22/32 22/21/44 3/10/6
v 24.764847 24.660862 -80.289154
v 24.764847 -24.660862 -80.289154
v 32.324955 13.346363 -80.289154
v 32.324955 -13.346363 -80.289154
v 34.979713 0.000000 -80.289154
v 13.450350 32.220970 -80.289154
v 13.450350 -32.220970 -80.289154
v 0.103987 34.875729 -80.289154
v 0.103987 -34.875725 -80.289154
v -13.242375 32.220970 -80.289154
v -13.242375 -32.220970 -80.289154
v -24.556873 24.660862 -80.289154
v -24.556873 -24.660862 -80.289154
v -32.116985 13.346363 -80.289154
v -32.116985 -13.346363 -80.289154
v -34.771740 0.000000 -80.289154
v 0.103987 0.000000 -150.040604

vt 0.853201 0.853196
vt 0.853201 0.146806
vt 0.961477 0.691149
vt 0.961478 0.308850
vt 0.999500 0.500000
vt 0.691151 0.961473
vt 0.691151 0.038530
vt 0.500001 0.999495
vt 0.500001 0.000509
vt 0.308850 0.961474
vt 0.308850 0.038531
vt 0.146801 0.853197
vt 0.146801 0.146807
vt 0.038522 0.691149
vt 0.038522 0.308854
vt 0.000500 0.500000
vt 0.691149 0.999496
vt 0.308850 0.999496
vt 0.146801 0.999496
vt 0.853198 0.999496

vn 0.000000 0.000000 1.000000
vn 0.632456 0.632456 -0.447214
vn -0.000000 0.000000 1.000000
vn 0.632456 -0.632456 -0.447214
vn -0.000000 0.000000 1.000000
vn 0.826343 0.342283 -0.447214
vn -0.000001 0.000000 1.000000
vn 0.826343 -0.342283 -0.447214
vn 0.000000 0.000000 1.000000
vn 0.894427 -0.000000 -0.447214
vn 0.000000 0.000000 1.000000
vn 0.342283 0.826343 -0.447214
vn 0.000000 0.000000 1.000000
vn 0.342282 -0.826343 -0.447214
vn -0.000000 0.000000 1.000000
vn 0.000000 0.894427 -0.447214
vn 0.000001 0.000000 1.000000
vn 0.000000 -0.894427 -0.447214
vn -0.000001 0.000000 1.000000
vn -0.342283 0.826343 -0.447214
vn -0.000000 0.000000 1.000000
vn -0.342282 -0.826343 -0.447214
vn 0.000000 0.000000 1.000000
vn -0.632455 0.632456 -0.447214
vn -0.000000 0.000000 1.000000
vn -0.632455 -0.632456 -0.447214
vn 0.000001 0.000000 1.000000
vn -0.826343 0.342283 -0.447214
vn 0.000000 0.000000 1.000000
vn -0.826343 -0.342283 -0.447214
vn 0.000000 0.000000 1.000000
vn -0.894427 0.000000 -0.447214
vn 0.000000 -0.000000 -1.000000

usemtl Image Texture-2
f 33/24/65 34/25/67 35/26/69
f 34/25/67 36/27/71 35/26/69
f 36/27/71 37/28/73 35/26/69
f 38/29/75 39/30/77 33/24/65
f 39/30/77 34/25/67 33/24/65
f 40/31/79 41/32/81 38/29/75
f 41/32/81 39/30/77 38/29/75
f 42/33/83 43/34/85 40/31/79
f 43/34/85 41/32/81 40/31/79
f 44/35/87 45/36/89 42/33/83
f 45/36/89 43/34/85 42/33/83
f 46/37/91 47/38/93 44/35/87
f 47/38/93 45/36/89 44/35/87
f 48/39/95 47/38/93 46/37/91
f 49/32/97 35/40/70 37/31/74
f 49/32/97 33/25/66 35/40/70
f 49/32/97 38/41/76 33/25/66
f 49/32/97 40/31/80 38/41/76
f 49/32/97 42/40/84 40/31/80
f 49/32/97 44/36/88 42/40/84
f 49/32/97 46/41/92 44/36/88
f 49/32/97 48/31/96 46/41/92
f 49/32/97 47/40/94 48/31/96
f 49/32/97 45/42/90 47/40/94
f 49/32/97 43/41/86 45/42/90
f 49/32/97 41/31/82 43/41/86
f 49/32/97 39/40/78 41/31/82
f 49/32/97 34/43/68 39/40/78
f 49/32/97 36/41/72 34/43/68
f 49/32/97 37/31/74 36/41/72
v 19.681824 -8.109406 120.484489
v 19.681824 8.109406 120.484489
v 21.294884 0.000000 120.484489
v 15.088216 -14.984228 120.484489
v 15.088216 14.984230 120.484489
v 8.213393 -19.577837 120.484489
v 8.213393 19.577839 120.484489
v 0.103987 -21.190899 120.484489
v 0.103987 21.190899 120.484489
v -8.005419 -19.577837 120.484489
v -8.005419 19.577839 120.484489
v -14.880241 -14.984228 120.484489
v -14.880241 14.984230 120.484489
v -19.473850 -8.109406 120.484489
v -19.473850 8.109406 120.484489
v -21.086910 0.000000 120.484489
v 15.088216 14.984230 150.040604
v 15.088216 -14.984228 150.040604
v 19.681824 8.109406 150.040604
v 19.681824 -8.109406 150.040604
v 21.294884 0.000000 150.040604
v 8.213393 19.577839 150.040604
v 8.213393 -19.577837 150.040604
v 0.103987 21.190899 150.040604
v 0.103987 -21.190899 150.040604
v -8.005419 19.577839 150.040604
v -8.005419 -19.577837 150.040604
v -14.880241 14.984230 150.040604
v -14.880241 -14.984228 150.040604
v -19.473850 8.109406 150.040604
v -19.473850 -8.109406 150.040604
v -21.086910 0.000000 150.040604

vt 0.961478 0.691148
vt 0.961478 0.308852
vt 0.999500 0.500000
vt 0.853201 0.853196
vt 0.853201 0.146806
vt 0.691151 0.961473
vt 0.691151 0.038530
vt 0.500001 0.999495
vt 0.500001 0.000509
vt 0.308850 0.961474
vt 0.308850 0.038531
vt 0.146801 0.853197
vt 0.146801 0.146807
vt 0.038522 0.691149
vt 0.038522 0.308854
vt 0.000500 0.500000
vt 0.308850 0.999496
vt 0.308850 0.000509
vt 0.853201 0.999496
vt 0.146801 0.000509
vt 0.691151 0.999496
vt 0.691151 0.000509

vn -0.000001 0.000000 -1.000000
vn 0.947173 -0.320722 0.000000
vn -0.000001 0.000000 -1.000000
vn 0.896538 0.442968 0.000000
vn 0.000000 0.000000 -1.000000
vn 0.997809 0.066159 0.000000
vn -0.000000 0.000000 -1.000000
vn 0.752339 -0.658776 0.000000
vn -0.000000 0.000000 -1.000000
vn 0.658776 0.752339 0.000000
vn -0.000000 0.000000 -1.000000
vn 0.442968 -0.896538 0.000000
vn 0.000000 0.000000 -1.000000
vn 0.320722 0.947173 0.000000
vn -0.000000 0.000000 -1.000000
vn 0.066159 -0.997809 0.000000
vn 0.000000 0.000000 -1.000000
vn -0.066159 0.997809 0.000000
vn -0.000000 0.000000 -1.000000
vn -0.320722 -0.947173 0.000000
vn -0.000000 0.000000 -1.000000
vn -0.442968 0.896538 0.000000
vn 0.000001 0.000000 -1.000000
vn -0.658776 -0.752339 0.000000
vn 0.000000 0.000000 -1.000000
vn -0.752339 0.658776 0.000000
vn 0.000002 0.000000 -1.000000
vn -0.896538 -0.442968 0.000000
vn 0.000001 0.000000 -1.000000
vn -0.947173 0.320722 0.000000
vn 0.000000 0.000000 -1.000000
vn -0.997809 -0.066159 0.000000
vn 0.000001 0.000000 1.000000
vn 0.752339 0.658776 0.000000
vn 0.000000 0.000000 1.000000
vn 0.658776 -0.752339 0.000000
vn 0.000000 0.000000 1.000000
vn 0.947173 0.320722 0.000000
vn -0.000001 0.000000 1.000000
vn 0.896538 -0.442968 0.000000
vn 0.000000 0.000000 1.000000
vn 0.997809 -0.066159 0.000000
vn -0.000000 0.000000 1.000000
vn 0.442968 0.896538 0.000000
vn -0.000001 0.000000 1.000000
vn 0.320722 -0.947173 0.000000
vn 0.000001 0.000000 1.000000
vn 0.066159 0.997809 0.000000
vn -0.000001 0.000000 1.000000
vn -0.066159 -0.997809 0.000000
vn 0.000001 0.000000 1.000000
vn -0.320722 0.947173 0.000000
vn -0.000001 0.000000 1.000000
vn -0.442968 -0.896538 0.000000
vn 0.000001 0.000000 1.000000
vn -0.658776 0.752339 0.000000
vn -0.000001 0.000000 1.000000
vn -0.752339 -0.658776 0.000000
vn 0.000001 0.000000 1.000000
vn -0.896538 0.442968 0.000000
vn -0.000000 0.000000 1.000000
vn -0.947173 -0.320722 0.000000
vn 0.000000 0.000000 1.000000
vn -0.997809 0.066159 0.000000

usemtl Image Texture-2
f 50/44/98 51/45/100 52/46/102
f 53/47/104 54/48/106 50/44/98
f 54/48/106 51/45/100 50/44/98
f 55/49/108 56/50/110 53/47/104
f 56/50/110 54/48/106 53/47/104
f 57/51/112 58/52/114 55/49/108
f 58/52/114 56/50/110 55/49/108
f 59/53/116 60/54/118 57/51/112
f 60/54/118 58/52/114 57/51/112
f 61/55/120 62/56/122 59/53/116
f 62/56/122 60/54/118 59/53/116
f 63/57/124 64/58/126 61/55/120
f 64/58/126 62/56/122 61/55/120
f 65/59/128 64/58/126 63/57/124
f 66/47/130 67/48/132 68/44/134
f 67/48/132 69/45/136 68/44/134
f 69/45/136 70/46/138 68/44/134
f 71/49/140 72/50/142 66/47/130
f 72/50/142 67/48/132 66/47/130
f 73/51/144 74/52/146 71/49/140
f 74/52/146 72/50/142 71/49/140
f 75/53/148 76/54/150 73/51/144
f 76/54/150 74/52/146 73/51/144
f 77/55/152 78/56/154 75/53/148
f 78/56/154 76/54/150 75/53/148
f 79/57/156 80/58/158 77/55/152
f 80/58/158 78/56/154 77/55/152
f 81/59/160 80/58/158 79/57/156
f 69/60/137 50/61/99 70/51/139
f 52/52/103 70/51/139 50/61/99
f 67/62/133 53/63/105 69/60/137
f 50/61/99 69/60/137 53/63/105
f 72/64/143 55/65/109 67/62/133
f 53/63/105 67/62/133 55/65/109
f 74/51/147 57/52/113 72/64/143
f 55/65/109 72/64/143 57/52/113
f 76/60/151 59/61/117 74/51/147
f 57/52/113 74/51/147 59/61/117
f 78/62/155 61/63/121 76/60/151
f 59/61/117 76/60/151 61/63/121
f 80/64/159 63/65/125 78/62/155
f 61/63/121 78/62/155 63/65/125
f 81/51/161 65/52/129 80/64/159
f 63/65/125 80/64/159 65/52/129
f 79/60/157 64/61/127 81/51/161
f 65/52/129 81/51/161 64/61/127
f 77/62/153 62/63/123 79/60/157
f 64/61/127 79/60/157 62/63/123
f 75/64/149 60/65/119 77/62/153
f 62/63/123 77/62/153 60/65/119
f 73/51/145 58/52/115 75/64/149
f 60/65/119 75/64/149 58/52/115
f 71/60/141 56/61/111 73/51/145
f 58/52/115 73/51/145 56/61/111
f 66/62/131 54/63/107 71/60/141
f 56/61/111 71/60/141 54/63/107
f 68/64/135 51/65/101 66/62/131
f 54/63/107 66/62/131 51/65/101
f 70/51/139 52/52/103 68/64/135
f 51/65/101 68/64/135 52/52/103
v -159.239777 -12.523712 14.170834
v -160.852844 -20.633118 14.170834
v -160.852844 -4.414306 14.170834
v -165.446442 2.460516 14.170834
v -165.446442 -27.507940 14.170834
v -172.321259 7.054126 14.170834
v -172.321259 -32.101547 14.170834
v -180.430679 8.667187 14.170834
v -180.430679 -33.714611 14.170834
v -188.540085 7.054126 14.170834
v -188.540085 -32.101547 14.170834
v -195.414902 2.460516 14.170834
v -195.414902 -27.507940 14.170834
v -200.008514 -4.414306 14.170834
v -200.008514 -20.633118 14.170834
v -201.621582 -12.523712 14.170834
v -159.239777 -12.523712 109.885353
v -160.852844 -4.414306 109.885353
v -160.852844 -20.633118 109.885353
v -165.446442 -27.507940 109.885353
v -165.446442 2.460516 109.885353
v -172.321259 -32.101547 109.885353
v -172.321259 7.054126 109.885353
v -180.430679 -33.714611 109.885353
v -180.430679 8.667187 109.885353
v -188.540085 -32.101547 109.885353
v -188.540085 7.054126 109.885353
v -195.414902 -27.507940 109.885353
v -195.414902 2.460516 109.885353
v -200.008514 -20.633118 109.885353
v -200.008514 -4.414306 109.885353
v -201.621582 -12.523712 109.885353

vt 0.999500 0.500000
vt 0.961478 0.691148
vt 0.961478 0.308852
vt 0.853201 0.146803
vt 0.853201 0.853196
vt 0.691153 0.038526
vt 0.691152 0.961473
vt 0.500002 0.000504
vt 0.500001 0.999495
vt 0.308851 0.038526
vt 0.308851 0.961474
vt 0.146802 0.146803
vt 0.146801 0.853197
vt 0.038523 0.308851
vt 0.038523 0.691149
vt 0.000500 0.500000
vt 0.691149 0.999496
vt 0.691150 0.000504
vt 0.853199 0.999496
vt 0.146799 0.000504
vt 0.308848 0.999496
vt 0.308849 0.000504

vn -0.000002 0.000000 -1.000000
vn 0.997809 0.066159 0.000000
vn -0.000001 0.000000 -1.000000
vn 0.947173 -0.320722 0.000000
vn -0.000001 0.000000 -1.000000
vn 0.896538 0.442967 0.000000
vn 0.000000 0.000000 -1.000000
vn 0.658777 0.752338 0.000000
vn -0.000000 0.000000 -1.000000
vn 0.752340 -0.658775 0.000000
vn -0.000000 0.000000 -1.000000
vn 0.320722 0.947173 0.000000
vn 0.000000 0.000000 -1.000000
vn 0.442968 -0.896537 0.000000
vn 0.000000 0.000000 -1.000000
vn -0.066159 0.997809 0.000000
vn -0.000000 0.000000 -1.000000
vn 0.066159 -0.997809 0.000000
vn 0.000000 0.000000 -1.000000
vn -0.442967 0.896538 0.000000
vn 0.000000 0.000000 -1.000000
vn -0.320722 -0.947173 0.000000
vn 0.000000 0.000000 -1.000000
vn -0.752339 0.658776 0.000000
vn -0.000000 0.000000 -1.000000
vn -0.658776 -0.752340 0.000000
vn 0.000001 0.000000 -1.000000
vn -0.947173 0.320722 0.000000
vn 0.000001 0.000000 -1.000000
vn -0.896538 -0.442967 0.000000
vn 0.000002 0.000000 -1.000000
vn -0.997809 -0.066159 0.000000
vn -0.000005 0.000000 1.000000
vn 0.997809 -0.066159 0.000000
vn -0.000002 0.000000 1.000000
vn 0.947173 0.320722 0.000000
vn -0.000003 0.000000 1.000000
vn 0.896538 -0.442967 0.000000
vn -0.000001 0.000000 1.000000
vn 0.658777 -0.752338 0.000000
vn 0.000000 0.000000 1.000000
vn 0.752340 0.658775 0.000000
vn 0.000000 0.000000 1.000000
vn 0.320722 -0.947173 0.000000
vn 0.000000 0.000000 1.000000
vn 0.442968 0.896537 0.000000
vn 0.000001 0.000000 1.000000
vn -0.066159 -0.997809 0.000000
vn -0.000000 0.000000 1.000000
vn 0.066159 0.997809 0.000000
vn -0.000000 0.000000 1.000000
vn -0.442967 -0.896538 0.000000
vn -0.000000 0.000000 1.000000
vn -0.320722 0.947173 0.000000
vn 0.000000 0.000000 1.000000
vn -0.752339 -0.658776 0.000000
vn 0.000001 0.000000 1.000000
vn -0.658776 0.752339 0.000000
vn 0.000002 0.000000 1.000000
vn -0.947173 -0.320722 0.000000
vn 0.000003 0.000000 1.000000
vn -0.896538 0.442967 0.000000
vn 0.000005 0.000000 1.000000
vn -0.997809 0.066159 0.000000

usemtl Image Texture-2
f 82/66/162 83/67/164 84/68/166
f 85/69/168 84/68/166 83/67/164
f 86/70/170 85/69/168 83/67/164
f 87/71/172 85/69/168 86/70/170
f 88/72/174 87/71/172 86/70/170
f 89/73/176 87/71/172 88/72/174
f 90/74/178 89/73/176 88/72/174
f 91/75/180 89/73/176 90/74/178
f 92/76/182 91/75/180 90/74/178
f 93/77/184 91/75/180 92/76/182
f 94/78/186 93/77/184 92/76/182
f 95/79/188 93/77/184 94/78/186
f 96/80/190 95/79/188 94/78/186
f 97/81/192 95/79/188 96/80/190
f 98/66/194 99/67/196 100/68/198
f 101/69/200 100/68/198 99/67/196
f 102/70/202 101/69/200 99/67/196
f 103/71/204 101/69/200 102/70/202
f 104/72/206 103/71/204 102/70/202
f 105/73/208 103/71/204 104/72/206
f 106/74/210 105/73/208 104/72/206
f 107/75/212 105/73/208 106/74/210
f 108/76/214 107/75/212 106/74/210
f 109/77/216 107/75/212 108/76/214
f 110/78/218 109/77/216 108/76/214
f 111/79/220 109/77/216 110/78/218
f 112/80/222 111/79/220 110/78/218
f 113/81/224 111/79/220 112/80/222
f 113/74/225 97/73/193 111/82/221
f 96/83/191 111/82/221 97/73/193
f 111/82/221 96/83/191 109/84/217
f 94/85/187 109/84/217 96/83/191
f 109/84/217 94/85/187 107/86/213
f 92/87/183 107/86/213 94/85/187
f 107/86/213 92/87/183 105/74/209
f 90/73/179 105/74/209 92/87/183
f 105/74/209 90/73/179 103/82/205
f 88/83/175 103/82/205 90/73/179
f 103/82/205 88/83/175 101/84/201
f 86/85/171 101/84/201 88/83/175
f 101/84/201 86/85/171 100/86/199
f 83/87/165 100/86/199 86/85/171
f 100/86/199 83/87/165 98/74/195
f 82/73/163 98/74/195 83/87/165
f 98/74/195 82/73/163 99/82/197
f 84/83/167 99/82/197 82/73/163
f 99/82/197 84/83/167 102/84/203
f 85/85/169 102/84/203 84/83/167
f 102/84/203 85/85/169 104/86/207
f 87/87/173 104/86/207 85/85/169
f 104/86/207 87/87/173 106/74/211
f 89/73/177 106/74/211 87/87/173
f 106/74/211 89/73/177 108/82/215
f 91/83/181 108/82/215 89/73/177
f 108/82/215 91/83/181 110/84/219
f 93/85/185 110/84/219 91/83/181
f 110/84/219 93/85/185 112/86/223
f 95/87/189 112/86/223 93/85/185
f 112/86/223 95/87/189 113/74/225
f 97/73/193 113/74/225 95/87/189

# End of File
