# Obj file Generated by Strata 3D CX(TM): http://www.strata.com
mtllib 2.mtl
v 7.323243 61.852692 74.227310
v 7.323243 83.432129 177.635208
v 7.323243 37.649311 89.133461
v 7.323243 69.388687 183.649765
v 7.323243 12.978889 125.851265
v 7.323243 59.972496 193.395554
v 7.323243 -0.000001 173.187057
v 7.323243 54.924007 206.199814
v 7.323243 55.122787 231.452454
v 7.323243 0.313567 231.495636
v -7.323243 12.978889 125.851265
v -7.323243 -0.000001 173.187057
v -7.323243 59.972496 193.395554
v -7.323243 54.924007 206.199814
v -7.323243 37.649311 89.133461
v -7.323243 61.852692 74.227310
v -7.323243 83.432129 177.635208
v -7.323243 69.388687 183.649765
v -7.323243 55.122787 231.452454
v -7.323243 0.313567 231.495636

vt 0.689384 0.065493
vt 0.721088 0.569638
vt 0.391878 0.037520
vt 0.706023 0.662445
vt 0.287404 0.201813
vt 0.683192 0.800248
vt 0.276507 0.532773
vt 0.658870 0.890092
vt 0.660123 0.931740
vt 0.276696 0.806095
vt 0.212596 0.201813
vt 0.223493 0.532773
vt 0.816808 0.800248
vt 0.841130 0.890092
vt 0.108122 0.037520
vt 0.810616 0.065493
vt 0.778912 0.569638
vt 0.793977 0.662445
vt 0.839877 0.931740
vt 0.223304 0.806095

vn 1.000000 0.000000 0.000000
vn 0.000000 -0.524398 -0.851474
vn 0.000000 0.978912 -0.204282
vn 1.000000 0.000000 0.000000
vn 0.000000 0.978912 -0.204282
vn 0.000000 0.393695 0.919241
vn 1.000000 0.000000 0.000000
vn 0.000000 -0.743152 -0.669122
vn 1.000000 0.000000 0.000000
vn 0.000000 0.511139 0.859498
vn 1.000000 0.000000 0.000000
vn 0.000000 -0.930439 -0.366447
vn 1.000000 0.000000 0.000000
vn 0.000000 0.803241 0.595654
vn 1.000000 -0.000000 0.000000
vn 0.000000 -0.996359 -0.085262
vn 1.000000 -0.000000 0.000000
vn 0.000000 0.969293 0.245911
vn 1.000000 -0.000000 0.000000
vn 0.000000 0.999969 -0.007871
vn 0.000000 0.000788 1.000000
vn 1.000000 -0.000000 0.000000
vn 0.000000 0.000788 1.000000
vn 0.000000 -0.999986 0.005378
vn -1.000000 0.000000 0.000000
vn 0.000000 -0.885124 -0.465354
vn -1.000000 -0.000000 0.000000
vn 0.000000 -0.984400 -0.175947
vn -1.000000 0.000000 0.000000
vn 0.000000 0.874842 0.484409
vn -1.000000 -0.000000 0.000000
vn 0.000000 0.992900 0.118954
vn 0.000000 -0.639173 -0.769063
vn -1.000000 0.000000 0.000000
vn 0.000000 -0.524398 -0.851474
vn 0.000000 0.978912 -0.204282
vn -1.000000 0.000000 0.000000
vn 0.000000 0.978912 -0.204282
vn 0.000000 0.393695 0.919241
vn -1.000000 0.000000 0.000000
vn 0.000000 0.621562 0.783365
vn -1.000000 0.000000 0.000000
vn 0.000000 0.999969 -0.007871
vn 0.000000 0.000788 1.000000
vn -1.000000 -0.000000 0.000000
vn 0.000000 0.000788 1.000000
vn 0.000000 -0.999986 0.005378
vn -1.000000 -0.000000 0.000000

usemtl Image Texture-1
f 1/1/1 2/2/4 3/3/7
f 2/2/4 4/4/9 3/3/7
f 5/5/11 6/6/13 7/7/15
f 6/6/13 8/8/17 7/7/15
f 3/3/7 4/4/9 5/5/11
f 4/4/9 6/6/13 5/5/11
f 9/9/19 10/10/22 8/8/17
f 7/7/15 8/8/17 10/10/22
f 11/11/25 12/12/27 13/13/29
f 12/12/27 14/14/31 13/13/29
f 6/6/14 13/13/30 8/8/18
f 14/14/32 8/8/18 13/13/30
f 3/3/8 15/15/33 1/1/2
f 16/16/35 1/1/2 15/15/33
f 1/1/3 16/16/36 2/2/5
f 17/17/38 2/2/5 16/16/36
f 2/2/6 17/17/39 4/4/10
f 18/18/41 4/4/10 17/17/39
f 8/8/18 14/14/32 9/9/20
f 19/19/43 9/9/20 14/14/32
f 9/9/21 19/19/44 10/10/23
f 20/20/46 10/10/23 19/19/44
f 10/10/24 20/20/47 7/7/16
f 12/12/28 7/7/16 20/20/47
f 7/7/16 12/12/28 5/5/12
f 11/11/26 5/5/12 12/12/28
f 5/5/12 11/11/26 3/3/8
f 15/15/33 3/3/8 11/11/26
f 4/4/10 18/18/41 6/6/14
f 13/13/30 6/6/14 18/18/41
f 12/12/27 20/20/48 14/14/31
f 20/20/48 19/19/45 14/14/31
f 15/15/34 11/11/25 18/18/42
f 11/11/25 13/13/29 18/18/42
f 16/16/37 15/15/34 17/17/40
f 15/15/34 18/18/42 17/17/40
v -35.861900 90.391350 74.227310
v -14.282467 90.391350 177.635208
v -60.065281 90.391350 89.133461
v -28.325907 90.391350 183.649765
v -84.735703 90.391350 125.851265
v -37.742096 90.391350 193.395554
v -97.714592 90.391350 173.187057
v -42.790588 90.391350 206.199814
v -42.591805 90.391350 231.452454
v -97.401024 90.391350 231.495636
v -84.735703 105.037834 125.851265
v -97.714592 105.037834 173.187057
v -37.742096 105.037834 193.395554
v -42.790588 105.037834 206.199814
v -35.861900 105.037834 74.227310
v -60.065281 105.037834 89.133461
v -14.282467 105.037834 177.635208
v -28.325907 105.037834 183.649765
v -42.591805 105.037834 231.452454
v -97.401024 105.037834 231.495636

vt 0.439384 0.065493
vt 0.471088 0.569638
vt 0.141878 0.037520
vt 0.456023 0.662445
vt 0.037404 0.201813
vt 0.433192 0.800248
vt 0.026507 0.532773
vt 0.408870 0.890092
vt 0.410123 0.931740
vt 0.026696 0.806095
vt 0.962596 0.201813
vt 0.973493 0.532773
vt 0.566808 0.800248
vt 0.591130 0.890092
vt 0.560616 0.065493
vt 0.858122 0.037520
vt 0.528912 0.569638
vt 0.543977 0.662445
vt 0.589877 0.931740
vt 0.973304 0.806095

vn 0.000000 -1.000000 0.000000
vn -0.524398 0.000000 -0.851474
vn 0.978912 0.000000 -0.204282
vn 0.000000 -1.000000 0.000000
vn 0.978912 0.000000 -0.204282
vn 0.393694 0.000000 0.919241
vn 0.000000 -1.000000 0.000000
vn -0.639173 0.000000 -0.769063
vn 0.000000 -1.000000 0.000000
vn 0.511139 0.000000 0.859498
vn 0.000000 -1.000000 0.000000
vn -0.885124 0.000000 -0.465355
vn 0.000000 -1.000000 -0.000000
vn 0.803242 0.000000 0.595653
vn 0.000000 -1.000000 -0.000000
vn -0.991417 0.000000 -0.130741
vn 0.000000 -1.000000 -0.000000
vn 0.969293 0.000000 0.245911
vn 0.000000 -1.000000 0.000000
vn 0.999969 0.000000 -0.007872
vn 0.000788 0.000000 1.000000
vn 0.000000 -1.000000 -0.000000
vn 0.000788 0.000000 1.000000
vn -0.999986 0.000000 0.005378
vn 0.000000 1.000000 0.000000
vn -0.930439 0.000000 -0.366447
vn 0.000000 1.000000 -0.000000
vn -0.991417 0.000000 -0.130741
vn 0.000000 1.000000 0.000000
vn 0.874841 0.000000 0.484409
vn 0.000000 1.000000 -0.000000
vn 0.992900 0.000000 0.118955
vn -0.524398 0.000000 -0.851474
vn 0.978912 0.000000 -0.204282
vn 0.000000 1.000000 0.000000
vn -0.743152 0.000000 -0.669122
vn 0.000000 1.000000 -0.000000
vn 0.978912 0.000000 -0.204282
vn 0.393694 0.000000 0.919241
vn 0.000000 1.000000 0.000000
vn 0.621562 0.000000 0.783365
vn 0.000000 1.000000 0.000000
vn 0.999969 0.000000 -0.007872
vn 0.000788 0.000000 1.000000
vn 0.000000 1.000000 -0.000000
vn 0.000788 0.000000 1.000000
vn -0.999986 0.000000 0.005378
vn 0.000000 1.000000 -0.000000

usemtl Image Texture-1
f 21/21/49 22/22/52 23/23/55
f 22/22/52 24/24/57 23/23/55
f 25/25/59 26/26/61 27/27/63
f 26/26/61 28/28/65 27/27/63
f 23/23/55 24/24/57 25/25/59
f 24/24/57 26/26/61 25/25/59
f 29/29/67 30/30/70 28/28/65
f 27/27/63 28/28/65 30/30/70
f 31/31/73 32/32/75 33/33/77
f 32/32/75 34/34/79 33/33/77
f 26/26/62 33/33/78 28/28/66
f 33/33/78 34/34/80 28/28/66
f 21/21/50 23/23/56 35/35/81
f 23/23/56 36/36/84 35/35/81
f 22/22/53 21/21/51 37/37/86
f 21/21/51 35/35/82 37/37/86
f 22/22/54 37/37/87 24/24/58
f 37/37/87 38/38/89 24/24/58
f 29/29/68 34/34/80 39/39/91
f 28/28/66 34/34/80 29/29/68
f 30/30/71 39/39/92 40/40/94
f 29/29/69 39/39/92 30/30/71
f 27/27/64 40/40/95 32/32/76
f 30/30/72 40/40/95 27/27/64
f 25/25/60 27/27/64 31/31/74
f 27/27/64 32/32/76 31/31/74
f 23/23/56 25/25/60 36/36/84
f 25/25/60 31/31/74 36/36/84
f 24/24/58 38/38/89 26/26/62
f 38/38/89 33/33/78 26/26/62
f 32/32/75 40/40/96 34/34/79
f 40/40/96 39/39/93 34/34/79
f 36/36/85 31/31/73 38/38/90
f 31/31/73 33/33/77 38/38/90
f 35/35/83 36/36/85 37/37/88
f 36/36/85 38/38/90 37/37/88
v 35.861900 105.037834 74.227310
v 14.282467 105.037834 177.635208
v 60.065281 105.037834 89.133461
v 28.325907 105.037834 183.649765
v 84.735703 105.037834 125.851265
v 37.742096 105.037834 193.395554
v 97.714592 105.037834 173.187057
v 42.790588 105.037834 206.199814
v 42.591805 105.037834 231.452454
v 97.401024 105.037834 231.495636
v 84.735703 90.391350 125.851265
v 97.714592 90.391350 173.187057
v 37.742096 90.391350 193.395554
v 42.790588 90.391350 206.199814
v 35.861900 90.391350 74.227310
v 60.065281 90.391350 89.133461
v 14.282467 90.391350 177.635208
v 28.325907 90.391350 183.649765
v 42.591805 90.391350 231.452454
v 97.401024 90.391350 231.495636

vt 0.939384 0.065493
vt 0.971088 0.569638
vt 0.641878 0.037520
vt 0.956023 0.662445
vt 0.537404 0.201813
vt 0.933192 0.800248
vt 0.526507 0.532773
vt 0.908870 0.890092
vt 0.910123 0.931740
vt 0.526696 0.806095
vt 0.462596 0.201813
vt 0.473493 0.532773
vt 0.066808 0.800248
vt 0.091130 0.890092
vt 0.060616 0.065493
vt 0.358122 0.037520
vt 0.028912 0.569638
vt 0.043977 0.662445
vt 0.089877 0.931740
vt 0.473304 0.806095

vn 0.000000 1.000000 0.000000
vn 0.524398 0.000000 -0.851474
vn -0.978912 0.000000 -0.204282
vn 0.000000 1.000000 0.000000
vn -0.978912 0.000000 -0.204282
vn -0.393694 0.000000 0.919241
vn 0.000000 1.000000 -0.000000
vn 0.692967 0.000000 -0.720969
vn 0.000000 1.000000 0.000000
vn -0.567629 0.000000 0.823285
vn 0.000000 1.000000 0.000000
vn 0.909128 0.000000 -0.416517
vn 0.000000 1.000000 0.000000
vn -0.840883 0.000000 0.541217
vn 0.000000 1.000000 -0.000000
vn 0.984400 0.000000 -0.175947
vn 0.000000 1.000000 -0.000000
vn -0.992900 0.000000 0.118955
vn 0.000000 1.000000 -0.000000
vn -0.999969 0.000000 -0.007872
vn -0.000788 0.000000 1.000000
vn 0.000000 1.000000 -0.000000
vn -0.000788 0.000000 1.000000
vn 0.999986 0.000000 0.005378
vn 0.000000 -1.000000 0.000000
vn 0.909128 0.000000 -0.416517
vn 0.000000 -1.000000 -0.000000
vn 0.996359 0.000000 -0.085262
vn 0.000000 -1.000000 -0.000000
vn -0.840883 0.000000 0.541217
vn 0.000000 -1.000000 -0.000000
vn -0.969293 0.000000 0.245911
vn 0.524398 0.000000 -0.851474
vn -0.978912 0.000000 -0.204282
vn 0.000000 -1.000000 0.000000
vn 0.692967 0.000000 -0.720969
vn 0.000000 -1.000000 0.000000
vn -0.978912 0.000000 -0.204282
vn -0.393694 0.000000 0.919241
vn 0.000000 -1.000000 0.000000
vn -0.567628 0.000000 0.823285
vn 0.000000 -1.000000 0.000000
vn -0.999969 0.000000 -0.007872
vn -0.000788 0.000000 1.000000
vn 0.000000 -1.000000 0.000000
vn -0.000788 0.000000 1.000000
vn 0.999986 0.000000 0.005378
vn 0.000000 -1.000000 -0.000000

usemtl Image Texture-1
f 41/41/97 42/42/100 43/43/103
f 42/42/100 44/44/105 43/43/103
f 45/45/107 46/46/109 47/47/111
f 46/46/109 48/48/113 47/47/111
f 43/43/103 44/44/105 45/45/107
f 44/44/105 46/46/109 45/45/107
f 49/49/115 50/50/118 48/48/113
f 47/47/111 48/48/113 50/50/118
f 51/51/121 52/52/123 53/53/125
f 52/52/123 54/54/127 53/53/125
f 46/46/110 54/54/128 48/48/114
f 53/53/126 54/54/128 46/46/110
f 41/41/98 43/43/104 55/55/129
f 56/56/132 55/55/129 43/43/104
f 42/42/101 41/41/99 57/57/134
f 55/55/130 57/57/134 41/41/99
f 42/42/102 58/58/137 44/44/106
f 57/57/135 58/58/137 42/42/102
f 49/49/116 48/48/114 59/59/139
f 54/54/128 59/59/139 48/48/114
f 49/49/117 59/59/140 50/50/119
f 60/60/142 50/50/119 59/59/140
f 47/47/112 50/50/120 52/52/124
f 60/60/143 52/52/124 50/50/120
f 45/45/108 47/47/112 51/51/122
f 52/52/124 51/51/122 47/47/112
f 45/45/108 51/51/122 43/43/104
f 56/56/132 43/43/104 51/51/122
f 44/44/106 58/58/137 46/46/110
f 53/53/126 46/46/110 58/58/137
f 52/52/123 60/60/144 54/54/127
f 60/60/144 59/59/141 54/54/127
f 56/56/133 51/51/121 58/58/138
f 51/51/121 53/53/125 58/58/138
f 55/55/131 56/56/133 57/57/136
f 56/56/133 58/58/138 57/57/136
v -7.323243 133.576492 74.227310
v -7.323243 111.997055 177.635208
v -7.323243 157.779877 89.133461
v -7.323243 126.040497 183.649765
v -7.323243 182.450287 125.851265
v -7.323243 135.456696 193.395554
v -7.323243 195.429184 173.187057
v -7.323243 140.505173 206.199814
v -7.323243 140.306396 231.452454
v -7.323243 195.115616 231.495636
v 7.323243 182.450287 125.851265
v 7.323243 195.429184 173.187057
v 7.323243 135.456696 193.395554
v 7.323243 140.505173 206.199814
v 7.323243 133.576492 74.227310
v 7.323243 157.779877 89.133461
v 7.323243 111.997055 177.635208
v 7.323243 126.040497 183.649765
v 7.323243 140.306396 231.452454
v 7.323243 195.115616 231.495636

vt 0.189384 0.065493
vt 0.221088 0.569638
vt 0.891878 0.037520
vt 0.206023 0.662445
vt 0.787404 0.201813
vt 0.183192 0.800248
vt 0.776507 0.532773
vt 0.158870 0.890092
vt 0.160123 0.931740
vt 0.776696 0.806095
vt 0.712596 0.201813
vt 0.723493 0.532773
vt 0.316808 0.800248
vt 0.341130 0.890092
vt 0.310616 0.065493
vt 0.608122 0.037520
vt 0.278912 0.569638
vt 0.293977 0.662445
vt 0.339877 0.931740
vt 0.723304 0.806095

vn -1.000000 -0.000000 0.000000
vn 0.000000 0.524398 -0.851473
vn 0.000000 -0.978912 -0.204282
vn -1.000000 -0.000000 0.000000
vn 0.000000 -0.978912 -0.204282
vn 0.000000 -0.393695 0.919241
vn -1.000000 -0.000000 0.000000
vn 0.000000 0.639173 -0.769063
vn -1.000000 -0.000000 0.000000
vn 0.000000 -0.511139 0.859498
vn -1.000000 -0.000000 0.000000
vn 0.000000 0.885124 -0.465354
vn -1.000000 -0.000000 0.000000
vn 0.000000 -0.803242 0.595653
vn -1.000000 0.000000 0.000000
vn 0.000000 0.991417 -0.130741
vn -1.000000 0.000000 0.000000
vn 0.000000 -0.969293 0.245911
vn -1.000000 0.000000 0.000000
vn 0.000000 -0.999969 -0.007872
vn 0.000000 -0.000788 1.000000
vn -1.000000 0.000000 0.000000
vn 0.000000 -0.000788 1.000000
vn 0.000000 0.999986 0.005378
vn 1.000000 -0.000000 0.000000
vn 0.000000 0.930439 -0.366447
vn 1.000000 0.000000 0.000000
vn 0.000000 0.991417 -0.130741
vn 1.000000 -0.000000 0.000000
vn 0.000000 -0.874842 0.484409
vn 1.000000 0.000000 0.000000
vn 0.000000 -0.992900 0.118954
vn 0.000000 0.524398 -0.851473
vn 0.000000 -0.978912 -0.204282
vn 1.000000 -0.000000 0.000000
vn 0.000000 0.743152 -0.669122
vn 1.000000 -0.000000 0.000000
vn 0.000000 -0.978912 -0.204282
vn 0.000000 -0.393695 0.919241
vn 1.000000 -0.000000 0.000000
vn 0.000000 -0.621562 0.783365
vn 1.000000 -0.000000 0.000000
vn 0.000000 -0.999969 -0.007872
vn 0.000000 -0.000788 1.000000
vn 1.000000 0.000000 0.000000
vn 0.000000 -0.000788 1.000000
vn 0.000000 0.999986 0.005378
vn 1.000000 0.000000 0.000000

usemtl Image Texture-1
f 61/61/145 62/62/148 63/63/151
f 62/62/148 64/64/153 63/63/151
f 65/65/155 66/66/157 67/67/159
f 66/66/157 68/68/161 67/67/159
f 63/63/151 64/64/153 65/65/155
f 64/64/153 66/66/157 65/65/155
f 69/69/163 70/70/166 68/68/161
f 67/67/159 68/68/161 70/70/166
f 71/71/169 72/72/171 73/73/173
f 72/72/171 74/74/175 73/73/173
f 66/66/158 73/73/174 68/68/162
f 73/73/174 74/74/176 68/68/162
f 61/61/146 63/63/152 75/75/177
f 63/63/152 76/76/180 75/75/177
f 62/62/149 61/61/147 77/77/182
f 61/61/147 75/75/178 77/77/182
f 62/62/150 77/77/183 64/64/154
f 77/77/183 78/78/185 64/64/154
f 69/69/164 74/74/176 79/79/187
f 68/68/162 74/74/176 69/69/164
f 70/70/167 79/79/188 80/80/190
f 69/69/165 79/79/188 70/70/167
f 67/67/160 80/80/191 72/72/172
f 70/70/168 80/80/191 67/67/160
f 65/65/156 67/67/160 71/71/170
f 67/67/160 72/72/172 71/71/170
f 63/63/152 65/65/156 76/76/180
f 65/65/156 71/71/170 76/76/180
f 64/64/154 78/78/185 66/66/158
f 78/78/185 73/73/174 66/66/158
f 72/72/171 80/80/192 74/74/175
f 80/80/192 79/79/189 74/74/175
f 76/76/181 71/71/169 78/78/186
f 71/71/169 73/73/173 78/78/186
f 75/75/179 76/76/181 77/77/184
f 76/76/181 78/78/186 77/77/184

# End of File
