# Obj file Generated by Strata 3D CX(TM): http://www.strata.com
mtllib 1.mtl
v 17.711388 104.065605 -169.885284
v 19.170666 96.729309 -169.885284
v -0.000000 96.729309 -231.495621
v 13.555708 110.285019 -169.885284
v 7.336297 114.440697 -169.885284
v -0.000000 115.899979 -169.885284
v -7.336297 114.440697 -169.885284
v -13.555708 110.285019 -169.885284
v -17.711388 104.065605 -169.885284
v -19.170666 96.729309 -169.885284
v -17.711388 89.393013 -169.885284
v -13.555708 83.173599 -169.885284
v -7.336297 79.017921 -169.885284
v -0.000000 77.558647 -169.885284
v 7.336297 79.017921 -169.885284
v 13.555708 83.173599 -169.885284
v 17.711388 89.393013 -169.885284
v 29.945694 84.325394 -111.675064
v 32.412987 96.729309 -111.675064
v 36.454807 81.629234 -48.526047
v 39.458397 96.729309 -48.526047
v 36.454807 111.829384 -48.526047
v 29.945694 109.133224 -111.675064
v 27.901302 124.630608 -48.526047
v 22.919441 119.648750 -111.675064
v 12.403913 126.675003 -111.675064
v 15.100075 133.184113 -48.526047
v -0.000000 136.187714 -48.526047
v -0.000000 129.142288 -111.675064
v -15.100075 133.184113 -48.526047
v -12.403913 126.675003 -111.675064
v -27.901302 124.630608 -48.526047
v -22.919441 119.648750 -111.675064
v -29.945694 109.133224 -111.675064
v -36.454807 111.829384 -48.526047
v -32.412987 96.729309 -111.675064
v -39.458397 96.729309 -48.526047
v -36.454807 81.629234 -48.526047
v -29.945694 84.325394 -111.675064
v -27.901302 68.828011 -48.526047
v -22.919441 73.809868 -111.675064
v -12.403913 66.783615 -111.675064
v -15.100075 60.274502 -48.526047
v -0.000000 64.316322 -111.675064
v -0.000000 57.270912 -48.526047
v 15.100075 60.274502 -48.526047
v 12.403913 66.783615 -111.675064
v 27.901302 68.828011 -48.526047
v 22.919441 73.809868 -111.675064
v 42.123352 96.729309 32.494072
v 38.916901 112.849220 32.494072
v 29.785706 126.515015 32.494072
v 16.119907 135.646210 32.494072
v -0.000000 138.852661 32.494072
v -16.119907 135.646210 32.494072
v -29.785706 126.515015 32.494072
v -38.916901 112.849220 32.494072
v -42.123352 96.729309 32.494072
v -38.916901 80.609398 32.494072
v -29.785706 66.943604 32.494072
v -16.119907 57.812412 32.494072
v -0.000000 54.605961 32.494072
v 16.119907 57.812412 32.494072
v 29.785706 66.943604 32.494072
v 38.916901 80.609398 32.494072
v 37.151283 81.340744 111.368965
v 40.212257 96.729309 111.368965
v 37.151283 112.117874 111.368965
v 28.434361 125.163673 111.368965
v 15.388565 133.880585 111.368965
v -0.000000 136.941559 111.368965
v -15.388565 133.880585 111.368965
v -28.434361 125.163673 111.368965
v -37.151283 112.117874 111.368965
v -40.212257 96.729309 111.368965
v -37.151283 81.340744 111.368965
v -28.434361 68.294952 111.368965
v -15.388565 59.578030 111.368965
v -0.000000 56.517052 111.368965
v 15.388565 59.578030 111.368965
v 28.434361 68.294952 111.368965
v 22.220818 105.933472 180.630966
v 24.051641 96.729309 180.630966
v 17.007078 113.736389 180.630966
v 9.204165 118.950127 180.630966
v -0.000000 120.780952 180.630966
v -9.204165 118.950127 180.630966
v -17.007078 113.736389 180.630966
v -22.220818 105.933472 180.630966
v -24.051641 96.729309 180.630966
v -22.220818 87.525146 180.630966
v -17.007078 79.722229 180.630966
v -9.204165 74.508492 180.630966
v -0.000000 72.677673 180.630966
v 9.204165 74.508492 180.630966
v 17.007078 79.722229 180.630966
v 22.220818 87.525146 180.630966

vt 0.187500 0.149843
vt 0.125000 0.149843
vt 0.157465 0.000501
vt 0.250000 0.149843
vt 0.220394 0.000501
vt 0.312500 0.149843
vt 0.279458 0.000501
vt 0.375000 0.149843
vt 0.343533 0.000501
vt 0.437500 0.149843
vt 0.406467 0.000501
vt 0.500000 0.149843
vt 0.470542 0.000501
vt 0.562500 0.149843
vt 0.529606 0.000501
vt 0.625000 0.149843
vt 0.592535 0.000501
vt 0.687500 0.149843
vt 0.657465 0.000501
vt 0.750000 0.149843
vt 0.720394 0.000501
vt 0.812500 0.149843
vt 0.779458 0.000501
vt 0.875000 0.149843
vt 0.843533 0.000501
vt 0.937500 0.149843
vt 0.906467 0.000501
vt 1.000000 0.149843
vt 0.970542 0.000501
vt 0.062500 0.149843
vt 0.000000 0.149843
vt 0.029606 0.000501
vt 0.092535 0.000501
vt 0.062500 0.290947
vt 0.124999 0.290947
vt 0.062500 0.444019
vt 0.125000 0.444020
vt 0.187499 0.444020
vt 0.187500 0.290947
vt 0.249999 0.444020
vt 0.250000 0.290947
vt 0.312499 0.290947
vt 0.312500 0.444020
vt 0.374999 0.444020
vt 0.375000 0.290947
vt 0.437499 0.444020
vt 0.437500 0.290947
vt 0.499999 0.444020
vt 0.500000 0.290947
vt 0.562499 0.290947
vt 0.562500 0.444020
vt 0.624999 0.290947
vt 0.625000 0.444020
vt 0.687499 0.444020
vt 0.687500 0.290947
vt 0.749999 0.444020
vt 0.750000 0.290947
vt 0.812499 0.290947
vt 0.812500 0.444020
vt 0.874999 0.290947
vt 0.875000 0.444020
vt 0.937499 0.444020
vt 0.937500 0.290947
vt 0.999999 0.444020
vt 1.000000 0.290947
vt 0.000000 0.290947
vt 0.000000 0.444019
vt 0.125000 0.640414
vt 0.187499 0.640414
vt 0.249999 0.640414
vt 0.312500 0.640414
vt 0.374999 0.640414
vt 0.437499 0.640414
vt 0.499999 0.640414
vt 0.562499 0.640414
vt 0.624999 0.640414
vt 0.687499 0.640414
vt 0.750000 0.640414
vt 0.812499 0.640414
vt 0.874999 0.640414
vt 0.937499 0.640414
vt 0.999999 0.640414
vt 0.000000 0.640414
vt 0.062499 0.640414
vt 0.062500 0.831607
vt 0.124999 0.831607
vt 0.187499 0.831607
vt 0.250000 0.831607
vt 0.312499 0.831607
vt 0.374999 0.831607
vt 0.437499 0.831607
vt 0.499999 0.831607
vt 0.562499 0.831607
vt 0.624999 0.831607
vt 0.687499 0.831607
vt 0.750000 0.831607
vt 0.812499 0.831607
vt 0.874999 0.831607
vt 0.937499 0.831607
vt 0.999999 0.831607
vt 0.000000 0.831607
vt 0.187500 0.999500
vt 0.125001 0.999500
vt 0.249999 0.999500
vt 0.312499 0.999500
vt 0.375000 0.999500
vt 0.437499 0.999500
vt 0.499999 0.999500
vt 0.562499 0.999500
vt 0.625000 0.999500
vt 0.687499 0.999500
vt 0.749999 0.999500
vt 0.812499 0.999500
vt 0.875000 0.999500
vt 0.937500 0.999500
vt 0.999999 0.999500
vt 0.000000 0.999500
vt 0.062499 0.999500

vn 0.908198 0.334214 -0.251946
vn 0.965695 0.000000 -0.259678
vn 0.000000 0.000000 -1.000000
vn 0.685180 0.685180 -0.247098
vn 0.334214 0.908198 -0.251946
vn 0.000000 0.965695 -0.259678
vn -0.334214 0.908198 -0.251946
vn -0.685180 0.685180 -0.247098
vn -0.908198 0.334214 -0.251946
vn -0.965695 0.000000 -0.259678
vn -0.908198 -0.334214 -0.251946
vn -0.685180 -0.685180 -0.247098
vn -0.334214 -0.908199 -0.251946
vn 0.000000 -0.965695 -0.259678
vn 0.334214 -0.908199 -0.251946
vn 0.685180 -0.685180 -0.247098
vn 0.908198 -0.334214 -0.251946
vn 0.884056 -0.436801 -0.166280
vn 0.986019 -0.000000 -0.166635
vn 0.944730 -0.319895 -0.071780
vn 0.997153 0.039755 -0.064077
vn 0.921417 0.381858 -0.071937
vn 0.884056 0.436801 -0.166280
vn 0.704551 0.704551 -0.084940
vn 0.697220 0.697221 -0.166635
vn 0.403328 0.901201 -0.158632
vn 0.382019 0.922275 -0.058920
vn -0.000180 0.997409 -0.071937
vn -0.028262 0.984252 -0.174497
vn -0.381858 0.921417 -0.071937
vn -0.436801 0.884057 -0.166280
vn -0.724782 0.684608 -0.077480
vn -0.697220 0.697221 -0.166635
vn -0.884056 0.436801 -0.166280
vn -0.944730 0.319895 -0.071780
vn -0.986019 -0.000000 -0.166635
vn -0.997153 -0.039755 -0.064077
vn -0.935348 -0.344638 -0.079678
vn -0.884056 -0.436801 -0.166280
vn -0.705275 -0.705275 -0.071937
vn -0.697221 -0.697220 -0.166635
vn -0.436801 -0.884056 -0.166280
vn -0.319895 -0.944730 -0.071780
vn -0.000000 -0.986019 -0.166635
vn 0.039755 -0.997153 -0.064077
vn 0.381858 -0.921417 -0.071937
vn 0.436801 -0.884056 -0.166280
vn 0.724782 -0.684608 -0.077480
vn 0.697221 -0.697220 -0.166635
vn 0.999991 0.000008 -0.004328
vn 0.938313 0.345642 -0.010032
vn 0.707100 0.707100 -0.004328
vn 0.345652 0.938362 0.001383
vn -0.000008 0.999991 -0.004328
vn -0.382687 0.923868 -0.004328
vn -0.707106 0.707095 -0.004328
vn -0.923874 0.382673 -0.004328
vn -0.999991 -0.000008 -0.004328
vn -0.923791 -0.382647 -0.013848
vn -0.707097 -0.707097 0.005192
vn -0.382673 -0.923874 -0.004328
vn 0.000008 -0.999991 -0.004328
vn 0.382687 -0.923868 -0.004328
vn 0.707106 -0.707095 -0.004328
vn 0.923874 -0.382673 -0.004328
vn 0.902663 -0.417110 0.105920
vn 0.989836 -0.065630 0.126163
vn 0.916465 0.379612 0.126435
vn 0.671392 0.726438 0.146698
vn 0.417110 0.902663 0.105919
vn 0.028527 0.989607 0.140938
vn -0.378845 0.916783 0.126435
vn -0.700845 0.702019 0.126435
vn -0.902663 0.417110 0.105920
vn -0.989607 0.028527 0.140938
vn -0.907081 -0.405838 0.111803
vn -0.671392 -0.726438 0.146698
vn -0.417110 -0.902663 0.105919
vn -0.065630 -0.989836 0.126163
vn 0.352351 -0.925195 0.140938
vn 0.700845 -0.702019 0.126435
vn 0.899713 0.372673 0.227223
vn 0.000002 0.000000 1.000000
vn 0.971819 0.064436 0.226751
vn 0.000007 0.000000 1.000000
vn 0.732743 0.641617 0.226751
vn -0.000001 0.000000 1.000000
vn 0.372674 0.899713 0.227223
vn -0.000001 0.000000 1.000000
vn 0.000000 0.973843 0.227223
vn -0.000001 0.000000 1.000000
vn -0.312368 0.922502 0.226751
vn -0.000001 0.000000 1.000000
vn -0.641617 0.732743 0.226751
vn 0.000001 0.000000 1.000000
vn -0.899714 0.372674 0.227223
vn -0.000002 0.000000 1.000000
vn -0.973843 0.000000 0.227223
vn -0.000007 0.000000 1.000000
vn -0.922502 -0.312368 0.226751
vn -0.000002 0.000000 1.000000
vn -0.732743 -0.641617 0.226751
vn 0.000000 0.000000 1.000000
vn -0.372674 -0.899714 0.227223
vn 0.000001 0.000000 1.000000
vn 0.064436 -0.971819 0.226751
vn 0.000001 0.000000 1.000000
vn 0.372673 -0.899713 0.227223
vn 0.000001 0.000000 1.000000
vn 0.641617 -0.732743 0.226751
vn 0.000000 0.000000 1.000000
vn 0.899713 -0.372674 0.227223
vn 0.000004 0.000000 1.000000

usemtl Image Texture-11
f 1/1/1 2/2/2 3/3/3
f 4/4/4 1/1/1 3/5/3
f 5/6/5 4/4/4 3/7/3
f 6/8/6 5/6/5 3/9/3
f 7/10/7 6/8/6 3/11/3
f 8/12/8 7/10/7 3/13/3
f 9/14/9 8/12/8 3/15/3
f 10/16/10 9/14/9 3/17/3
f 11/18/11 10/16/10 3/19/3
f 12/20/12 11/18/11 3/21/3
f 13/22/13 12/20/12 3/23/3
f 14/24/14 13/22/13 3/25/3
f 15/26/15 14/24/14 3/27/3
f 16/28/16 15/26/15 3/29/3
f 17/30/17 16/31/16 3/32/3
f 17/30/17 3/33/3 2/2/2
f 18/34/18 19/35/19 20/36/20
f 19/35/19 21/37/21 20/36/20
f 19/35/19 22/38/22 21/37/21
f 23/39/23 22/38/22 19/35/19
f 23/39/23 24/40/24 22/38/22
f 25/41/25 24/40/24 23/39/23
f 25/41/25 26/42/26 24/40/24
f 26/42/26 27/43/27 24/40/24
f 26/42/26 28/44/28 27/43/27
f 29/45/29 28/44/28 26/42/26
f 29/45/29 30/46/30 28/44/28
f 31/47/31 30/46/30 29/45/29
f 31/47/31 32/48/32 30/46/30
f 33/49/33 32/48/32 31/47/31
f 33/49/33 34/50/34 32/48/32
f 34/50/34 35/51/35 32/48/32
f 34/50/34 36/52/36 35/51/35
f 36/52/36 37/53/37 35/51/35
f 36/52/36 38/54/38 37/53/37
f 39/55/39 38/54/38 36/52/36
f 39/55/39 40/56/40 38/54/38
f 41/57/41 40/56/40 39/55/39
f 41/57/41 42/58/42 40/56/40
f 42/58/42 43/59/43 40/56/40
f 42/58/42 44/60/44 43/59/43
f 44/60/44 45/61/45 43/59/43
f 44/60/44 46/62/46 45/61/45
f 47/63/47 46/62/46 44/60/44
f 47/63/47 48/64/48 46/62/46
f 49/65/49 48/64/48 47/63/47
f 49/66/49 18/34/18 48/67/48
f 18/34/18 20/36/20 48/67/48
f 50/68/50 21/37/21 51/69/51
f 22/38/22 51/69/51 21/37/21
f 51/69/51 22/38/22 52/70/52
f 24/40/24 52/70/52 22/38/22
f 53/71/53 52/70/52 27/43/27
f 24/40/24 27/43/27 52/70/52
f 53/71/53 27/43/27 54/72/54
f 28/44/28 54/72/54 27/43/27
f 54/72/54 28/44/28 55/73/55
f 30/46/30 55/73/55 28/44/28
f 55/73/55 30/46/30 56/74/56
f 32/48/32 56/74/56 30/46/30
f 56/74/56 32/48/32 57/75/57
f 35/51/35 57/75/57 32/48/32
f 57/75/57 35/51/35 58/76/58
f 37/53/37 58/76/58 35/51/35
f 58/76/58 37/53/37 59/77/59
f 38/54/38 59/77/59 37/53/37
f 60/78/60 59/77/59 40/56/40
f 38/54/38 40/56/40 59/77/59
f 60/78/60 40/56/40 61/79/61
f 43/59/43 61/79/61 40/56/40
f 61/79/61 43/59/43 62/80/62
f 45/61/45 62/80/62 43/59/43
f 62/80/62 45/61/45 63/81/63
f 46/62/46 63/81/63 45/61/45
f 63/81/63 46/62/46 64/82/64
f 48/64/48 64/82/64 46/62/46
f 64/83/64 48/67/48 65/84/65
f 20/36/20 65/84/65 48/67/48
f 65/84/65 20/36/20 50/68/50
f 21/37/21 50/68/50 20/36/20
f 66/85/66 65/84/65 67/86/67
f 50/68/50 67/86/67 65/84/65
f 67/86/67 50/68/50 68/87/68
f 51/69/51 68/87/68 50/68/50
f 69/88/69 68/87/68 52/70/52
f 51/69/51 52/70/52 68/87/68
f 69/88/69 52/70/52 70/89/70
f 53/71/53 70/89/70 52/70/52
f 70/89/70 53/71/53 71/90/71
f 54/72/54 71/90/71 53/71/53
f 71/90/71 54/72/54 72/91/72
f 55/73/55 72/91/72 54/72/54
f 72/91/72 55/73/55 73/92/73
f 56/74/56 73/92/73 55/73/55
f 73/92/73 56/74/56 74/93/74
f 57/75/57 74/93/74 56/74/56
f 74/93/74 57/75/57 75/94/75
f 58/76/58 75/94/75 57/75/57
f 75/94/75 58/76/58 76/95/76
f 59/77/59 76/95/76 58/76/58
f 77/96/77 76/95/76 60/78/60
f 59/77/59 60/78/60 76/95/76
f 77/96/77 60/78/60 78/97/78
f 61/79/61 78/97/78 60/78/60
f 78/97/78 61/79/61 79/98/79
f 62/80/62 79/98/79 61/79/61
f 79/98/79 62/80/62 80/99/80
f 63/81/63 80/99/80 62/80/62
f 80/99/80 63/81/63 81/100/81
f 64/82/64 81/100/81 63/81/63
f 81/101/81 64/83/64 66/85/66
f 65/84/65 66/85/66 64/83/64
f 82/102/82 83/103/84 68/87/68
f 67/86/67 68/87/68 83/103/84
f 82/102/82 68/87/68 84/104/86
f 69/88/69 84/104/86 68/87/68
f 84/104/86 69/88/69 85/105/88
f 70/89/70 85/105/88 69/88/69
f 86/106/90 85/105/88 71/90/71
f 85/105/88 70/89/70 71/90/71
f 86/106/90 71/90/71 87/107/92
f 72/91/72 87/107/92 71/90/71
f 87/107/92 72/91/72 88/108/94
f 73/92/73 88/108/94 72/91/72
f 88/108/94 73/92/73 89/109/96
f 74/93/74 89/109/96 73/92/73
f 90/110/98 89/109/96 75/94/75
f 89/109/96 74/93/74 75/94/75
f 90/110/98 75/94/75 91/111/100
f 76/95/76 91/111/100 75/94/75
f 91/111/100 76/95/76 92/112/102
f 77/96/77 92/112/102 76/95/76
f 92/112/102 77/96/77 93/113/104
f 78/97/78 93/113/104 77/96/77
f 94/114/106 93/113/104 79/98/79
f 78/97/78 79/98/79 93/113/104
f 95/115/108 94/114/106 80/99/80
f 79/98/79 80/99/80 94/114/106
f 95/115/108 80/99/80 96/116/110
f 81/100/81 96/116/110 80/99/80
f 96/117/110 81/101/81 97/118/112
f 66/85/66 97/118/112 81/101/81
f 83/103/84 97/118/112 67/86/67
f 66/85/66 67/86/67 97/118/112
f 84/104/87 96/117/111 82/102/83
f 96/117/111 97/118/113 82/102/83
f 97/118/113 83/103/85 82/102/83
f 85/105/89 95/115/109 84/104/87
f 95/115/109 96/117/111 84/104/87
f 86/106/91 94/114/107 85/105/89
f 94/114/107 95/115/109 85/105/89
f 87/107/93 93/113/105 86/106/91
f 93/113/105 94/114/107 86/106/91
f 88/108/95 92/112/103 87/107/93
f 92/112/103 93/113/105 87/107/93
f 89/109/97 91/111/101 88/108/95
f 91/111/101 92/112/103 88/108/95
f 90/110/99 91/111/101 89/109/97
f 18/34/18 17/30/17 19/35/19
f 17/30/17 2/2/2 19/35/19
f 13/22/13 42/58/42 12/20/12
f 42/58/42 41/57/41 12/20/12
f 19/35/19 1/1/1 23/39/23
f 2/2/2 1/1/1 19/35/19
f 33/49/33 31/47/31 8/12/8
f 7/10/7 8/12/8 31/47/31
f 47/63/47 44/60/44 15/26/15
f 14/24/14 15/26/15 44/60/44
f 6/8/6 29/45/29 5/6/5
f 29/45/29 26/42/26 5/6/5
f 14/24/14 44/60/44 13/22/13
f 42/58/42 13/22/13 44/60/44
f 7/10/7 29/45/29 6/8/6
f 31/47/31 29/45/29 7/10/7
f 11/18/11 36/52/36 10/16/10
f 39/55/39 36/52/36 11/18/11
f 25/41/25 23/39/23 4/4/4
f 1/1/1 4/4/4 23/39/23
f 10/16/10 36/52/36 9/14/9
f 36/52/36 34/50/34 9/14/9
f 5/6/5 26/42/26 4/4/4
f 26/42/26 25/41/25 4/4/4
f 9/14/9 34/50/34 8/12/8
f 34/50/34 33/49/33 8/12/8
f 49/65/49 47/63/47 16/28/16
f 15/26/15 16/28/16 47/63/47
f 17/30/17 18/34/18 16/31/16
f 18/34/18 49/66/49 16/31/16
f 41/57/41 39/55/39 12/20/12
f 11/18/11 12/20/12 39/55/39

# End of File
