# Obj file Generated by Strata 3D CX(TM): http://www.strata.com
mtllib 2.mtl
v 37.160583 31.739283 -83.202301
v 37.160583 -42.509869 -83.202301
v 48.541607 14.706384 -83.202301
v 48.541607 -25.476967 -83.202301
v 52.538086 -5.385292 -83.202301
v 20.127686 43.120304 -83.202301
v 20.127686 -53.890888 -83.202301
v 0.036009 47.116787 -83.202301
v 0.036009 -57.887371 -83.202301
v -20.055666 43.120304 -83.202301
v -20.055666 -53.890888 -83.202301
v -37.088566 31.739283 -83.202301
v -37.088566 -42.509869 -83.202301
v -48.469585 14.706384 -83.202301
v -48.469585 -25.476967 -83.202301
v -52.466068 -5.385292 -83.202301
v 0.036009 -5.385292 -200.239822

vt 0.625000 0.541503
vt 0.375000 0.541503
vt 0.562500 0.541503
vt 0.437500 0.541503
vt 0.500000 0.541503
vt 0.687500 0.541503
vt 0.312500 0.541503
vt 0.750000 0.541503
vt 0.250000 0.541503
vt 0.812500 0.541503
vt 0.187500 0.541503
vt 0.875000 0.541503
vt 0.125000 0.541503
vt 0.937500 0.541503
vt 0.062500 0.541503
vt 1.000000 0.541503
vt 0.915977 0.000000

vn 0.000000 0.000000 1.000000
vn 0.645166 0.645165 -0.409296
vn -0.000000 0.000000 1.000000
vn 0.645166 -0.645165 -0.409296
vn -0.000000 0.000000 1.000000
vn 0.842949 0.349161 -0.409296
vn -0.000000 0.000000 1.000000
vn 0.842949 -0.349161 -0.409296
vn 0.000000 0.000000 1.000000
vn 0.912402 0.000000 -0.409296
vn -0.000000 0.000000 1.000000
vn 0.349161 0.842949 -0.409296
vn -0.000000 0.000000 1.000000
vn 0.349161 -0.842949 -0.409296
vn 0.000000 0.000000 1.000000
vn 0.000000 0.912402 -0.409296
vn -0.000000 0.000000 1.000000
vn 0.000000 -0.912402 -0.409296
vn 0.000000 0.000000 1.000000
vn -0.349161 0.842949 -0.409296
vn 0.000000 0.000000 1.000000
vn -0.349161 -0.842949 -0.409296
vn 0.000000 0.000000 1.000000
vn -0.645166 0.645165 -0.409296
vn 0.000000 0.000000 1.000000
vn -0.645166 -0.645165 -0.409296
vn 0.000000 0.000000 1.000000
vn -0.842949 0.349161 -0.409296
vn 0.000000 0.000000 1.000000
vn -0.842949 -0.349161 -0.409296
vn 0.000000 0.000000 1.000000
vn -0.912402 0.000000 -0.409296
vn 0.000000 -0.000000 -1.000000

usemtl Image Texture-3
f 1/1/1 2/2/3 3/3/5
f 2/2/3 4/4/7 3/3/5
f 4/4/7 5/5/9 3/3/5
f 6/6/11 7/7/13 1/1/1
f 7/7/13 2/2/3 1/1/1
f 8/8/15 9/9/17 6/6/11
f 9/9/17 7/7/13 6/6/11
f 10/10/19 11/11/21 8/8/15
f 11/11/21 9/9/17 8/8/15
f 12/12/23 13/13/25 10/10/19
f 13/13/25 11/11/21 10/10/19
f 14/14/27 15/15/29 12/12/23
f 15/15/29 13/13/25 12/12/23
f 16/16/31 15/15/29 14/14/27
f 17/17/33 3/3/6 5/5/10
f 17/17/33 1/1/2 3/3/6
f 17/17/33 6/6/12 1/1/2
f 17/17/33 8/8/16 6/6/12
f 17/17/33 10/10/20 8/8/16
f 17/17/33 12/12/24 10/10/20
f 17/17/33 14/14/28 12/12/24
f 17/17/33 16/16/32 14/14/28
f 17/17/33 15/15/30 16/16/32
f 17/17/33 13/13/26 15/15/30
f 17/17/33 11/11/22 13/13/26
f 17/17/33 9/9/18 11/11/22
f 17/17/33 7/7/14 9/9/18
f 17/17/33 2/2/4 7/7/14
f 17/17/33 4/4/8 2/2/4
f 17/17/33 5/5/10 4/4/8
v -0.013699 38.949745 54.671017
v -13.270486 44.080154 49.462616
v -14.362741 38.949745 49.462616
v -10.160004 48.429508 49.462616
v -5.504840 51.335648 49.462616
v -0.013699 52.356148 49.462616
v 5.477442 51.335648 49.462616
v 10.132606 48.429508 49.462616
v 13.243088 44.080154 49.462616
v 14.335342 38.949745 49.462616
v -0.013699 38.949745 -82.175171
v -14.362741 38.949745 -76.966774
v -13.270486 44.080154 -76.966774
v -10.160004 48.429508 -76.966774
v -5.504840 51.335648 -76.966774
v -0.013699 52.356148 -76.966774
v 5.477442 51.335648 -76.966774
v 10.132606 48.429508 -76.966774
v 13.243088 44.080154 -76.966774
v 14.335342 38.949745 -76.966774
v -24.509045 48.429508 34.630356
v -26.527271 38.949745 34.630356
v -18.761625 56.466057 34.630356
v -10.160004 61.835907 34.630356
v -0.013699 63.721550 34.630356
v 10.132606 61.835907 34.630356
v 18.734228 56.466057 34.630356
v 24.481647 48.429508 34.630356
v 26.499874 38.949745 34.630356
v -32.018414 51.335648 12.432307
v -34.655350 38.949745 12.432307
v -24.509045 61.835907 12.432307
v -13.270486 68.851959 12.432307
v -0.013699 71.315666 12.432307
v 13.243088 68.851959 12.432307
v 24.481647 61.835907 12.432307
v 31.991014 51.335648 12.432307
v 34.627953 38.949745 12.432307
v -34.655350 52.356148 -13.752076
v -37.509552 38.949745 -13.752076
v -26.527271 63.721550 -13.752076
v -14.362741 71.315666 -13.752076
v -0.013699 73.982368 -13.752076
v 14.335342 71.315666 -13.752076
v 26.499874 63.721550 -13.752076
v 34.627953 52.356148 -13.752076
v 37.482155 38.949745 -13.752076
v -32.018414 51.335648 -39.936462
v -34.655350 38.949745 -39.936462
v -24.509045 61.835907 -39.936462
v -13.270486 68.851959 -39.936462
v -0.013699 71.315666 -39.936462
v 13.243088 68.851959 -39.936462
v 24.481647 61.835907 -39.936462
v 31.991014 51.335648 -39.936462
v 34.627953 38.949745 -39.936462
v -24.509045 48.429508 -62.134510
v -26.527271 38.949745 -62.134510
v -18.761625 56.466057 -62.134510
v -10.160004 61.835907 -62.134510
v -0.013699 63.721550 -62.134510
v 10.132606 61.835907 -62.134510
v 18.734228 56.466057 -62.134510
v 24.481647 48.429508 -62.134510
v 26.499874 38.949745 -62.134510

vt 0.250000 0.937448
vt 0.090669 0.922308
vt 0.120863 0.903449
vt 0.061686 0.945359
vt 0.035235 0.971733
vt 0.250000 0.998918
vt 0.464765 0.971733
vt 0.438314 0.945359
vt 0.409331 0.922308
vt 0.379137 0.903449
vt 0.250000 0.062552
vt 0.120863 0.096551
vt 0.090669 0.077692
vt 0.061686 0.054641
vt 0.035235 0.028267
vt 0.250000 0.001082
vt 0.464765 0.028267
vt 0.438314 0.054641
vt 0.409331 0.077692
vt 0.379137 0.096551
vt 0.026660 0.849004
vt 0.075535 0.824239
vt 0.967403 0.880044
vt 0.882227 0.911926
vt 0.750000 0.927903
vt 0.617773 0.911926
vt 0.532597 0.880044
vt 0.473340 0.849004
vt 0.424465 0.824239
vt 0.006143 0.718151
vt 0.059627 0.695133
vt 0.942453 0.749974
vt 0.858765 0.784871
vt 0.750000 0.802239
vt 0.641235 0.784871
vt 0.557547 0.749974
vt 0.493857 0.718151
vt 0.440373 0.695133
vt 0.000990 0.500000
vt 0.055460 0.500000
vt 0.936643 0.500000
vt 0.853986 0.500000
vt 0.750000 0.500000
vt 0.646014 0.500000
vt 0.563357 0.500000
vt 0.499010 0.500000
vt 0.444540 0.500000
vt 0.006143 0.281849
vt 0.059627 0.304867
vt 0.942453 0.250026
vt 0.858765 0.215129
vt 0.750000 0.197761
vt 0.641235 0.215129
vt 0.557547 0.250026
vt 0.493857 0.281849
vt 0.440373 0.304867
vt 0.026660 0.150996
vt 0.075535 0.175761
vt 0.967403 0.119956
vt 0.882227 0.088074
vt 0.750000 0.072097
vt 0.617773 0.088074
vt 0.532597 0.119956
vt 0.473340 0.150996
vt 0.424465 0.175761

vn -0.000000 0.245675 0.969352
vn 0.000000 -1.000000 -0.000001
vn -0.557660 0.283061 0.780315
vn -0.642671 0.136824 0.753826
vn 0.000000 -1.000000 -0.000000
vn -0.409281 0.483889 0.773525
vn -0.202801 0.608236 0.767411
vn 0.000000 0.599255 0.800559
vn 0.202801 0.608237 0.767411
vn 0.409281 0.483889 0.773525
vn 0.557660 0.283060 0.780315
vn 0.642671 0.136823 0.753826
vn 0.000000 -1.000000 -0.000000
vn -0.000000 0.245675 -0.969352
vn 0.000000 -1.000000 0.000001
vn -0.642671 0.136824 -0.753826
vn 0.000000 -1.000000 0.000000
vn -0.557660 0.283061 -0.780315
vn -0.409281 0.483889 -0.773525
vn -0.202801 0.608236 -0.767411
vn 0.000000 0.599255 -0.800559
vn 0.202801 0.608236 -0.767411
vn 0.409280 0.483889 -0.773525
vn 0.557660 0.283060 -0.780315
vn 0.642671 0.136824 -0.753826
vn 0.000000 -1.000000 0.000000
vn -0.793663 0.356522 0.492940
vn -0.878929 0.187123 0.438712
vn 0.000000 -1.000000 0.000000
vn -0.594752 0.641610 0.484362
vn -0.313983 0.821484 0.476002
vn 0.000000 0.854344 0.519707
vn 0.313983 0.821484 0.476002
vn 0.594751 0.641610 0.484363
vn 0.793663 0.356522 0.492940
vn 0.878929 0.187123 0.438712
vn 0.000000 -1.000000 -0.000000
vn -0.890530 0.394789 0.226049
vn -0.961340 0.204668 0.184219
vn 0.000000 -1.000000 0.000000
vn -0.666320 0.712135 0.221092
vn -0.352395 0.910542 0.216174
vn -0.000000 0.967963 0.251093
vn 0.352395 0.910542 0.216174
vn 0.666320 0.712135 0.221092
vn 0.890530 0.394789 0.226049
vn 0.961340 0.204668 0.184219
vn 0.000000 -1.000000 0.000000
vn -0.940758 0.339078 0.000000
vn -0.978080 0.208232 0.000000
vn 0.000000 -1.000000 -0.000000
vn -0.731193 0.682171 0.000000
vn -0.420454 0.907314 0.000000
vn 0.000000 1.000000 0.000000
vn 0.420454 0.907314 0.000000
vn 0.731193 0.682171 0.000000
vn 0.940758 0.339078 0.000000
vn 0.978080 0.208231 0.000000
vn 0.000000 -1.000000 0.000000
vn -0.890530 0.394789 -0.226049
vn -0.961340 0.204668 -0.184219
vn 0.000000 -1.000000 -0.000000
vn -0.666320 0.712135 -0.221092
vn -0.352395 0.910542 -0.216174
vn -0.000000 0.967963 -0.251093
vn 0.352395 0.910542 -0.216174
vn 0.666320 0.712135 -0.221092
vn 0.890530 0.394789 -0.226049
vn 0.961340 0.204668 -0.184219
vn 0.000000 -1.000000 -0.000000
vn -0.793664 0.356523 -0.492940
vn -0.878929 0.187123 -0.438712
vn 0.000000 -1.000000 0.000000
vn -0.594752 0.641610 -0.484362
vn -0.313983 0.821484 -0.476002
vn 0.000000 0.854344 -0.519707
vn 0.313983 0.821484 -0.476002
vn 0.594752 0.641610 -0.484362
vn 0.793664 0.356522 -0.492940
vn 0.878929 0.187123 -0.438712
vn 0.000000 -1.000000 -0.000000

usemtl Image Texture-3
f 18/18/34 19/19/36 20/20/37
f 18/18/34 21/21/39 19/19/36
f 18/18/34 22/22/40 21/21/39
f 18/18/34 23/23/41 22/22/40
f 18/18/34 24/24/42 23/23/41
f 18/18/34 25/25/43 24/24/42
f 18/18/34 26/26/44 25/25/43
f 18/18/34 27/27/45 26/26/44
f 28/28/47 29/29/49 30/30/51
f 28/28/47 30/30/51 31/31/52
f 28/28/47 31/31/52 32/32/53
f 28/28/47 32/32/53 33/33/54
f 28/28/47 33/33/54 34/34/55
f 28/28/47 34/34/55 35/35/56
f 28/28/47 35/35/56 36/36/57
f 28/28/47 36/36/57 37/37/58
f 38/38/60 20/20/37 19/19/36
f 39/39/61 20/20/37 38/38/60
f 21/21/39 40/40/63 19/19/36
f 40/40/63 38/38/60 19/19/36
f 41/41/64 21/21/39 22/22/40
f 40/40/63 21/21/39 41/41/64
f 42/42/65 22/22/40 23/23/41
f 41/41/64 22/22/40 42/42/65
f 43/43/66 42/42/65 24/24/42
f 23/23/41 24/24/42 42/42/65
f 44/44/67 43/43/66 25/25/43
f 24/24/42 25/25/43 43/43/66
f 45/45/68 44/44/67 26/26/44
f 44/44/67 25/25/43 26/26/44
f 46/46/69 45/45/68 27/27/45
f 45/45/68 26/26/44 27/27/45
f 38/38/60 47/47/71 39/39/61
f 47/47/71 48/48/72 39/39/61
f 40/40/63 49/49/74 38/38/60
f 49/49/74 47/47/71 38/38/60
f 50/50/75 40/40/63 41/41/64
f 49/49/74 40/40/63 50/50/75
f 51/51/76 41/41/64 42/42/65
f 50/50/75 41/41/64 51/51/76
f 52/52/77 51/51/76 43/43/66
f 51/51/76 42/42/65 43/43/66
f 53/53/78 52/52/77 44/44/67
f 52/52/77 43/43/66 44/44/67
f 54/54/79 53/53/78 45/45/68
f 53/53/78 44/44/67 45/45/68
f 55/55/80 54/54/79 46/46/69
f 54/54/79 45/45/68 46/46/69
f 47/47/71 56/56/82 48/48/72
f 56/56/82 57/57/83 48/48/72
f 58/58/85 47/47/71 49/49/74
f 56/56/82 47/47/71 58/58/85
f 59/59/86 49/49/74 50/50/75
f 58/58/85 49/49/74 59/59/86
f 60/60/87 50/50/75 51/51/76
f 59/59/86 50/50/75 60/60/87
f 61/61/88 60/60/87 52/52/77
f 60/60/87 51/51/76 52/52/77
f 62/62/89 61/61/88 53/53/78
f 61/61/88 52/52/77 53/53/78
f 63/63/90 62/62/89 54/54/79
f 62/62/89 53/53/78 54/54/79
f 64/64/91 63/63/90 55/55/80
f 63/63/90 54/54/79 55/55/80
f 65/65/93 66/66/94 56/56/82
f 66/66/94 57/57/83 56/56/82
f 67/67/96 65/65/93 58/58/85
f 65/65/93 56/56/82 58/58/85
f 68/68/97 67/67/96 59/59/86
f 67/67/96 58/58/85 59/59/86
f 69/69/98 68/68/97 60/60/87
f 68/68/97 59/59/86 60/60/87
f 70/70/99 60/60/87 61/61/88
f 69/69/98 60/60/87 70/70/99
f 71/71/100 61/61/88 62/62/89
f 70/70/99 61/61/88 71/71/100
f 72/72/101 62/62/89 63/63/90
f 71/71/100 62/62/89 72/72/101
f 73/73/102 63/63/90 64/64/91
f 72/72/101 63/63/90 73/73/102
f 74/74/104 75/75/105 65/65/93
f 66/66/94 65/65/93 75/75/105
f 76/76/107 74/74/104 67/67/96
f 74/74/104 65/65/93 67/67/96
f 77/77/108 76/76/107 68/68/97
f 76/76/107 67/67/96 68/68/97
f 78/78/109 77/77/108 69/69/98
f 68/68/97 69/69/98 77/77/108
f 70/70/99 79/79/110 69/69/98
f 79/79/110 78/78/109 69/69/98
f 80/80/111 70/70/99 71/71/100
f 79/79/110 70/70/99 80/80/111
f 81/81/112 71/71/100 72/72/101
f 80/80/111 71/71/100 81/81/112
f 73/73/102 82/82/113 72/72/101
f 82/82/113 81/81/112 72/72/101
f 30/30/51 29/29/49 74/74/104
f 29/29/49 75/75/105 74/74/104
f 31/31/52 30/30/51 76/76/107
f 30/30/51 74/74/104 76/76/107
f 32/32/53 31/31/52 77/77/108
f 76/76/107 77/77/108 31/31/52
f 33/33/54 32/32/53 78/78/109
f 77/77/108 78/78/109 32/32/53
f 79/79/110 34/34/55 78/78/109
f 34/34/55 33/33/54 78/78/109
f 35/35/56 79/79/110 80/80/111
f 34/34/55 79/79/110 35/35/56
f 81/81/112 36/36/57 80/80/111
f 36/36/57 35/35/56 80/80/111
f 82/82/113 37/37/58 81/81/112
f 37/37/58 36/36/57 81/81/112
f 18/18/35 20/20/38 27/27/46
f 39/39/62 46/46/70 20/20/38
f 46/46/70 27/27/46 20/20/38
f 48/48/73 55/55/81 39/39/62
f 55/55/81 46/46/70 39/39/62
f 57/57/84 64/64/92 48/48/73
f 64/64/92 55/55/81 48/48/73
f 66/66/95 73/73/103 57/57/84
f 73/73/103 64/64/92 57/57/84
f 75/75/106 82/82/114 66/66/95
f 82/82/114 73/73/103 66/66/95
f 29/29/50 37/37/59 75/75/106
f 37/37/59 82/82/114 75/75/106
f 28/28/48 37/37/59 29/29/50
v 35.581562 -20.108742 58.579369
v 35.581562 9.338159 58.579369
v 38.510239 -5.385292 58.579369
v 27.241398 -32.590679 58.579369
v 27.241398 21.820099 58.579369
v 14.759460 -40.930843 58.579369
v 14.759460 30.160263 58.579369
v 0.036009 -43.859524 58.579369
v 0.036009 33.088940 58.579369
v -14.687442 -40.930843 58.579369
v -14.687442 30.160263 58.579369
v -27.169380 -32.590679 58.579369
v -27.169380 21.820099 58.579369
v -35.509544 -20.108742 58.579369
v -35.509544 9.338159 58.579369
v -38.438221 -5.385292 58.579369
v 27.241398 21.820099 84.789253
v 27.241398 -32.590679 84.789253
v 35.581562 9.338159 84.789253
v 35.581562 -20.108742 84.789253
v 38.510239 -5.385292 84.789253
v 14.759460 30.160263 84.789253
v 14.759460 -40.930843 84.789253
v 0.036009 33.088940 84.789253
v 0.036009 -43.859524 84.789253
v -14.687442 30.160263 84.789253
v -14.687442 -40.930843 84.789253
v -27.169380 21.820099 84.789253
v -27.169380 -32.590679 84.789253
v -35.509544 9.338159 84.789253
v -35.509544 -20.108742 84.789253
v -38.438221 -5.385292 84.789253

vt 0.437500 0.395502
vt 0.562500 0.395502
vt 0.500000 0.395502
vt 0.375000 0.395502
vt 0.625000 0.395502
vt 0.312500 0.395502
vt 0.687500 0.395502
vt 0.250000 0.395502
vt 0.750000 0.395502
vt 0.187500 0.395502
vt 0.812500 0.395502
vt 0.125000 0.395502
vt 0.875000 0.395502
vt 0.062500 0.395502
vt 0.937500 0.395502
vt 0.000000 0.395502
vt 0.625000 0.604498
vt 0.375000 0.604498
vt 0.562500 0.604498
vt 0.437500 0.604498
vt 0.500000 0.604498
vt 0.687500 0.604498
vt 0.312500 0.604498
vt 0.750000 0.604498
vt 0.250000 0.604498
vt 0.812500 0.604498
vt 0.187500 0.604498
vt 0.875000 0.604498
vt 0.125000 0.604498
vt 0.937500 0.604498
vt 0.062500 0.604498
vt 0.000000 0.604498

vn -0.000000 0.000000 -1.000000
vn 0.947173 -0.320722 0.000000
vn 0.000000 0.000000 -1.000000
vn 0.896538 0.442968 0.000000
vn 0.000000 0.000000 -1.000000
vn 0.997809 0.066159 0.000000
vn -0.000000 0.000000 -1.000000
vn 0.752339 -0.658776 0.000000
vn -0.000000 0.000000 -1.000000
vn 0.658776 0.752339 0.000000
vn 0.000000 0.000000 -1.000000
vn 0.442968 -0.896537 0.000000
vn 0.000000 0.000000 -1.000000
vn 0.320722 0.947173 0.000000
vn 0.000000 0.000000 -1.000000
vn 0.066159 -0.997809 0.000000
vn -0.000000 0.000000 -1.000000
vn -0.066159 0.997809 0.000000
vn 0.000000 0.000000 -1.000000
vn -0.320722 -0.947173 0.000000
vn -0.000000 0.000000 -1.000000
vn -0.442968 0.896538 0.000000
vn -0.000000 0.000000 -1.000000
vn -0.658776 -0.752339 0.000000
vn 0.000000 0.000000 -1.000000
vn -0.752339 0.658776 0.000000
vn -0.000000 0.000000 -1.000000
vn -0.896537 -0.442968 0.000000
vn 0.000000 0.000000 -1.000000
vn -0.947173 0.320722 0.000000
vn 0.000000 0.000000 -1.000000
vn -0.997809 -0.066159 0.000000
vn 0.000000 0.000000 1.000000
vn 0.752339 0.658776 0.000000
vn 0.000000 0.000000 1.000000
vn 0.658776 -0.752339 0.000000
vn 0.000001 0.000000 1.000000
vn 0.947173 0.320722 0.000000
vn 0.000000 0.000000 1.000000
vn 0.896538 -0.442968 0.000000
vn 0.000000 0.000000 1.000000
vn 0.997809 -0.066159 0.000000
vn 0.000000 0.000000 1.000000
vn 0.442968 0.896538 0.000000
vn 0.000000 0.000000 1.000000
vn 0.320722 -0.947173 0.000000
vn -0.000000 0.000000 1.000000
vn 0.066159 0.997809 0.000000
vn -0.000000 0.000000 1.000000
vn -0.066159 -0.997809 0.000000
vn 0.000000 0.000000 1.000000
vn -0.320722 0.947173 0.000000
vn -0.000000 0.000000 1.000000
vn -0.442968 -0.896537 0.000000
vn -0.000000 0.000000 1.000000
vn -0.658776 0.752339 0.000000
vn -0.000000 0.000000 1.000000
vn -0.752339 -0.658776 0.000000
vn -0.000000 0.000000 1.000000
vn -0.896537 0.442968 0.000000
vn -0.000001 0.000000 1.000000
vn -0.947173 -0.320722 0.000000
vn 0.000000 0.000000 1.000000
vn -0.997809 0.066159 0.000000

usemtl Image Texture-3
f 83/83/115 84/84/117 85/85/119
f 86/86/121 87/87/123 83/83/115
f 87/87/123 84/84/117 83/83/115
f 88/88/125 89/89/127 86/86/121
f 89/89/127 87/87/123 86/86/121
f 90/90/129 91/91/131 88/88/125
f 91/91/131 89/89/127 88/88/125
f 92/92/133 93/93/135 90/90/129
f 93/93/135 91/91/131 90/90/129
f 94/94/137 95/95/139 92/92/133
f 95/95/139 93/93/135 92/92/133
f 96/96/141 97/97/143 94/94/137
f 97/97/143 95/95/139 94/94/137
f 98/98/145 97/97/143 96/96/141
f 99/99/147 100/100/149 101/101/151
f 100/100/149 102/102/153 101/101/151
f 102/102/153 103/103/155 101/101/151
f 104/104/157 105/105/159 99/99/147
f 105/105/159 100/100/149 99/99/147
f 106/106/161 107/107/163 104/104/157
f 107/107/163 105/105/159 104/104/157
f 108/108/165 109/109/167 106/106/161
f 109/109/167 107/107/163 106/106/161
f 110/110/169 111/111/171 108/108/165
f 111/111/171 109/109/167 108/108/165
f 112/112/173 113/113/175 110/110/169
f 113/113/175 111/111/171 110/110/169
f 114/114/177 113/113/175 112/112/173
f 102/102/154 83/83/116 103/103/156
f 85/85/120 103/103/156 83/83/116
f 100/100/150 86/86/122 102/102/154
f 83/83/116 102/102/154 86/86/122
f 105/105/160 88/88/126 100/100/150
f 86/86/122 100/100/150 88/88/126
f 107/107/164 90/90/130 105/105/160
f 88/88/126 105/105/160 90/90/130
f 109/109/168 92/92/134 107/107/164
f 90/90/130 107/107/164 92/92/134
f 111/111/172 94/94/138 109/109/168
f 92/92/134 109/109/168 94/94/138
f 113/113/176 96/96/142 111/111/172
f 94/94/138 111/111/172 96/96/142
f 114/114/178 98/98/146 113/113/176
f 96/96/142 113/113/176 98/98/146
f 112/112/174 97/97/144 114/114/178
f 98/98/146 114/114/178 97/97/144
f 110/110/170 95/95/140 112/112/174
f 97/97/144 112/112/174 95/95/140
f 108/108/166 93/93/136 110/110/170
f 95/95/140 110/110/170 93/93/136
f 106/106/162 91/91/132 108/108/166
f 93/93/136 108/108/166 91/91/132
f 104/104/158 89/89/128 106/106/162
f 91/91/132 106/106/162 89/89/128
f 99/99/148 87/87/124 104/104/158
f 89/89/128 104/104/158 87/87/124
f 101/101/152 84/84/118 99/99/148
f 87/87/124 99/99/148 84/84/118
f 103/103/156 85/85/120 101/101/152
f 84/84/118 101/101/152 85/85/120
v 126.834885 4.270247 22.950075
v 126.834885 3.535263 26.645090
v 126.834885 3.535263 19.255062
v 126.834885 1.442206 16.122578
v 126.834885 1.442206 29.777573
v 126.834885 -1.690277 14.029521
v 126.834885 -1.690277 31.870630
v 126.834885 -5.385292 13.294537
v 126.834885 -5.385292 32.605614
v 126.834885 -9.080306 31.870630
v 126.834885 -9.080306 14.029521
v 126.834885 -12.212789 29.777573
v 126.834885 -12.212789 16.122578
v 126.834885 -14.305847 26.645090
v 126.834885 -14.305847 19.255062
v 126.834885 -15.040832 22.950075
v -126.762863 -12.212789 16.122578
v -126.762863 -12.212789 29.777573
v -126.762863 -9.080306 14.029521
v -126.762863 -9.080306 31.870630
v -126.762863 -14.305847 19.255062
v -126.762863 -14.305847 26.645090
v -126.762863 -15.040832 22.950075
v -126.762863 4.270247 22.950075
v -126.762863 3.535263 19.255062
v -126.762863 3.535263 26.645090
v -126.762863 1.442206 29.777573
v -126.762863 1.442206 16.122578
v -126.762863 -1.690277 31.870630
v -126.762863 -1.690277 14.029521
v -126.762863 -5.385292 32.605614
v -126.762863 -5.385292 13.294537

vt 0.512096 0.500000
vt 0.511178 0.509250
vt 0.511178 0.490750
vt 0.508561 0.482902
vt 0.508561 0.517098
vt 0.504637 0.477653
vt 0.504637 0.522347
vt 0.500000 0.475808
vt 0.500000 0.524192
vt 0.495363 0.522347
vt 0.495363 0.477653
vt 0.491439 0.517098
vt 0.491439 0.482902
vt 0.488822 0.509250
vt 0.488822 0.490750
vt 0.487904 0.500000
vt 0.008561 0.482902
vt 0.008561 0.517098
vt 0.004637 0.477653
vt 0.004637 0.522347
vt 0.011178 0.490750
vt 0.011178 0.509250
vt 0.012096 0.500000
vt 0.987904 0.500000
vt 0.988822 0.490750
vt 0.988822 0.509250
vt 0.991439 0.517098
vt 0.991439 0.482902
vt 0.995363 0.522347
vt 0.995363 0.477653
vt 1.000000 0.524192
vt 1.000000 0.475808

vn 1.000000 0.000000 0.000000
vn 0.000000 0.997809 -0.066159
vn 1.000000 0.000000 0.000000
vn 0.000000 0.947173 0.320722
vn 1.000000 0.000004 0.000000
vn 0.000000 0.896538 -0.442968
vn 1.000000 0.000001 0.000000
vn 0.000000 0.658776 -0.752339
vn 1.000000 0.000001 0.000000
vn 0.000000 0.752339 0.658776
vn 1.000000 0.000001 0.000000
vn 0.000000 0.320722 -0.947173
vn 1.000000 0.000001 0.000000
vn 0.000000 0.442968 0.896538
vn 1.000000 -0.000003 0.000000
vn 0.000000 -0.066159 -0.997809
vn 1.000000 0.000002 0.000000
vn 0.000000 0.066159 0.997809
vn 1.000000 0.000000 0.000000
vn 0.000000 -0.320722 0.947173
vn 1.000000 -0.000001 0.000000
vn 0.000000 -0.442968 -0.896538
vn 1.000000 -0.000001 0.000000
vn 0.000000 -0.658776 0.752339
vn 1.000000 -0.000002 0.000000
vn 0.000000 -0.752339 -0.658776
vn 1.000000 -0.000002 0.000000
vn 0.000000 -0.896537 0.442968
vn 1.000000 0.000000 0.000000
vn 0.000000 -0.947173 -0.320722
vn 1.000000 0.000000 0.000000
vn 0.000000 -0.997809 0.066159
vn -1.000000 0.000003 0.000000
vn 0.000000 -0.658776 -0.752339
vn -1.000000 -0.000003 0.000000
vn 0.000000 -0.752339 0.658776
vn -1.000000 0.000001 0.000000
vn 0.000000 -0.320722 -0.947173
vn -1.000000 -0.000002 0.000000
vn 0.000000 -0.442968 0.896538
vn -1.000000 0.000004 0.000000
vn 0.000000 -0.896538 -0.442968
vn -1.000000 0.000001 0.000000
vn 0.000000 -0.947173 0.320722
vn -1.000000 0.000000 0.000000
vn 0.000000 -0.997809 -0.066159
vn -1.000000 0.000000 0.000000
vn 0.000000 0.997809 0.066159
vn -1.000000 -0.000001 0.000000
vn 0.000000 0.947173 -0.320722
vn -1.000000 -0.000004 0.000000
vn 0.000000 0.896538 0.442968
vn -1.000000 -0.000003 0.000000
vn 0.000000 0.658776 0.752339
vn -1.000000 0.000003 0.000000
vn 0.000000 0.752339 -0.658776
vn -1.000000 -0.000002 0.000000
vn 0.000000 0.320722 0.947173
vn -1.000000 0.000001 0.000000
vn 0.000000 0.442968 -0.896538
vn -1.000000 -0.000003 0.000000
vn 0.000000 -0.066159 0.997809
vn -1.000000 0.000004 0.000000
vn 0.000000 0.066159 -0.997809

usemtl Image Texture-3
f 115/115/179 116/116/181 117/117/183
f 118/118/185 117/117/183 116/116/181
f 119/119/187 118/118/185 116/116/181
f 120/120/189 118/118/185 119/119/187
f 121/121/191 120/120/189 119/119/187
f 122/122/193 120/120/189 121/121/191
f 123/123/195 122/122/193 121/121/191
f 124/124/197 125/125/199 123/123/195
f 125/125/199 122/122/193 123/123/195
f 126/126/201 127/127/203 124/124/197
f 127/127/203 125/125/199 124/124/197
f 128/128/205 129/129/207 126/126/201
f 129/129/207 127/127/203 126/126/201
f 130/130/209 129/129/207 128/128/205
f 131/131/211 132/132/213 133/133/215
f 132/132/213 134/134/217 133/133/215
f 135/135/219 136/136/221 131/131/211
f 136/136/221 132/132/213 131/131/211
f 137/137/223 136/136/221 135/135/219
f 138/138/225 139/139/227 140/140/229
f 141/141/231 140/140/229 139/139/227
f 142/142/233 141/141/231 139/139/227
f 143/143/235 141/141/231 142/142/233
f 144/144/237 143/143/235 142/142/233
f 145/145/239 143/143/235 144/144/237
f 146/146/241 145/145/239 144/144/237
f 133/133/215 134/134/217 146/146/241
f 134/134/217 145/145/239 146/146/241
f 146/146/242 120/120/190 122/122/194
f 144/144/238 120/120/190 146/146/242
f 144/144/238 118/118/186 120/120/190
f 142/142/234 118/118/186 144/144/238
f 142/142/234 117/117/184 118/118/186
f 139/139/228 117/117/184 142/142/234
f 139/139/228 115/115/180 117/117/184
f 138/138/226 115/115/180 139/139/228
f 138/138/226 116/116/182 115/115/180
f 140/140/230 116/116/182 138/138/226
f 140/140/230 119/119/188 116/116/182
f 141/141/232 119/119/188 140/140/230
f 141/141/232 121/121/192 119/119/188
f 143/143/236 121/121/192 141/141/232
f 143/143/236 123/123/196 121/121/192
f 145/145/240 123/123/196 143/143/236
f 145/145/240 124/124/198 123/123/196
f 134/134/218 124/124/198 145/145/240
f 134/134/218 126/126/202 124/124/198
f 132/132/214 126/126/202 134/134/218
f 132/132/214 128/128/206 126/126/202
f 136/136/222 128/128/206 132/132/214
f 136/136/222 130/130/210 128/128/206
f 137/137/224 130/130/210 136/136/222
f 137/137/224 129/129/208 130/130/210
f 135/135/220 129/129/208 137/137/224
f 135/135/220 127/127/204 129/129/208
f 131/131/212 127/127/204 135/135/220
f 131/131/212 125/125/200 127/127/204
f 133/133/216 125/125/200 131/131/212
f 133/133/216 122/122/194 125/125/200
f 146/146/242 122/122/194 133/133/216

# End of File
