# Obj file Generated by Strata 3D CX(TM): http://www.strata.com
mtllib 3.mtl
v -22.897791 -60.752384 -91.423660
v 22.969809 -60.752384 -91.423660
v 0.036009 -65.314201 -91.423660
v -42.340126 -47.761429 -91.423660
v 42.412140 -47.761429 -91.423660
v -55.331081 -28.319092 -91.423660
v 55.403095 -28.319092 -91.423660
v -59.892895 -5.385293 -91.423660
v 59.964912 -5.385293 -91.423660
v -55.331081 17.548508 -91.423660
v 55.403095 17.548508 -91.423660
v -42.340126 36.990845 -91.423660
v 42.412140 36.990845 -91.423660
v -22.897791 49.981792 -91.423660
v 22.969809 49.981792 -91.423660
v 0.036009 54.543613 -91.423660
v 42.412140 -47.761429 64.714798
v -42.340126 -47.761429 64.714798
v 22.969809 -60.752384 64.714798
v -22.897791 -60.752384 64.714798
v 0.036009 -65.314201 64.714798
v 55.403095 -28.319092 64.714798
v -55.331081 -28.319092 64.714798
v 59.964912 -5.385293 64.714798
v -59.892895 -5.385293 64.714798
v 55.403095 17.548508 64.714798
v -55.331081 17.548508 64.714798
v 42.412140 36.990845 64.714798
v -42.340126 36.990845 64.714798
v 22.969809 49.981792 64.714798
v -22.897791 49.981792 64.714798
v 0.036009 54.543613 64.714798

vt 0.687501 0.131064
vt 0.812499 0.131064
vt 0.750000 0.131064
vt 0.625001 0.131064
vt 0.874998 0.131064
vt 0.562501 0.131064
vt 0.937499 0.131064
vt 0.500000 0.131064
vt 1.000000 0.131064
vt 0.437500 0.131064
vt 0.062501 0.131064
vt 0.000000 0.131064
vt 0.374999 0.131064
vt 0.125002 0.131064
vt 0.312500 0.131064
vt 0.187501 0.131064
vt 0.250000 0.131064
vt 0.874999 0.368936
vt 0.625002 0.368936
vt 0.812500 0.368936
vt 0.687500 0.368936
vt 0.750000 0.368936
vt 0.937499 0.368936
vt 0.562501 0.368936
vt 1.000000 0.368936
vt 0.500000 0.368936
vt 0.062500 0.368936
vt 0.437499 0.368936
vt 0.000001 0.368936
vt 0.125001 0.368936
vt 0.374998 0.368936
vt 0.187500 0.368936
vt 0.312499 0.368936
vt 0.250000 0.368936

vn 0.000000 -0.000000 -1.000000
vn -0.382683 -0.923880 0.000000
vn 0.000000 -0.000001 -1.000000
vn 0.442968 -0.896538 0.000000
vn 0.000000 0.000000 -1.000000
vn 0.066159 -0.997809 0.000000
vn -0.000000 0.000000 -1.000000
vn -0.707107 -0.707107 0.000000
vn 0.000000 -0.000000 -1.000000
vn 0.752339 -0.658776 0.000000
vn -0.000000 0.000000 -1.000000
vn -0.896538 -0.442968 0.000000
vn -0.000000 0.000000 -1.000000
vn 0.947173 -0.320722 0.000000
vn 0.000000 -0.000000 -1.000000
vn -0.997809 -0.066159 0.000000
vn -0.000000 0.000000 -1.000000
vn 0.997809 0.066159 0.000000
vn 0.000000 -0.000000 -1.000000
vn -0.947173 0.320722 0.000000
vn 0.000000 -0.000000 -1.000000
vn 0.923880 0.382683 0.000000
vn -0.000000 0.000000 -1.000000
vn -0.752339 0.658776 0.000000
vn 0.000000 -0.000000 -1.000000
vn 0.707107 0.707107 0.000000
vn -0.000000 0.000001 -1.000000
vn -0.442968 0.896538 0.000000
vn -0.000000 0.000000 -1.000000
vn 0.320722 0.947173 0.000000
vn 0.000000 0.000000 -1.000000
vn -0.066159 0.997809 0.000000
vn -0.000000 0.000000 1.000000
vn 0.658776 -0.752339 0.000000
vn 0.000000 -0.000000 1.000000
vn -0.707107 -0.707107 0.000000
vn 0.000000 -0.000000 1.000000
vn 0.320722 -0.947173 0.000000
vn 0.000000 -0.000001 1.000000
vn -0.382683 -0.923880 0.000000
vn 0.000000 0.000000 1.000000
vn -0.066159 -0.997809 0.000000
vn -0.000000 0.000000 1.000000
vn 0.896537 -0.442968 0.000000
vn 0.000000 -0.000000 1.000000
vn -0.947173 -0.320722 0.000000
vn -0.000000 0.000000 1.000000
vn 0.997809 -0.066159 0.000000
vn 0.000000 -0.000000 1.000000
vn -0.997809 0.066159 0.000000
vn -0.000000 0.000000 1.000000
vn 0.923880 0.382683 0.000000
vn 0.000000 -0.000000 1.000000
vn -0.896538 0.442968 0.000000
vn -0.000000 0.000000 1.000000
vn 0.707107 0.707107 0.000000
vn 0.000000 -0.000000 1.000000
vn -0.658776 0.752339 0.000000
vn -0.000000 0.000001 1.000000
vn 0.442968 0.896538 0.000000
vn -0.000000 0.000000 1.000000
vn -0.320722 0.947173 0.000000
vn 0.000000 0.000000 1.000000
vn 0.066159 0.997809 0.000000

usemtl Image Texture-1
f 1/1/1 2/2/3 3/3/5
f 4/4/7 5/5/9 1/1/1
f 5/5/9 2/2/3 1/1/1
f 6/6/11 7/7/13 4/4/7
f 7/7/13 5/5/9 4/4/7
f 8/8/15 9/9/17 6/6/11
f 9/9/17 7/7/13 6/6/11
f 10/10/19 11/11/21 8/8/15
f 11/11/21 9/12/17 8/8/15
f 12/13/23 13/14/25 10/10/19
f 13/14/25 11/11/21 10/10/19
f 14/15/27 15/16/29 12/13/23
f 15/16/29 13/14/25 12/13/23
f 16/17/31 15/16/29 14/15/27
f 17/18/33 18/19/35 19/20/37
f 18/19/35 20/21/39 19/20/37
f 20/21/39 21/22/41 19/20/37
f 22/23/43 23/24/45 17/18/33
f 23/24/45 18/19/35 17/18/33
f 24/25/47 25/26/49 22/23/43
f 25/26/49 23/24/45 22/23/43
f 26/27/51 27/28/53 24/29/47
f 27/28/53 25/26/49 24/29/47
f 28/30/55 29/31/57 26/27/51
f 29/31/57 27/28/53 26/27/51
f 30/32/59 31/33/61 28/30/55
f 31/33/61 29/31/57 28/30/55
f 32/34/63 31/33/61 30/32/59
f 20/21/40 1/1/2 21/22/42
f 3/3/6 21/22/42 1/1/2
f 20/21/40 18/19/36 1/1/2
f 4/4/8 1/1/2 18/19/36
f 23/24/46 6/6/12 18/19/36
f 4/4/8 18/19/36 6/6/12
f 25/26/50 8/8/16 23/24/46
f 6/6/12 23/24/46 8/8/16
f 27/28/54 10/10/20 25/26/50
f 8/8/16 25/26/50 10/10/20
f 29/31/58 12/13/24 27/28/54
f 10/10/20 27/28/54 12/13/24
f 31/33/62 14/15/28 29/31/58
f 12/13/24 29/31/58 14/15/28
f 32/34/64 16/17/32 31/33/62
f 14/15/28 31/33/62 16/17/32
f 30/32/60 15/16/30 32/34/64
f 16/17/32 32/34/64 15/16/30
f 28/30/56 13/14/26 30/32/60
f 15/16/30 30/32/60 13/14/26
f 28/30/56 26/27/52 13/14/26
f 11/11/22 13/14/26 26/27/52
f 24/29/48 9/12/18 26/27/52
f 11/11/22 26/27/52 9/12/18
f 22/23/44 7/7/14 24/25/48
f 9/9/18 24/25/48 7/7/14
f 17/18/34 5/5/10 22/23/44
f 7/7/14 22/23/44 5/5/10
f 19/20/38 2/2/4 17/18/34
f 5/5/10 17/18/34 2/2/4
f 21/22/42 3/3/6 19/20/38
f 2/2/4 19/20/38 3/3/6

# End of File
