# Obj file Generated by Strata 3D CX(TM): http://www.strata.com
mtllib 1.mtl
v -110.283661 -16.491119 -19.488977
v -114.072609 -35.539413 -19.488977
v -114.072609 2.557174 -19.488977
v -124.862595 18.705536 -19.488977
v -124.862595 -51.687778 -19.488977
v -141.010956 29.495529 -19.488977
v -141.010956 -62.477768 -19.488977
v -160.059250 33.284470 -19.488977
v -160.059250 -66.266708 -19.488977
v -179.107544 29.495529 -19.488977
v -179.107544 -62.477768 -19.488977
v -195.255905 18.705536 -19.488977
v -195.255905 -51.687778 -19.488977
v -206.045898 2.557174 -19.488977
v -206.045898 -35.539413 -19.488977
v -209.834854 -16.491119 -19.488977
v -110.283661 -16.491119 65.389130
v -114.072609 2.557174 65.389130
v -114.072609 -35.539413 65.389130
v -124.862595 -51.687778 65.389130
v -124.862595 18.705536 65.389130
v -141.010956 -62.477768 65.389130
v -141.010956 29.495529 65.389130
v -160.059250 -66.266708 65.389130
v -160.059250 33.284470 65.389130
v -179.107544 -62.477768 65.389130
v -179.107544 29.495529 65.389130
v -195.255905 -51.687778 65.389130
v -195.255905 18.705536 65.389130
v -206.045898 -35.539413 65.389130
v -206.045898 2.557174 65.389130
v -209.834854 -16.491119 65.389130

vt 0.248529 0.251721
vt 0.267540 0.156147
vt 0.267540 0.347295
vt 0.321679 0.428319
vt 0.321679 0.075123
vt 0.402703 0.482458
vt 0.402704 0.020984
vt 0.498278 0.501469
vt 0.498279 0.001973
vt 0.593854 0.482458
vt 0.593854 0.020984
vt 0.674878 0.428319
vt 0.674879 0.075122
vt 0.729018 0.347295
vt 0.729018 0.156146
vt 0.748029 0.251721
vt 0.248529 0.248279
vt 0.267540 0.152705
vt 0.267540 0.343853
vt 0.321679 0.424878
vt 0.321679 0.071681
vt 0.402703 0.479016
vt 0.402704 0.017543
vt 0.498278 0.498027
vt 0.498279 -0.001468
vt 0.593854 0.479016
vt 0.593854 0.017542
vt 0.674878 0.424878
vt 0.674879 0.071681
vt 0.729018 0.343854
vt 0.729018 0.152704
vt 0.748029 0.248279
vt 0.593854 0.510684
vt 0.498280 0.510684
vt 0.593854 0.011191
vt 0.498280 0.011189
vt 0.325120 0.510684
vt 0.325120 0.011189
vt 0.406145 0.510684
vt 0.406145 0.011191
vt 0.501720 0.510684
vt 0.501720 0.011189
vt 0.597295 0.510684
vt 0.597296 0.011189
vt 0.678320 0.510684
vt 0.321679 0.011189
vt 0.402703 0.510684
vt 0.402704 0.011189
vt 0.321679 0.510684

vn 0.000000 0.000000 -1.000000
vn 0.997809 0.066159 0.000000
vn -0.000000 0.000000 -1.000000
vn 0.947173 -0.320722 0.000000
vn -0.000000 0.000000 -1.000000
vn 0.896537 0.442968 0.000000
vn -0.000000 0.000000 -1.000000
vn 0.658776 0.752339 0.000000
vn -0.000000 0.000000 -1.000000
vn 0.707107 -0.707107 0.000000
vn 0.000000 0.000000 -1.000000
vn 0.320722 0.947173 0.000000
vn 0.000000 0.000000 -1.000000
vn 0.382683 -0.923880 0.000000
vn 0.000000 0.000000 -1.000000
vn 0.000000 1.000000 0.000000
vn -0.000000 0.000000 -1.000000
vn 0.066159 -0.997809 0.000000
vn 0.000000 0.000000 -1.000000
vn -0.320722 0.947173 0.000000
vn -0.000000 0.000000 -1.000000
vn -0.382683 -0.923880 0.000000
vn 0.000000 0.000000 -1.000000
vn -0.707107 0.707107 0.000000
vn 0.000000 0.000000 -1.000000
vn -0.707107 -0.707107 0.000000
vn 0.000000 0.000000 -1.000000
vn -0.947173 0.320722 0.000000
vn -0.000000 0.000000 -1.000000
vn -0.923879 -0.382684 0.000000
vn 0.000000 0.000000 -1.000000
vn -1.000000 0.000000 0.000000
vn 0.000000 0.000000 1.000000
vn 0.997809 -0.066159 0.000000
vn 0.000000 0.000000 1.000000
vn 0.947173 0.320722 0.000000
vn 0.000000 0.000000 1.000000
vn 0.896537 -0.442968 0.000000
vn -0.000000 0.000000 1.000000
vn 0.707107 -0.707107 0.000000
vn -0.000000 0.000000 1.000000
vn 0.752339 0.658776 0.000000
vn 0.000000 0.000000 1.000000
vn 0.382683 -0.923880 0.000000
vn 0.000000 0.000000 1.000000
vn 0.442968 0.896537 0.000000
vn 0.000000 0.000000 1.000000
vn -0.066159 -0.997809 0.000000
vn -0.000000 0.000000 1.000000
vn 0.000000 1.000000 0.000000
vn -0.000000 0.000000 1.000000
vn -0.382683 -0.923880 0.000000
vn -0.000000 0.000000 1.000000
vn -0.442968 0.896537 0.000000
vn 0.000000 0.000000 1.000000
vn -0.707107 -0.707107 0.000000
vn 0.000000 0.000000 1.000000
vn -0.707107 0.707107 0.000000
vn 0.000000 0.000000 1.000000
vn -0.923880 -0.382683 0.000000
vn 0.000000 0.000000 1.000000
vn -0.896538 0.442968 0.000000
vn 0.000000 0.000000 1.000000
vn -1.000000 0.000000 0.000000

usemtl Image Texture-7
f 1/1/1 2/2/3 3/3/5
f 4/4/7 3/3/5 2/2/3
f 5/5/9 4/4/7 2/2/3
f 6/6/11 4/4/7 5/5/9
f 7/7/13 6/6/11 5/5/9
f 8/8/15 6/6/11 7/7/13
f 9/9/17 8/8/15 7/7/13
f 10/10/19 8/8/15 9/9/17
f 11/11/21 10/10/19 9/9/17
f 12/12/23 10/10/19 11/11/21
f 13/13/25 12/12/23 11/11/21
f 14/14/27 12/12/23 13/13/25
f 15/15/29 14/14/27 13/13/25
f 16/16/31 14/14/27 15/15/29
f 17/17/33 18/18/35 19/19/37
f 20/20/39 19/19/37 18/18/35
f 21/21/41 20/20/39 18/18/35
f 22/22/43 20/20/39 21/21/41
f 23/23/45 22/22/43 21/21/41
f 24/24/47 22/22/43 23/23/45
f 25/25/49 24/24/47 23/23/45
f 26/26/51 24/24/47 25/25/49
f 27/27/53 26/26/51 25/25/49
f 28/28/55 26/26/51 27/27/53
f 29/29/57 28/28/55 27/27/53
f 30/30/59 28/28/55 29/29/57
f 31/31/61 30/30/59 29/29/57
f 32/32/63 30/30/59 31/31/61
f 30/33/60 32/34/64 15/35/30
f 16/36/32 15/35/30 32/34/64
f 30/33/60 15/35/30 28/37/56
f 13/38/26 28/37/56 15/35/30
f 26/39/52 28/37/56 11/40/22
f 13/38/26 11/40/22 28/37/56
f 26/39/52 11/40/22 24/41/48
f 9/42/18 24/41/48 11/40/22
f 24/41/48 9/42/18 22/43/44
f 7/44/14 22/43/44 9/42/18
f 20/37/40 22/43/44 5/38/10
f 7/44/14 5/38/10 22/43/44
f 20/37/40 5/38/10 19/39/38
f 2/40/4 19/39/38 5/38/10
f 19/39/38 2/40/4 17/41/34
f 1/42/2 17/41/34 2/40/4
f 17/41/34 1/42/2 18/43/36
f 3/44/6 18/43/36 1/42/2
f 18/43/36 3/44/6 21/45/42
f 4/46/8 21/45/42 3/44/6
f 21/45/42 4/46/8 23/47/46
f 6/48/12 23/47/46 4/46/8
f 23/47/46 6/48/12 25/34/50
f 8/36/16 25/34/50 6/48/12
f 27/33/54 25/34/50 10/35/20
f 8/36/16 10/35/20 25/34/50
f 29/49/58 27/33/54 12/46/24
f 10/35/20 12/46/24 27/33/54
f 29/49/58 12/46/24 31/47/62
f 14/48/28 31/47/62 12/46/24
f 31/47/62 14/48/28 32/34/64
f 16/36/32 32/34/64 14/48/28
v 140.898544 -62.477768 -19.488977
v 140.898544 29.495529 -19.488977
v 159.946838 -66.266708 -19.488977
v 159.946838 33.284470 -19.488977
v 124.750183 -51.687790 -19.488977
v 124.750183 18.705536 -19.488977
v 113.960190 -35.539413 -19.488977
v 113.960190 2.557174 -19.488977
v 110.171249 -16.491119 -19.488977
v 209.722427 -16.491119 -19.488977
v 205.933487 -35.539413 -19.488977
v 205.933487 2.557174 -19.488977
v 195.143494 18.705536 -19.488977
v 195.143494 -51.687790 -19.488977
v 178.995132 29.495529 -19.488977
v 178.995132 -62.477768 -19.488977
v 209.722427 -16.491119 65.389130
v 205.933487 2.557174 65.389130
v 205.933487 -35.539413 65.389130
v 195.143494 -51.687790 65.389130
v 195.143494 18.705536 65.389130
v 178.995132 -62.477768 65.389130
v 178.995132 29.495529 65.389130
v 159.946838 33.284470 65.389130
v 159.946838 -66.266708 65.389130
v 140.898544 29.495529 65.389130
v 140.898544 -62.477768 65.389130
v 124.750183 18.705536 65.389130
v 124.750183 -51.687790 65.389130
v 113.960190 2.557174 65.389130
v 113.960190 -35.539413 65.389130
v 110.171249 -16.491119 65.389130

vt 0.600676 0.326403
vt 0.600676 0.867650
vt 0.505102 0.304106
vt 0.505102 0.889950
vt 0.681701 0.389901
vt 0.681701 0.804153
vt 0.735840 0.484931
vt 0.735840 0.709123
vt 0.754851 0.597028
vt 0.255351 0.597028
vt 0.274362 0.484932
vt 0.274362 0.709124
vt 0.328500 0.804156
vt 0.328501 0.389901
vt 0.409525 0.867653
vt 0.409525 0.326404
vt 0.744649 0.597028
vt 0.725638 0.709124
vt 0.725638 0.484932
vt 0.671500 0.389901
vt 0.671499 0.804155
vt 0.590475 0.326403
vt 0.590475 0.867653
vt 0.494899 0.889950
vt 0.494899 0.304109
vt 0.399324 0.867653
vt 0.399324 0.326406
vt 0.318299 0.804156
vt 0.318299 0.389903
vt 0.264160 0.709125
vt 0.264160 0.484933
vt 0.245149 0.597028
vt 0.600676 0.363564
vt 0.600676 0.789435
vt 0.505102 0.363564
vt 0.505102 0.789438
vt 0.719769 0.389899
vt 0.681701 0.789435
vt 0.719769 0.484930
vt 0.293898 0.484930
vt 0.719770 0.597028
vt 0.293898 0.597028
vt 0.719770 0.709125
vt 0.293898 0.709125
vt 0.681701 0.803103
vt 0.293898 0.804157
vt 0.600677 0.803103
vt 0.600677 0.377231
vt 0.505102 0.803103
vt 0.505102 0.377229
vt 0.409526 0.803103
vt 0.409526 0.377231
vt 0.280230 0.804158
vt 0.328501 0.377231
vt 0.280230 0.709126
vt 0.706102 0.709126
vt 0.280230 0.597029
vt 0.706102 0.597029
vt 0.280230 0.484931
vt 0.706102 0.484931
vt 0.280230 0.389900
vt 0.328501 0.789438
vt 0.409525 0.363564
vt 0.409525 0.789438

vn 0.000000 0.000000 -1.000000
vn -0.320722 -0.947173 0.000000
vn 0.000000 0.000000 -1.000000
vn -0.382684 0.923880 0.000000
vn 0.000000 0.000000 -1.000000
vn 0.066159 -0.997809 0.000000
vn 0.000000 0.000000 -1.000000
vn -0.000000 1.000000 0.000000
vn 0.000000 0.000000 -1.000000
vn -0.658776 -0.752339 0.000000
vn 0.000000 0.000000 -1.000000
vn -0.752339 0.658776 0.000000
vn 0.000000 0.000000 -1.000000
vn -0.896538 -0.442967 0.000000
vn 0.000000 0.000000 -1.000000
vn -0.947173 0.320722 0.000000
vn 0.000000 0.000000 -1.000000
vn -0.997809 -0.066159 0.000000
vn 0.000000 0.000000 -1.000000
vn 0.997809 0.066159 0.000000
vn 0.000000 0.000000 -1.000000
vn 0.923880 -0.382683 0.000000
vn 0.000000 0.000000 -1.000000
vn 0.896537 0.442968 0.000000
vn 0.000000 0.000000 -1.000000
vn 0.658777 0.752339 0.000000
vn 0.000000 0.000000 -1.000000
vn 0.658776 -0.752339 0.000000
vn 0.000000 0.000000 -1.000000
vn 0.320722 0.947173 0.000000
vn 0.000000 0.000000 -1.000000
vn 0.382683 -0.923880 0.000000
vn 0.000000 0.000000 1.000000
vn 0.997809 -0.066159 0.000000
vn 0.000000 0.000000 1.000000
vn 0.947173 0.320722 0.000000
vn 0.000000 0.000000 1.000000
vn 0.923880 -0.382683 0.000000
vn 0.000000 0.000000 1.000000
vn 0.752339 -0.658776 0.000000
vn 0.000000 0.000000 1.000000
vn 0.752339 0.658776 0.000000
vn 0.000000 0.000000 1.000000
vn 0.382683 -0.923880 0.000000
vn 0.000000 0.000000 1.000000
vn 0.442968 0.896537 0.000000
vn 0.000000 0.000000 1.000000
vn -0.000000 1.000000 0.000000
vn 0.000000 0.000000 1.000000
vn -0.066159 -0.997809 0.000000
vn 0.000000 0.000000 1.000000
vn -0.382683 0.923880 0.000000
vn 0.000000 0.000000 1.000000
vn -0.442967 -0.896538 0.000000
vn 0.000000 0.000000 1.000000
vn -0.658776 0.752339 0.000000
vn 0.000000 0.000000 1.000000
vn -0.752339 -0.658776 0.000000
vn 0.000000 0.000000 1.000000
vn -0.896537 0.442968 0.000000
vn 0.000000 0.000000 1.000000
vn -0.947173 -0.320722 0.000000
vn 0.000000 0.000000 1.000000
vn -0.997809 0.066159 0.000000

usemtl Image Texture-7
f 33/50/65 34/51/67 35/52/69
f 34/51/67 36/53/71 35/52/69
f 37/54/73 38/55/75 33/50/65
f 38/55/75 34/51/67 33/50/65
f 39/56/77 40/57/79 37/54/73
f 40/57/79 38/55/75 37/54/73
f 41/58/81 40/57/79 39/56/77
f 42/59/83 43/60/85 44/61/87
f 45/62/89 44/61/87 43/60/85
f 46/63/91 45/62/89 43/60/85
f 47/64/93 45/62/89 46/63/91
f 48/65/95 47/64/93 46/63/91
f 35/52/69 36/53/71 48/65/95
f 36/53/71 47/64/93 48/65/95
f 49/66/97 50/67/99 51/68/101
f 52/69/103 51/68/101 50/67/99
f 53/70/105 52/69/103 50/67/99
f 54/71/107 52/69/103 53/70/105
f 55/72/109 54/71/107 53/70/105
f 56/73/111 57/74/113 55/72/109
f 57/74/113 54/71/107 55/72/109
f 58/75/115 59/76/117 56/73/111
f 59/76/117 57/74/113 56/73/111
f 60/77/119 61/78/121 58/75/115
f 61/78/121 59/76/117 58/75/115
f 62/79/123 63/80/125 60/77/119
f 63/80/125 61/78/121 60/77/119
f 64/81/127 63/80/125 62/79/123
f 59/82/118 33/83/66 57/84/114
f 35/85/70 57/84/114 33/83/66
f 61/86/122 37/87/74 59/82/118
f 33/83/66 59/82/118 37/87/74
f 63/88/126 39/89/78 61/86/122
f 37/87/74 61/86/122 39/89/78
f 64/90/128 41/91/82 63/88/126
f 39/89/78 63/88/126 41/91/82
f 62/92/124 40/93/80 64/90/128
f 41/91/82 64/90/128 40/93/80
f 60/94/120 38/95/76 62/92/124
f 40/93/80 62/92/124 38/95/76
f 58/96/116 34/97/68 60/94/120
f 38/95/76 60/94/120 34/97/68
f 58/96/116 56/98/112 34/97/68
f 36/99/72 34/97/68 56/98/112
f 55/100/110 47/101/94 56/98/112
f 36/99/72 56/98/112 47/101/94
f 53/102/106 45/103/90 55/100/110
f 47/101/94 55/100/110 45/103/90
f 50/104/100 44/105/88 53/102/106
f 45/103/90 53/102/106 44/105/88
f 49/106/98 42/107/84 50/104/100
f 44/105/88 50/104/100 42/107/84
f 51/108/102 43/109/86 49/106/98
f 42/107/84 49/106/98 43/109/86
f 51/108/102 52/110/104 43/109/86
f 46/111/92 43/109/86 52/110/104
f 52/110/104 54/112/108 46/111/92
f 48/113/96 46/111/92 54/112/108
f 57/84/114 35/85/70 54/112/108
f 48/113/96 54/112/108 35/85/70

# End of File
