# Obj file Generated by Strata 3D CX(TM): http://www.strata.com
mtllib stick.mtl
v -50.423740 -237.400543 -1.484276
v -48.939465 -234.829712 -1.484276
v -50.731144 -237.932983 0.000000
v -48.632057 -234.297272 0.000000
v -49.681602 -236.115128 -2.099084
v -49.681602 -236.115128 2.099084
v -50.423740 -237.400543 1.484276
v -48.939465 -234.829712 1.484276
v -269.415833 -109.251526 2.099084
v -268.673676 -107.966103 1.484276
v -270.157959 -110.536942 1.484276
v -268.366272 -107.433662 0.000000
v -270.465363 -111.069382 0.000000
v -268.673676 -107.966103 -1.484276
v -270.157959 -110.536942 -1.484276
v -269.415833 -109.251526 -2.099084

vt 0.414805 0.496276
vt 0.418529 0.496276
vt 0.414034 0.500000
vt 0.419300 0.500000
vt 0.416667 0.494734
vt 0.416667 0.505266
vt 0.414805 0.503724
vt 0.418529 0.503724
vt 0.916667 0.505266
vt 0.914805 0.503724
vt 0.918529 0.503724
vt 0.914034 0.500000
vt 0.919300 0.500000
vt 0.914805 0.496276
vt 0.918529 0.496276
vt 0.916667 0.494734

vn 0.866024 -0.500003 0.000003
vn -0.353552 -0.612371 -0.707109
vn 0.866024 -0.500003 0.000003
vn 0.398588 0.690375 -0.603747
vn 0.866024 -0.500001 -0.000003
vn -0.495301 -0.857887 0.136769
vn 0.866024 -0.500002 0.000003
vn 0.495301 0.857887 0.136770
vn 0.866023 -0.500003 0.000017
vn 0.068388 0.118451 -0.990602
vn 0.866023 -0.500003 -0.000017
vn 0.068388 0.118451 0.990602
vn 0.866024 -0.500003 -0.000003
vn -0.301875 -0.522863 0.797174
vn 0.866023 -0.500004 -0.000003
vn 0.353555 0.612375 0.707103
vn -0.866020 0.500010 -0.000025
vn -0.068385 -0.118446 0.990603
vn -0.866024 0.500003 -0.000008
vn 0.353554 0.612374 0.707105
vn -0.866026 0.499999 -0.000014
vn -0.398587 -0.690373 0.603749
vn -0.866022 0.500006 0.000001
vn 0.495302 0.857887 -0.136769
vn -0.866026 0.499999 -0.000001
vn -0.495302 -0.857887 -0.136769
vn -0.866020 0.500009 0.000013
vn 0.301875 0.522863 -0.797173
vn -0.866022 0.500005 0.000008
vn -0.353556 -0.612377 -0.707101
vn -0.866020 0.500010 0.000025
vn -0.068385 -0.118446 -0.990603

usemtl Image Texture-7
f 1/1/1 2/2/3 3/3/5
f 2/2/3 4/4/7 3/3/5
f 5/5/9 2/2/3 1/1/1
f 6/6/11 7/7/13 8/8/15
f 3/3/5 4/4/7 7/7/13
f 4/4/7 8/8/15 7/7/13
f 9/9/17 10/10/19 11/11/21
f 12/12/23 13/13/25 10/10/19
f 13/13/25 11/11/21 10/10/19
f 14/14/27 15/15/29 12/12/23
f 15/15/29 13/13/25 12/12/23
f 16/16/31 15/15/29 14/14/27
f 13/13/26 1/1/2 3/3/6
f 15/15/30 1/1/2 13/13/26
f 15/15/30 16/16/32 1/1/2
f 16/16/32 5/5/10 1/1/2
f 16/16/32 14/14/28 5/5/10
f 14/14/28 2/2/4 5/5/10
f 14/14/28 12/12/24 2/2/4
f 12/12/24 4/4/8 2/2/4
f 12/12/24 10/10/20 4/4/8
f 10/10/20 8/8/16 4/4/8
f 10/10/20 6/6/12 8/8/16
f 9/9/18 6/6/12 10/10/20
f 9/9/18 7/7/14 6/6/12
f 11/11/22 7/7/14 9/9/18
f 11/11/22 3/3/6 7/7/14
f 13/13/26 3/3/6 11/11/22

# End of File
